<svg width="16" height="16" viewBox="0 0 16 16" fill="none" xmlns="http://www.w3.org/2000/svg">
<path fill-rule="evenodd" clip-rule="evenodd" d="M8 1C11.8637 1 15 4.13632 15 8C15 11.8637 11.8637 15 8 15C4.13632 15 1 11.8637 1 8C1 4.13632 4.13632 1 8 1ZM8 2C4.6888 2 2 4.6888 2 8C2 11.3112 4.6888 14 8 14C11.3112 14 14 11.3112 14 8C14 4.6888 11.3112 2 8 2ZM5.64624 8.85376C5.45123 8.65875 5.45123 8.34126 5.64624 8.14626C5.84125 7.95125 6.15874 7.95125 6.35374 8.14626L7.47562 9.26875L10.6238 5.67067C10.8056 5.46317 11.1213 5.44192 11.3294 5.6238C11.5369 5.80567 11.5582 6.1213 11.3763 6.32943L7.87628 10.3294C7.78503 10.4338 7.65504 10.4951 7.51628 10.4994C7.37878 10.5044 7.24441 10.4513 7.14628 10.3538L5.64624 8.85376Z" fill="#002E4F"/>
</svg>
