<?xml version="1.0" encoding="UTF-8"?>
<svg width="1200pt" height="1200pt" version="1.1" viewBox="0 0 1200 1200" xmlns="http://www.w3.org/2000/svg">
 <path d="m1050 431.25c4.9727 0 9.7422-1.9766 13.258-5.4922 3.5156-3.5156 5.4922-8.2852 5.4922-13.258v-81.562c0-4.9727-1.9766-9.7422-5.4922-13.258-3.5156-3.5156-8.2852-5.4922-13.258-5.4922h-84.375v-46.5c0-4.9727-1.9766-9.7422-5.4922-13.258-3.5156-3.5156-8.2852-5.4922-13.258-5.4922h-150c-4.9727 0-9.7422 1.9766-13.258 5.4922-3.5156 3.5156-5.4922 8.2852-5.4922 13.258v46.5h-356.25v-46.5c0-4.9727-1.9766-9.7422-5.4922-13.258-3.5156-3.5156-8.2852-5.4922-13.258-5.4922h-150c-4.9727 0-9.7422 1.9766-13.258 5.4922-3.5156 3.5156-5.4922 8.2852-5.4922 13.258v46.5h-84.375c-4.9727 0-9.7422 1.9766-13.258 5.4922-3.5156 3.5156-5.4922 8.2852-5.4922 13.258v81.562c0 4.9727 1.9766 9.7422 5.4922 13.258 3.5156 3.5156 8.2852 5.4922 13.258 5.4922h46.875v417h-46.875c-4.9727 0-9.7422 1.9766-13.258 5.4922-3.5156 3.5156-5.4922 8.2852-5.4922 13.258v81.188c0 4.9727 1.9766 9.7422 5.4922 13.258 3.5156 3.5156 8.2852 5.4922 13.258 5.4922h900c4.9727 0 9.7422-1.9766 13.258-5.4922 3.5156-3.5156 5.4922-8.2852 5.4922-13.258v-81.188c0-4.9727-1.9766-9.7422-5.4922-13.258-3.5156-3.5156-8.2852-5.4922-13.258-5.4922h-46.875v-417zm-234.38-146.81h112.5v27.75h-112.5zm-543.75 0h112.5v27.75h-112.5zm759.38 645h-862.5v-43.688h862.5zm-65.625-81.188h-731.25v-417h580.12c6.6992 0 12.887-3.5742 16.238-9.375 3.3477-5.8008 3.3477-12.949 0-18.75-3.3516-5.8008-9.5391-9.375-16.238-9.375h-645.75v-44.062h862.5v44.062h-110.25c-6.6992 0-12.887 3.5742-16.238 9.375-3.3477 5.8008-3.3477 12.949 0 18.75 3.3516 5.8008 9.5391 9.375 16.238 9.375h44.625zm-581.25-316.12c0 4.9727-1.9766 9.7422-5.4922 13.258-3.5156 3.5156-8.2852 5.4922-13.258 5.4922h-18.75v18.75c0 6.6992-3.5742 12.887-9.375 16.238-5.8008 3.3477-12.949 3.3477-18.75 0-5.8008-3.3516-9.375-9.5391-9.375-16.238v-18.75h-18.75c-6.6992 0-12.887-3.5742-16.238-9.375-3.3477-5.8008-3.3477-12.949 0-18.75 3.3516-5.8008 9.5391-9.375 16.238-9.375h18.75v-18.75c0-6.6992 3.5742-12.887 9.375-16.238 5.8008-3.3477 12.949-3.3477 18.75 0 5.8008 3.3516 9.375 9.5391 9.375 16.238v18.75h18.75c4.9062 0.097656 9.582 2.1172 13.016 5.6211 3.4375 3.5078 5.3594 8.2188 5.3594 13.129zm525-18.75c6.6992 0 12.887 3.5742 16.238 9.375 3.3477 5.8008 3.3477 12.949 0 18.75-3.3516 5.8008-9.5391 9.375-16.238 9.375h-75c-6.6992 0-12.887-3.5742-16.238-9.375-3.3477-5.8008-3.3477-12.949 0-18.75 3.3516-5.8008 9.5391-9.375 16.238-9.375zm-208.69 80.25-72.938-16.125-9-110.62c-0.4375-5.4766-3.2539-10.484-7.707-13.703-4.4492-3.2148-10.09-4.3203-15.426-3.0195-5.3359 1.3008-9.8359 4.8789-12.305 9.7852l-99.375 197.62c-2.0977 4.1328-2.5898 8.8945-1.3828 13.371 1.207 4.4727 4.0273 8.3398 7.918 10.859 3.8906 2.5156 8.5781 3.5039 13.152 2.7695l76.312-12.188-6.9375 137.62c-0.15625 4.207 1.1094 8.3477 3.5938 11.746 2.4805 3.4023 6.0391 5.8711 10.094 7.0039 1.6172 0.21094 3.2578 0.21094 4.875 0 3.3906-0.007812 6.7188-0.9375 9.625-2.6875 2.9023-1.75 5.2812-4.2578 6.875-7.25l104.44-198.19c2.707-5.1719 2.8477-11.309 0.38672-16.602-2.4609-5.293-7.25-9.1367-12.949-10.398zm-85.875 133.5 3.75-75.938c0-4.9727-1.9766-9.7422-5.4922-13.258-3.5156-3.5156-8.2852-5.4922-13.258-5.4922h-3l-62.812 9.9375 53.062-104.81 4.3125 57.375c0.30469 4.0078 1.8945 7.8125 4.5273 10.852 2.6328 3.0391 6.1719 5.1523 10.098 6.0234l62.625 13.875z" fill="#173f5b"/>
</svg>
