<?xml version="1.0" encoding="UTF-8" standalone="no"?>
<svg
   width="1562.4999pt"
   height="1200pt"
   version="1.1"
   viewBox="0 0 1562.4999 1200"
   id="svg4"
   sodipodi:docname="i_battery_full.svg"
   inkscape:version="1.1.2 (0a00cf5339, 2022-02-04)"
   xmlns:inkscape="http://www.inkscape.org/namespaces/inkscape"
   xmlns:sodipodi="http://sodipodi.sourceforge.net/DTD/sodipodi-0.dtd"
   xmlns="http://www.w3.org/2000/svg"
   xmlns:svg="http://www.w3.org/2000/svg">
  <defs
     id="defs8" />
  <sodipodi:namedview
     id="namedview6"
     pagecolor="#ffffff"
     bordercolor="#999999"
     borderopacity="1"
     inkscape:pageshadow="0"
     inkscape:pageopacity="0"
     inkscape:pagecheckerboard="0"
     inkscape:document-units="pt"
     showgrid="false"
     showguides="true"
     inkscape:guide-bbox="true"
     inkscape:zoom="0.51445126"
     inkscape:cx="1110.8924"
     inkscape:cy="651.17928"
     inkscape:window-width="1920"
     inkscape:window-height="1022"
     inkscape:window-x="0"
     inkscape:window-y="0"
     inkscape:window-maximized="1"
     inkscape:current-layer="svg4">
    <sodipodi:guide
       position="781.27202,599.65148"
       orientation="1,0"
       id="guide144" />
    <sodipodi:guide
       position="781.27202,599.65148"
       orientation="0,-1"
       id="guide148" />
    <sodipodi:guide
       position="364.48879,139.28629"
       orientation="0,-1"
       id="guide348" />
    <sodipodi:guide
       position="534.46726,1061.7459"
       orientation="0,-1"
       id="guide350" />
  </sodipodi:namedview>
  <path
     d="m 1531.2496,307.18724 c 8.2878,0 16.237,-3.29432 22.0965,-9.15366 5.8594,-5.85933 9.1538,-13.80865 9.1538,-22.09662 V 140.00047 c 0,-8.28783 -3.2944,-16.23698 -9.1538,-22.09664 -5.8591,-5.85932 -13.8086,-9.15365 -22.0965,-9.15365 H 1390.6248 V 31.2503 c 0,-8.28784 -3.2944,-16.23698 -9.1536,-22.09665 C 1375.6119,3.29434 1367.6624,0 1359.3745,0 h -249.9997 c -8.2879,0 -16.2369,3.29434 -22.0966,9.15365 -5.8593,5.85933 -9.1537,13.80866 -9.1537,22.09665 v 77.49988 H 484.37528 V 31.2503 c 0,-8.28784 -3.29433,-16.23698 -9.15364,-22.09665 C 469.36234,3.29434 461.41302,0 453.125,0 H 203.12537 c -8.28781,0 -16.23698,3.29434 -22.09662,9.15365 -5.85934,5.85933 -9.15368,13.80866 -9.15368,22.09665 v 77.49988 H 31.2503 c -8.28783,0 -16.23698,3.29433 -22.09665,9.15365 C 3.29434,123.76317 0,131.71248 0,140.00047 v 135.93649 c 0,8.28781 3.29434,16.23697 9.15365,22.09662 5.85933,5.85934 13.80865,9.15366 22.09665,9.15366 h 78.12488 V 1002.1863 H 31.2503 c -8.28783,0 -16.23698,3.2943 -22.09665,9.1536 C 3.29434,1017.1993 0,1025.1486 0,1033.4366 v 135.3132 c 0,8.2877 3.29434,16.2369 9.15365,22.0965 5.85933,5.8593 13.80865,9.1537 22.09665,9.1537 h 1499.998 c 8.2878,0 16.237,-3.2944 22.0965,-9.1537 5.8594,-5.8593 9.1538,-13.8087 9.1538,-22.0965 v -135.3132 c 0,-8.2879 -3.2944,-16.237 -9.1538,-22.0967 -5.8592,-5.8593 -13.8086,-9.1536 -22.0965,-9.1536 h -78.125 V 307.18724 Z m -390.6329,-244.683 h 187.4997 v 46.24995 h -187.4997 z m -906.2487,0 h 187.49968 v 46.24995 H 234.368 Z M 1499.9996,1137.5027 H 62.50158 v -72.8132 H 1499.9996 Z M 1390.6248,1002.1896 H 171.87642 V 307.19056 h 966.86528 c 11.1653,0 21.4784,-5.95699 27.0633,-15.62497 5.5795,-9.66799 5.5795,-21.58163 0,-31.24996 -5.586,-9.66798 -15.8985,-15.62497 -27.0633,-15.62497 H 62.49323 V 171.2541 H 1499.9913 v 73.43656 h -183.7498 c -11.1652,0 -21.4783,5.95699 -27.0633,15.62497 -5.5795,9.668 -5.5795,21.58164 0,31.24996 5.586,9.66798 15.8985,15.62497 27.0633,15.62497 h 74.375 z M 421.87602,475.32367 c 0,8.28782 -3.2942,16.23697 -9.15364,22.09664 -5.8593,5.85932 -13.80862,9.15365 -22.09665,9.15365 h -31.24989 v 31.24994 c 0,11.16534 -5.95699,21.47832 -15.62494,27.0633 -9.66807,5.5795 -21.58168,5.5795 -31.25002,0 -9.66794,-5.58598 -15.62495,-15.89846 -15.62495,-27.0633 v -31.24994 h -31.25002 c -11.16527,0 -21.47825,-5.95699 -27.06326,-15.62498 -5.57949,-9.66798 -5.57949,-21.58163 0,-31.24995 5.586,-9.66799 15.89848,-15.62498 27.06326,-15.62498 h 31.25002 v -31.24996 c 0,-11.16531 5.95701,-21.4783 15.62495,-27.0633 9.66795,-5.57949 21.58169,-5.57949 31.25002,0 9.66795,5.58599 15.62494,15.89849 15.62494,27.0633 v 31.24996 h 31.24989 c 8.17704,0.16275 15.97004,3.52866 21.69334,9.36849 5.72917,5.84632 8.93232,13.69797 8.93232,21.88163 z m 874.99888,-31.24996 c 11.1653,0 21.4782,5.95699 27.0633,15.62498 5.5795,9.66798 5.5795,21.58164 0,31.24995 -5.586,9.668 -15.8984,15.62499 -27.0633,15.62499 H 1171.875 c -11.1653,0 -21.4783,-5.95699 -27.0632,-15.62499 -5.5795,-9.66798 -5.5795,-21.58163 0,-31.24995 5.586,-9.66799 15.8985,-15.62498 27.0632,-15.62498 z M 949.05866,577.82352 827.49554,550.94858 812.49549,366.58214 c -0.7291,-9.12764 -5.42316,-17.4733 -12.8449,-22.83829 -7.41535,-5.35799 -16.81663,-7.20048 -25.71,-5.03249 -8.89311,2.168 -16.39314,8.1315 -20.50829,16.30864 L 587.80749,684.38622 c -3.49612,6.88798 -4.31629,14.82415 -2.30469,22.28496 2.01172,7.45449 6.71216,13.89964 13.19675,18.09831 6.48433,4.19266 14.29674,5.83983 21.91987,4.61583 L 747.80592,709.072 736.2435,938.4384 c -0.26041,7.0116 1.84902,13.9128 5.9897,19.5766 4.13403,5.6705 10.06513,9.7851 16.82328,11.6732 2.69524,0.3515 5.42969,0.3515 8.12491,0 5.65101,-0.013 11.19806,-1.5626 16.04168,-4.4792 4.83723,-2.9167 8.80205,-7.0963 11.45833,-12.0833 L 968.74782,622.80947 c 4.51168,-8.61982 4.74617,-18.84831 0.64457,-27.66997 -4.10149,-8.82165 -12.08336,-15.2278 -21.5817,-17.32997 z M 805.93392,800.32321 812.1839,673.76006 c 0,-8.28781 -3.29434,-16.23698 -9.15364,-22.09664 -5.85932,-5.85932 -13.80863,-9.15365 -22.09665,-9.15365 h -5.00006 l -104.68655,16.56247 88.43658,-174.68308 7.18752,95.62488 c 0.50778,6.67964 3.15755,13.02079 7.54548,18.08662 4.38795,5.06516 10.28645,8.58715 16.82992,10.03899 l 104.37496,23.12498 z"
     fill="#5E798D"
     id="path2"
     style="opacity:1;stroke-width:1.66666" />
</svg>
