<?xml version="1.0" encoding="UTF-8" standalone="no"?>
<svg
   width="1200pt"
   height="1200pt"
   version="1.1"
   viewBox="0 0 1200 1200"
   id="svg4"
   sodipodi:docname="i_generator_full.svg"
   inkscape:version="1.1.2 (0a00cf5339, 2022-02-04)"
   xmlns:inkscape="http://www.inkscape.org/namespaces/inkscape"
   xmlns:sodipodi="http://sodipodi.sourceforge.net/DTD/sodipodi-0.dtd"
   xmlns="http://www.w3.org/2000/svg"
   xmlns:svg="http://www.w3.org/2000/svg">
  <defs
     id="defs8" />
  <sodipodi:namedview
     id="namedview6"
     pagecolor="#ffffff"
     bordercolor="#999999"
     borderopacity="1"
     inkscape:pageshadow="0"
     inkscape:pageopacity="0"
     inkscape:pagecheckerboard="0"
     inkscape:document-units="pt"
     showgrid="false"
     showguides="true"
     inkscape:guide-bbox="true"
     inkscape:zoom="0.528125"
     inkscape:cx="798.10651"
     inkscape:cy="494.20118"
     inkscape:window-width="1920"
     inkscape:window-height="1022"
     inkscape:window-x="0"
     inkscape:window-y="0"
     inkscape:window-maximized="1"
     inkscape:current-layer="svg4">
    <sodipodi:guide
       position="562.84157,1060.5145"
       orientation="0,-1"
       id="guide10" />
    <sodipodi:guide
       position="598.34453,1311.8754"
       orientation="1,0"
       id="guide12" />
    <sodipodi:guide
       position="432.40062,138.49024"
       orientation="0,-1"
       id="guide14" />
    <sodipodi:guide
       position="92.7824,1113.0589"
       orientation="1,0"
       id="guide98" />
    <sodipodi:guide
       position="1105.3268,1023.5914"
       orientation="1,0"
       id="guide100" />
  </sodipodi:namedview>
  <path
     d="m 1162.1056,241.05762 c 0,-11.45743 8.4908,-20.76122 18.9471,-20.76122 10.4564,0 18.9473,9.30379 18.9473,20.76122 v 619.2727 c 0,61.1072 -22.8409,116.7011 -59.5721,156.95478 -34.5228,37.8281 -81.4424,62.203 -133.2724,64.9965 2.4012,8.4838 3.6842,17.5086 3.6842,26.8431 0,25.0772 -9.2927,47.8351 -24.28824,64.2618 -14.99569,16.4314 -35.74812,26.6135 -58.63418,26.6135 -22.88614,0 -43.65537,-10.1823 -58.64686,-26.6135 -14.9956,-16.4314 -24.28812,-39.1708 -24.28812,-64.2618 0,-9.2362 1.26635,-18.1614 3.61015,-26.564 h -497.1954 c 2.34377,8.4028 3.61017,17.3276 3.61017,26.564 0,25.0957 -9.29265,47.8351 -24.28819,64.2618 C 315.72339,1189.8179 294.95832,1200 272.0722,1200 c -22.8861,0 -43.63854,-10.1823 -58.63419,-26.6135 -14.99564,-16.4313 -24.28819,-39.1846 -24.28819,-64.2618 0,-9.3354 1.28293,-18.3598 3.68418,-26.8431 -51.829,-2.7934 -98.736982,-27.1684 -133.261925,-64.9965 C 22.840844,977.03722 0,921.45362 0,860.33032 v -619.2727 c 0,-11.45743 8.490871,-20.76122 18.947198,-20.76122 10.456326,0 18.947189,9.30379 18.947189,20.76122 v 619.2727 c 0,49.6643 18.589295,94.8488 48.474284,127.5892 29.884979,32.74618 71.134079,53.11528 116.441019,53.11528 h 14.33777 c 14.62196,-14.1741 33.86495,-22.7889 54.91737,-22.7889 21.05244,0 40.29542,8.6145 54.91739,22.7889 h 546.0055 c 14.62188,-14.1741 33.86492,-22.7889 54.91733,-22.7889 21.05242,0 40.29546,8.6145 54.91743,22.7889 h 14.35038 c 45.30794,0 86.56134,-20.3691 116.44094,-53.11528 29.8851,-32.7462 48.4743,-77.9445 48.4743,-127.5892 V 241.05762 Z M 833.08761,640.64196 c 3.87747,-10.61036 14.88937,-15.77391 24.5724,-11.52501 9.68331,4.24867 14.39564,16.31487 10.518,26.925 l -36.82064,99.98144 54.97839,-8.82617 c 10.33702,-1.64903 19.96301,6.18154 21.4682,17.50862 0.55104,4.1045 -0.0456,8.12342 -1.52134,11.63782 l -43.37119,122.88336 c -3.74586,10.66 -14.69562,15.9539 -24.42391,11.8535 -9.72858,-4.1045 -14.55993,-16.1026 -10.81789,-26.7624 l 32.10502,-90.94334 -55.54265,8.90738 c -3.19071,0.49109 -6.56246,0.1127 -9.77381,-1.29308 -9.68327,-4.24866 -14.39565,-16.31486 -10.51801,-26.925 L 833.08496,640.63862 Z M 227.0301,184.36795 v -53.89844 h -79.34137 c -7.23678,0 -13.51566,-4.44694 -16.71037,-10.9708 L 82.372491,31.46651 C 76.986019,21.6761 79.864308,8.9071304 88.803388,3.00518 91.862522,0.97773 95.234266,0.0316 98.57719,0.0316 L 255.47047,0 c 25.54292,0 48.75743,11.42583 65.53833,29.81773 16.78407,18.39098 27.21237,43.82924 27.21237,71.83037 v 82.72079 h 648.97295 c 32.22388,0 61.63208,14.46711 82.92228,37.79696 21.2009,23.23064 34.4323,55.36787 34.4323,90.81189 v 44.32059 c 0,1.06331 -0.09,2.09055 -0.2219,3.10427 l 3.2072,3.33402 c 15.3083,16.77391 24.8271,39.95498 24.8271,65.45553 v 73.90765 c 0,25.50054 -9.5023,48.6816 -24.8102,65.45552 l -3.2072,3.33402 c 0.1357,1.01374 0.2096,2.04544 0.2096,3.10426 v 285.36302 c 0,35.391 -13.203,67.564 -34.4491,90.8442 -21.2462,23.2803 -50.6038,37.7474 -82.90661,37.7474 H 202.82598 c -32.24074,0 -61.56995,-14.4671 -82.83186,-37.7474 -21.319799,-23.3794 -34.522832,-55.5166 -34.522832,-90.8442 V 574.99365 c 0,-1.06329 0.07401,-2.09053 0.209702,-3.10425 l -3.207234,-3.33402 C 67.165481,551.78145 57.663458,528.6004 57.663458,503.09985 V 429.1922 c 0,-25.50054 9.51887,-48.68161 24.827145,-65.45552 l 3.207225,-3.33402 c -0.135689,-1.01374 -0.222041,-2.04544 -0.222041,-3.10427 V 312.9778 c 0,-35.32753 13.203042,-67.4832 34.449163,-90.77614 21.24611,-23.36099 50.60373,-37.82811 82.90659,-37.82811 h 24.21452 z m 83.2929,0 v -82.72078 c 0,-16.54439 -6.17594,-31.58359 -16.11458,-42.47286 C 284.2743,48.28909 270.54548,41.5169 255.46247,41.5169 H 132.15834 l 26.18398,47.42439 h 87.63497 c 10.45632,0 18.9472,9.3038 18.9472,20.76123 v 74.65967 H 310.323 Z m 476.164,-18.8016 c -10.45633,0 -18.94719,-9.30379 -18.94719,-20.76121 0,-11.45743 8.49086,-20.76123 18.94719,-20.76123 h 155.93544 c 10.4563,0 18.94717,9.3038 18.94717,20.76123 0,11.45742 -8.49087,20.76121 -18.94717,20.76121 z M 196.30301,898.65672 c -10.45632,0 -18.9472,-9.3038 -18.9472,-20.7613 0,-11.4574 8.49088,-20.76118 18.9472,-20.76118 h 363.16505 c 10.45633,0 18.9472,9.30378 18.9472,20.76118 0,11.4575 -8.49087,20.7613 -18.9472,20.7613 z m 0,-143.79458 c -10.45632,0 -18.9472,-9.3038 -18.9472,-20.76123 0,-11.45742 8.49088,-20.76121 18.9472,-20.76121 h 363.16505 c 10.45633,0 18.9472,9.30379 18.9472,20.76121 0,11.45743 -8.49087,20.76123 -18.9472,20.76123 z m 0,-71.89842 c -10.45632,0 -18.9472,-9.3038 -18.9472,-20.76123 0,-11.45743 8.49088,-20.76122 18.9472,-20.76122 h 363.16505 c 10.45633,0 18.9472,9.30379 18.9472,20.76122 0,11.45743 -8.49087,20.76123 -18.9472,20.76123 z m 0,143.79454 c -10.45632,0 -18.9472,-9.3038 -18.9472,-20.76123 0,-11.45743 8.49088,-20.76122 18.9472,-20.76122 h 363.16505 c 10.45633,0 18.9472,9.30379 18.9472,20.76122 0,11.45743 -8.49087,20.76123 -18.9472,20.76123 z M 142.22036,336.52811 h 915.57044 c 6.4761,0 12.7873,0.80197 18.8567,2.33829 v -25.89271 c 0,-23.95153 -8.9679,-45.70813 -23.3346,-61.44976 -14.4409,-15.82351 -34.3586,-25.63204 -56.12571,-25.63204 h -794.3716 c -21.8419,0 -41.71435,9.80841 -56.11,25.58245 -14.41145,15.74161 -23.34716,37.54898 -23.34716,61.49935 v 25.89271 c 6.0731,-1.53634 12.38515,-2.33829 18.85667,-2.33829 z m 934.43344,256.88553 c -6.0731,1.53634 -12.3852,2.33829 -18.8567,2.33829 H 142.22668 c -6.47605,0 -12.78725,-0.80196 -18.85667,-2.33829 v 266.94318 c 0,23.9516 8.93497,45.7393 23.31768,61.5178 14.39565,15.7601 34.2839,25.5502 56.14264,25.5502 h 794.37155 c 21.84192,0 41.71432,-9.8084 56.11002,-25.5825 14.3957,-15.7739 23.3471,-37.5489 23.3471,-61.482 z M 1057.7971,378.05055 H 142.22668 c -12.81673,0 -24.48187,5.77151 -32.9397,15.03921 -8.45803,9.26781 -13.725136,22.05417 -13.725136,36.09338 v 73.90765 c 0,14.04381 5.250796,26.8258 13.708286,36.09339 8.45803,9.26781 20.13982,15.0392 32.95655,15.0392 h 915.57042 c 12.8167,0 24.4978,-5.77151 32.9566,-15.0392 8.4588,-9.26771 13.7083,-22.05419 13.7083,-36.09339 v -73.90765 c 0,-14.04381 -5.2673,-26.82581 -13.7253,-36.09338 -8.4579,-9.26782 -20.1271,-15.03921 -32.9396,-15.03921 z M 959.7633,1074.232 c -8.12911,-8.9074 -19.41142,-14.4486 -31.83762,-14.4486 -12.4262,0 -23.72083,5.5417 -31.85441,14.4486 -8.12911,8.9074 -13.18624,21.2837 -13.18624,34.9042 0,13.6332 5.05758,25.9919 13.18624,34.9043 8.1291,8.9074 19.42401,14.4486 31.85441,14.4486 12.4262,0 23.70505,-5.5417 31.83762,-14.4486 8.12911,-8.9074 13.18614,-21.2837 13.18614,-34.9043 0,-13.6159 -5.05749,-25.9919 -13.18614,-34.9042 z m -655.83602,0 c -8.12909,-8.9074 -19.42403,-14.4486 -31.85444,-14.4486 -12.4262,0 -23.70504,5.5417 -31.83761,14.4486 -8.12907,8.9074 -13.18619,21.2837 -13.18619,34.9042 0,13.6159 5.05754,25.9919 13.18619,34.9043 8.12909,8.9074 19.41141,14.4486 31.83761,14.4486 12.42619,0 23.72084,-5.5417 31.85444,-14.4486 8.12908,-8.9074 13.18619,-21.2699 13.18619,-34.9043 0,-13.6159 -5.05753,-25.9919 -13.18619,-34.9042 z"
     fill="#5E798D"
     id="path2"
     style="stroke-width:1.10186" />
</svg>
