<?xml version="1.0" encoding="UTF-8"?>
<svg width="1200pt" height="1200pt" version="1.1" viewBox="0 0 1200 1200" xmlns="http://www.w3.org/2000/svg">
 <path d="m1134 288.8c0-9.9336 8.0664-18 18-18 9.9336 0 18 8.0664 18 18v536.91c0 52.98-21.699 101.18-56.594 136.08-32.797 32.797-77.371 53.93-126.61 56.352 2.2812 7.3555 3.5 15.18 3.5 23.273 0 21.742-8.8281 41.473-23.074 55.715-14.246 14.246-33.961 23.074-55.703 23.074-21.742 0-41.473-8.8281-55.715-23.074-14.246-14.246-23.074-33.961-23.074-55.715 0-8.0078 1.2031-15.746 3.4297-23.031h-472.34c2.2266 7.2852 3.4297 15.023 3.4297 23.031 0 21.758-8.8281 41.473-23.074 55.715-14.246 14.246-33.973 23.074-55.715 23.074s-41.457-8.8281-55.703-23.074-23.074-33.973-23.074-55.715c0-8.0938 1.2188-15.918 3.5-23.273-49.238-2.4219-93.801-23.555-126.6-56.352-34.895-34.895-56.594-83.086-56.594-136.08v-536.91c0-9.9336 8.0664-18 18-18s18 8.0664 18 18v536.91c0 43.059 17.66 82.234 46.051 110.62 28.391 28.391 67.578 46.051 110.62 46.051h13.621c13.891-12.289 32.172-19.758 52.172-19.758s38.281 7.4688 52.172 19.758h518.71c13.891-12.289 32.172-19.758 52.172-19.758s38.281 7.4688 52.172 19.758h13.633c43.043 0 82.234-17.66 110.62-46.051 28.391-28.391 46.051-67.578 46.051-110.62v-536.91zm-312.57 346.44c3.6836-9.1992 14.145-13.676 23.344-9.9922 9.1992 3.6836 13.676 14.145 9.9922 23.344l-34.98 86.684 52.23-7.6523c9.8203-1.4297 18.965 5.3594 20.395 15.18 0.52344 3.5586-0.042969 7.043-1.4453 10.09l-41.203 106.54c-3.5586 9.2422-13.961 13.832-23.203 10.277-9.2422-3.5586-13.832-13.961-10.277-23.203l30.5-78.848-52.766 7.7227c-3.0312 0.42578-6.2344 0.097656-9.2852-1.1211-9.1992-3.6836-13.676-14.145-9.9922-23.344l46.688-115.68zm-575.76-395.59v-46.73h-75.375c-6.875 0-12.84-3.8555-15.875-9.5117l-46.176-76.324c-5.1172-8.4883-2.3828-19.559 6.1094-24.676 2.9062-1.7578 6.1094-2.5781 9.2852-2.5781l149.05-0.027343c24.266 0 46.32 9.9062 62.262 25.852 15.945 15.945 25.852 38 25.852 62.277v71.719h616.53c30.613 0 58.551 12.543 78.777 32.77 20.141 20.141 32.711 48.004 32.711 78.734v38.426c0 0.92188-0.085938 1.8125-0.21094 2.6914l3.0469 2.8906c14.543 14.543 23.586 34.641 23.586 56.75v64.078c0 22.109-9.0273 42.207-23.57 56.75l-3.0469 2.8906c0.12891 0.87891 0.19922 1.7734 0.19922 2.6914v247.41c0 30.684-12.543 58.578-32.727 78.762-20.184 20.184-48.074 32.727-78.762 32.727h-754.66c-30.629 0-58.492-12.543-78.691-32.727-20.254-20.27-32.797-48.133-32.797-78.762v-247.41c0-0.92188 0.070313-1.8125 0.19922-2.6914l-3.0469-2.8906c-14.543-14.543-23.57-34.641-23.57-56.75v-64.078c0-22.109 9.043-42.207 23.586-56.75l3.0469-2.8906c-0.12891-0.87891-0.21094-1.7734-0.21094-2.6914v-38.426c0-30.629 12.543-58.508 32.727-78.703 20.184-20.254 48.074-32.797 78.762-32.797h23.004zm79.129 0v-71.719c0-14.344-5.8672-27.383-15.309-36.824-9.4375-9.4375-22.48-15.309-36.809-15.309h-117.14l24.875 41.117h83.254c9.9336 0 18 8.0664 18 18v64.73h43.129zm452.36-16.301c-9.9336 0-18-8.0664-18-18s8.0664-18 18-18h148.14c9.9336 0 18 8.0664 18 18s-8.0664 18-18 18zm-560.68 635.59c-9.9336 0-18-8.0664-18-18 0-9.9336 8.0664-18 18-18h345.01c9.9336 0 18 8.0664 18 18 0 9.9336-8.0664 18-18 18zm0-124.67c-9.9336 0-18-8.0664-18-18 0-9.9336 8.0664-18 18-18h345.01c9.9336 0 18 8.0664 18 18 0 9.9336-8.0664 18-18 18zm0-62.336c-9.9336 0-18-8.0664-18-18 0-9.9336 8.0664-18 18-18h345.01c9.9336 0 18 8.0664 18 18 0 9.9336-8.0664 18-18 18zm0 124.67c-9.9336 0-18-8.0664-18-18s8.0664-18 18-18h345.01c9.9336 0 18 8.0664 18 18s-8.0664 18-18 18zm-51.379-425.03h869.8c6.1523 0 12.148 0.69531 17.914 2.0273v-22.449c0-20.766-8.5195-39.629-22.168-53.277-13.719-13.719-32.641-22.223-53.32-22.223h-754.66c-20.75 0-39.629 8.5039-53.305 22.18-13.691 13.648-22.18 32.555-22.18 53.32v22.449c5.7695-1.332 11.766-2.0273 17.914-2.0273zm887.72 222.72c-5.7695 1.332-11.766 2.0273-17.914 2.0273h-869.8c-6.1523 0-12.148-0.69531-17.914-2.0273v231.44c0 20.766 8.4883 39.656 22.152 53.336 13.676 13.664 32.57 22.152 53.336 22.152h754.66c20.75 0 39.629-8.5039 53.305-22.18 13.676-13.676 22.18-32.555 22.18-53.305zm-17.914-186.72h-869.8c-12.176 0-23.258 5.0039-31.293 13.039-8.0352 8.0352-13.039 19.121-13.039 31.293v64.078c0 12.176 4.9883 23.258 13.023 31.293 8.0352 8.0352 19.133 13.039 31.309 13.039h869.8c12.176 0 23.273-5.0039 31.309-13.039s13.023-19.121 13.023-31.293v-64.078c0-12.176-5.0039-23.258-13.039-31.293-8.0352-8.0352-19.121-13.039-31.293-13.039zm-93.133 603.59c-7.7227-7.7227-18.441-12.527-30.246-12.527-11.805 0-22.535 4.8047-30.262 12.527-7.7227 7.7227-12.527 18.453-12.527 30.262 0 11.82 4.8047 22.535 12.527 30.262 7.7227 7.7227 18.453 12.527 30.262 12.527 11.805 0 22.52-4.8047 30.246-12.527 7.7227-7.7227 12.527-18.453 12.527-30.262 0-11.805-4.8047-22.535-12.527-30.262zm-623.05 0c-7.7227-7.7227-18.453-12.527-30.262-12.527-11.805 0-22.52 4.8047-30.246 12.527-7.7227 7.7227-12.527 18.453-12.527 30.262 0 11.805 4.8047 22.535 12.527 30.262 7.7227 7.7227 18.441 12.527 30.246 12.527 11.805 0 22.535-4.8047 30.262-12.527 7.7227-7.7227 12.527-18.441 12.527-30.262 0-11.805-4.8047-22.535-12.527-30.262z" fill="#173f5b"/>
</svg>
