<?xml version="1.0" encoding="UTF-8"?>
<svg width="1200pt" height="1200pt" version="1.1" viewBox="0 0 1200 1200" xmlns="http://www.w3.org/2000/svg">
 <path d="m684.71 1050h-169.45c-53.484 0-97.172-43.453-97.172-97.172v-508.31c0-53.484 43.453-97.172 97.172-97.172h169.45c53.484 0 97.172 43.453 97.172 97.172v508.31c0 53.484-43.453 97.172-97.172 97.172zm-169.45-683.86c-43.219 0-78.375 35.156-78.375 78.375v508.31c0 43.219 35.156 78.375 78.375 78.375h169.45c43.219 0 78.375-35.156 78.375-78.375v-508.31c0-43.219-35.156-78.375-78.375-78.375z" fill="#173f5b" fill-rule="evenodd"/>
 <path d="m770.26 773.58h-63.422c-5.1094 0-9.2812-4.1719-9.2812-9.2812s4.1719-9.2812 9.2812-9.2812h63.422c5.1094 0 9.2812 4.1719 9.2812 9.2812s-4.1719 9.2812-9.2812 9.2812zm-275.68 0h-66.375c-5.1094 0-9.2812-4.1719-9.2812-9.2812s4.1719-9.2812 9.2812-9.2812h66.375c5.1094 0 9.2812 4.1719 9.2812 9.2812s-3.8906 9.2812-9.2812 9.2812zm275.68-131.11h-63.422c-5.1094 0-9.2812-4.1719-9.2812-9.2812s4.1719-9.2812 9.2812-9.2812h63.422c5.1094 0 9.2812 4.1719 9.2812 9.2812s-4.1719 9.2812-9.2812 9.2812zm-275.68 0h-66.375c-5.1094 0-9.2812-4.1719-9.2812-9.2812s4.1719-9.2812 9.2812-9.2812h66.375c5.1094 0 9.2812 4.1719 9.2812 9.2812s-3.8906 9.2812-9.2812 9.2812z" fill="#173f5b" fill-rule="evenodd"/>
 <path d="m663 365.53c-5.1094 0-9.2812-4.1719-9.2812-9.2812v-47.766c0-9.5156-7.8281-17.109-17.109-17.109h-72.75c-9.2812 0-17.109 7.8281-17.109 17.109v47.766c0 5.1094-4.1719 9.2812-9.2812 9.2812s-9.2812-4.1719-9.2812-9.2812v-47.766c0-19.781 16.125-35.906 35.625-35.906h72.75c19.781 0 35.906 16.125 35.906 35.906v47.766c-0.23438 5.1094-4.4062 9.2812-9.5156 9.2812z" fill="#173f5b" fill-rule="evenodd"/>
 <path d="m626.86 288.84c-5.1094 0-9.2812-3.8438-9.2812-8.5781v-39.703c0-4.7344 4.1719-8.5781 9.2812-8.5781s9.2812 3.8438 9.2812 8.5781v39.703c0.23438 4.7344-3.8906 8.5781-9.2812 8.5781zm-53.719 0c-5.1094 0-9.2812-3.8438-9.2812-8.5781v-39.703c0-4.7344 4.1719-8.5781 9.2812-8.5781s9.2812 3.8438 9.2812 8.5781v39.703c0 4.7344-4.1719 8.5781-9.2812 8.5781z" fill="#173f5b" fill-rule="evenodd"/>
 <path d="m666.42 248.44h-132.56c-27.094 0-49.312-21.984-49.312-49.078s22.219-49.312 49.312-49.312h132.56c27.094 0 49.312 22.219 49.312 49.312-0.23438 26.859-22.219 49.078-49.312 49.078zm-132.56-79.828c-16.828 0-30.516 13.688-30.516 30.516s13.688 30.281 30.516 30.281h132.56c16.828 0 30.516-13.688 30.516-30.281 0-16.828-13.688-30.516-30.516-30.516z" fill="#173f5b" fill-rule="evenodd"/>
 <path d="m555.32 245.11c-5.1094 0-9.2812-3.8906-9.2812-8.6719v-74.484c0-4.7812 4.1719-8.6719 9.2812-8.6719s9.2812 3.8906 9.2812 8.6719v74.25c0 4.7812-4.1719 8.9062-9.2812 8.9062z" fill="#173f5b" fill-rule="evenodd"/>
 <path d="m645.19 245.11c-5.1094 0-9.2812-3.8906-9.2812-8.6719v-74.484c0-4.7812 4.1719-8.6719 9.2812-8.6719s9.2812 3.8906 9.2812 8.6719v74.25c0 4.7812-4.1719 8.9062-9.2812 8.9062z" fill="#173f5b" fill-rule="evenodd"/>
 <path d="m600 830.95c-72.984 0-132.32-59.344-132.32-132.32 0-72.98 59.344-132.56 132.32-132.56s132.56 59.578 132.56 132.56c0 72.988-59.344 132.32-132.56 132.32zm0-246.1c-62.766 0-113.77 51.047-113.77 113.77 0 62.766 51.047 113.77 113.77 113.77 62.766 0 113.77-51.047 113.77-113.77 0.23438-62.766-51.047-113.77-113.77-113.77z" fill="#173f5b" fill-rule="evenodd"/>
 <path d="m677.9 475.97h-155.53c-5.1094 0-9.2812-4.1719-9.2812-9.2812s4.1719-9.2812 9.2812-9.2812h155.53c5.1094 0 9.2812 4.1719 9.2812 9.2812s-4.1719 9.2812-9.2812 9.2812z" fill="#173f5b" fill-rule="evenodd"/>
 <path d="m677.9 940.13h-155.53c-5.1094 0-9.2812-4.1719-9.2812-9.2812s4.1719-9.2812 9.2812-9.2812h155.53c5.1094 0 9.2812 4.1719 9.2812 9.2812s-4.1719 9.2812-9.2812 9.2812z" fill="#173f5b" fill-rule="evenodd"/>
 <path d="m677.02 741.14h-44.672c-3.6562 0-7.0781-2.2031-8.5312-5.625s-0.98438-7.3125 1.6875-10.031c3.1875-3.6562 7.8281-7.8281 12.469-12.188 7.5469-6.8438 22.969-21.234 23.438-26.625 0-6.3281-5.3906-11.719-11.719-11.719s-11.719 5.3906-11.719 11.719c0 5.1094-4.1719 9.2812-9.2812 9.2812s-9.2812-4.1719-9.2812-9.2812c0-16.828 13.688-30.516 30.516-30.516s30.516 13.688 30.516 30.516c0 10.734-9.75 21.984-24.422 35.625h21.469c5.1094 0 9.2812 4.1719 9.2812 9.2812s-4.6406 9.5156-9.75 9.5156z" fill="#173f5b" fill-rule="evenodd"/>
 <path d="m529.45 741.14c-5.1094 0-9.2812-4.1719-9.2812-9.2812v-79.359c0-5.1094 4.1719-9.2812 9.2812-9.2812s9.2812 4.1719 9.2812 9.2812v79.359c0 4.875-4.1719 9.2812-9.2812 9.2812z" fill="#173f5b" fill-rule="evenodd"/>
 <path d="m590.58 741.14c-5.1094 0-9.2812-4.1719-9.2812-9.2812v-79.359c0-5.1094 4.1719-9.2812 9.2812-9.2812s9.2812 4.1719 9.2812 9.2812v79.359c0 4.875-4.1719 9.2812-9.2812 9.2812z" fill="#173f5b" fill-rule="evenodd"/>
 <path d="m588.79 701.34h-57.609c-5.1094 0-9.2812-4.1719-9.2812-9.2812s4.1719-9.2812 9.2812-9.2812h57.609c5.1094 0 9.2812 4.1719 9.2812 9.2812s-4.1719 9.2812-9.2812 9.2812z" fill="#173f5b" fill-rule="evenodd"/>
</svg>
