<svg width="48" height="48" viewBox="0 0 48 48" fill="none" xmlns="http://www.w3.org/2000/svg">
<g clip-path="url(#clip0_259_185)">
<path d="M44 7.6C44 5.6152 42.3848 4 40.4 4C39.596 4 38.8608 4.2744 38.2608 4.7208C34.1184 1.6408 29.208 0 24 0C10.7664 0 0 10.7664 0 24C0 37.2336 10.7664 48 24 48C37.2336 48 48 37.2336 48 24C48 18.792 46.3592 13.8816 43.2792 9.7392C43.7264 9.1392 44 8.404 44 7.6ZM40.4 5.6C41.5032 5.6 42.4 6.4968 42.4 7.6C42.4 8.7032 41.5032 9.6 40.4 9.6C39.2968 9.6 38.4 8.7032 38.4 7.6C38.4 6.4968 39.2968 5.6 40.4 5.6ZM24 46.4C11.6488 46.4 1.6 36.3512 1.6 24C1.6 11.6488 11.6488 1.6 24 1.6C28.8248 1.6 33.3752 3.1096 37.2232 5.9432C36.9624 6.4416 36.8 6.9992 36.8 7.6C36.8 9.5848 38.4152 11.2 40.4 11.2C41.0008 11.2 41.5584 11.0384 42.0568 10.7768C44.8904 14.6248 46.4 19.1752 46.4 24C46.4 36.3512 36.3512 46.4 24 46.4Z" fill="#5E798D"/>
<path d="M24 7.19995C14.7368 7.19995 7.20001 14.7368 7.20001 24C7.20001 33.2631 14.7368 40.7999 24 40.7999C33.2632 40.7999 40.8 33.2631 40.8 24C40.8 14.7368 33.2632 7.19995 24 7.19995ZM24 39.1999C15.6184 39.1999 8.80001 32.3815 8.80001 24C8.80001 15.6184 15.6184 8.79995 24 8.79995C32.3816 8.79995 39.2 15.6184 39.2 24C39.2 32.3815 32.3816 39.1999 24 39.1999Z" fill="#5E798D"/>
<path d="M23.2 17.6C22.7576 17.6 22.4 17.9576 22.4 18.4V23.2H17.6V18.4C17.6 17.9576 17.2424 17.6 16.8 17.6C16.3576 17.6 16 17.9576 16 18.4V29.6C16 30.0424 16.3576 30.4 16.8 30.4C17.2424 30.4 17.6 30.0424 17.6 29.6V24.8H22.4V29.6C22.4 30.0424 22.7576 30.4 23.2 30.4C23.6424 30.4 24 30.0424 24 29.6V18.4C24 17.9576 23.6424 17.6 23.2 17.6Z" fill="#5E798D"/>
<path d="M29.5232 27.6376C30.684 26.5808 32 25.3824 32 23.6C32 22.056 30.744 20.8 29.2 20.8C27.656 20.8 26.4 22.056 26.4 23.6C26.4 24.0424 26.7576 24.4 27.2 24.4C27.6424 24.4 28 24.0424 28 23.6C28 22.9384 28.5384 22.4 29.2 22.4C29.8616 22.4 30.4 22.9384 30.4 23.6C30.4 24.676 29.4072 25.58 28.4464 26.4544C27.4408 27.3712 26.4 28.3176 26.4 29.6C26.4 30.0424 26.7576 30.4 27.2 30.4H31.2C31.6424 30.4 32 30.0424 32 29.6C32 29.1576 31.6424 28.8 31.2 28.8H28.3616C28.6504 28.432 29.08 28.0416 29.5232 27.6376Z" fill="#5E798D"/>
</g>
<defs>
<clipPath id="clip0_259_185">
<rect width="48" height="48" fill="white"/>
</clipPath>
</defs>
</svg>
