<?xml version="1.0" encoding="UTF-8" standalone="no"?>
<svg
   width="485.0856pt"
   height="1200pt"
   version="1.1"
   viewBox="0 0 485.0856 1200"
   id="svg30"
   sodipodi:docname="i_h2reservoir_full.svg"
   inkscape:version="1.1.2 (0a00cf5339, 2022-02-04)"
   xmlns:inkscape="http://www.inkscape.org/namespaces/inkscape"
   xmlns:sodipodi="http://sodipodi.sourceforge.net/DTD/sodipodi-0.dtd"
   xmlns="http://www.w3.org/2000/svg"
   xmlns:svg="http://www.w3.org/2000/svg">
  <defs
     id="defs34" />
  <sodipodi:namedview
     id="namedview32"
     pagecolor="#ffffff"
     bordercolor="#999999"
     borderopacity="1"
     inkscape:pageshadow="0"
     inkscape:pageopacity="0"
     inkscape:pagecheckerboard="0"
     inkscape:document-units="pt"
     showgrid="false"
     showguides="true"
     inkscape:guide-bbox="true"
     inkscape:zoom="0.528125"
     inkscape:cx="322.84024"
     inkscape:cy="723.31361"
     inkscape:window-width="1920"
     inkscape:window-height="1022"
     inkscape:window-x="0"
     inkscape:window-y="0"
     inkscape:window-maximized="1"
     inkscape:current-layer="svg30">
    <sodipodi:guide
       position="242.5628,1252.6124"
       orientation="1,0"
       id="guide52" />
    <sodipodi:guide
       position="-830.65385,600.73445"
       orientation="0,-1"
       id="guide54" />
  </sodipodi:namedview>
  <g
     id="g50"
     transform="matrix(1.3334074,0,0,1.3334074,-557.48163,-200.07778)">
    <path
       d="M 684.71,1050 H 515.26 c -53.484,0 -97.172,-43.453 -97.172,-97.172 v -508.31 c 0,-53.484 43.453,-97.172 97.172,-97.172 h 169.45 c 53.484,0 97.172,43.453 97.172,97.172 v 508.31 c 0,53.484 -43.453,97.172 -97.172,97.172 z M 515.26,366.14 c -43.219,0 -78.375,35.156 -78.375,78.375 v 508.31 c 0,43.219 35.156,78.375 78.375,78.375 h 169.45 c 43.219,0 78.375,-35.156 78.375,-78.375 v -508.31 c 0,-43.219 -35.156,-78.375 -78.375,-78.375 z"
       fill="#173f5b"
       fill-rule="evenodd"
       id="path2" />
    <path
       d="m 770.26,773.58 h -63.422 c -5.1094,0 -9.2812,-4.1719 -9.2812,-9.2812 0,-5.1093 4.1719,-9.2812 9.2812,-9.2812 h 63.422 c 5.1094,0 9.2812,4.1719 9.2812,9.2812 0,5.1093 -4.1719,9.2812 -9.2812,9.2812 z m -275.68,0 h -66.375 c -5.1094,0 -9.2812,-4.1719 -9.2812,-9.2812 0,-5.1093 4.1719,-9.2812 9.2812,-9.2812 h 66.375 c 5.1094,0 9.2812,4.1719 9.2812,9.2812 0,5.1093 -3.8906,9.2812 -9.2812,9.2812 z M 770.26,642.47 h -63.422 c -5.1094,0 -9.2812,-4.1719 -9.2812,-9.2812 0,-5.1093 4.1719,-9.2812 9.2812,-9.2812 h 63.422 c 5.1094,0 9.2812,4.1719 9.2812,9.2812 0,5.1093 -4.1719,9.2812 -9.2812,9.2812 z m -275.68,0 h -66.375 c -5.1094,0 -9.2812,-4.1719 -9.2812,-9.2812 0,-5.1093 4.1719,-9.2812 9.2812,-9.2812 h 66.375 c 5.1094,0 9.2812,4.1719 9.2812,9.2812 0,5.1093 -3.8906,9.2812 -9.2812,9.2812 z"
       fill="#173f5b"
       fill-rule="evenodd"
       id="path4" />
    <path
       d="m 663,365.53 c -5.1094,0 -9.2812,-4.1719 -9.2812,-9.2812 v -47.766 c 0,-9.5156 -7.8281,-17.109 -17.109,-17.109 h -72.75 c -9.2812,0 -17.109,7.8281 -17.109,17.109 v 47.766 c 0,5.1094 -4.1719,9.2812 -9.2812,9.2812 -5.1093,0 -9.2812,-4.1719 -9.2812,-9.2812 v -47.766 c 0,-19.781 16.125,-35.906 35.625,-35.906 h 72.75 c 19.781,0 35.906,16.125 35.906,35.906 v 47.766 c -0.23438,5.1094 -4.4062,9.2812 -9.5156,9.2812 z"
       fill="#173f5b"
       fill-rule="evenodd"
       id="path6" />
    <path
       d="m 626.86,288.84 c -5.1094,0 -9.2812,-3.8438 -9.2812,-8.5781 v -39.703 c 0,-4.7344 4.1719,-8.5781 9.2812,-8.5781 5.1093,0 9.2812,3.8438 9.2812,8.5781 v 39.703 c 0.23438,4.7344 -3.8906,8.5781 -9.2812,8.5781 z m -53.719,0 c -5.1094,0 -9.2812,-3.8438 -9.2812,-8.5781 v -39.703 c 0,-4.7344 4.1719,-8.5781 9.2812,-8.5781 5.1093,0 9.2812,3.8438 9.2812,8.5781 v 39.703 c 0,4.7344 -4.1719,8.5781 -9.2812,8.5781 z"
       fill="#173f5b"
       fill-rule="evenodd"
       id="path8" />
    <path
       d="M 666.42,248.44 H 533.86 c -27.094,0 -49.312,-21.984 -49.312,-49.078 0,-27.094 22.219,-49.312 49.312,-49.312 h 132.56 c 27.094,0 49.312,22.219 49.312,49.312 -0.23438,26.859 -22.219,49.078 -49.312,49.078 z M 533.86,168.612 c -16.828,0 -30.516,13.688 -30.516,30.516 0,16.828 13.688,30.281 30.516,30.281 h 132.56 c 16.828,0 30.516,-13.688 30.516,-30.281 0,-16.828 -13.688,-30.516 -30.516,-30.516 z"
       fill="#173f5b"
       fill-rule="evenodd"
       id="path10" />
    <path
       d="m 555.32,245.11 c -5.1094,0 -9.2812,-3.8906 -9.2812,-8.6719 v -74.484 c 0,-4.7812 4.1719,-8.6719 9.2812,-8.6719 5.1093,0 9.2812,3.8906 9.2812,8.6719 v 74.25 c 0,4.7812 -4.1719,8.9062 -9.2812,8.9062 z"
       fill="#173f5b"
       fill-rule="evenodd"
       id="path12" />
    <path
       d="m 645.19,245.11 c -5.1094,0 -9.2812,-3.8906 -9.2812,-8.6719 v -74.484 c 0,-4.7812 4.1719,-8.6719 9.2812,-8.6719 5.1093,0 9.2812,3.8906 9.2812,8.6719 v 74.25 c 0,4.7812 -4.1719,8.9062 -9.2812,8.9062 z"
       fill="#173f5b"
       fill-rule="evenodd"
       id="path14" />
    <path
       d="m 600,830.95 c -72.984,0 -132.32,-59.344 -132.32,-132.32 0,-72.98 59.344,-132.56 132.32,-132.56 72.976,0 132.56,59.578 132.56,132.56 0,72.988 -59.344,132.32 -132.56,132.32 z m 0,-246.1 c -62.766,0 -113.77,51.047 -113.77,113.77 0,62.766 51.047,113.77 113.77,113.77 62.766,0 113.77,-51.047 113.77,-113.77 C 714.00438,635.854 662.723,584.85 600,584.85 Z"
       fill="#173f5b"
       fill-rule="evenodd"
       id="path16" />
    <path
       d="M 677.9,475.97 H 522.37 c -5.1094,0 -9.2812,-4.1719 -9.2812,-9.2812 0,-5.1093 4.1719,-9.2812 9.2812,-9.2812 H 677.9 c 5.1094,0 9.2812,4.1719 9.2812,9.2812 0,5.1093 -4.1719,9.2812 -9.2812,9.2812 z"
       fill="#173f5b"
       fill-rule="evenodd"
       id="path18" />
    <path
       d="M 677.9,940.13 H 522.37 c -5.1094,0 -9.2812,-4.1719 -9.2812,-9.2812 0,-5.1093 4.1719,-9.2812 9.2812,-9.2812 H 677.9 c 5.1094,0 9.2812,4.1719 9.2812,9.2812 0,5.1093 -4.1719,9.2812 -9.2812,9.2812 z"
       fill="#173f5b"
       fill-rule="evenodd"
       id="path20" />
    <path
       d="m 677.02,741.14 h -44.672 c -3.6562,0 -7.0781,-2.2031 -8.5312,-5.625 -1.4531,-3.4219 -0.98438,-7.3125 1.6875,-10.031 3.1875,-3.6562 7.8281,-7.8281 12.469,-12.188 7.5469,-6.8438 22.969,-21.234 23.438,-26.625 0,-6.3281 -5.3906,-11.719 -11.719,-11.719 -6.3284,0 -11.719,5.3906 -11.719,11.719 0,5.1094 -4.1719,9.2812 -9.2812,9.2812 -5.1093,0 -9.2812,-4.1719 -9.2812,-9.2812 0,-16.828 13.688,-30.516 30.516,-30.516 16.828,0 30.516,13.688 30.516,30.516 0,10.734 -9.75,21.984 -24.422,35.625 h 21.469 c 5.1094,0 9.2812,4.1719 9.2812,9.2812 0,5.1093 -4.6406,9.5156 -9.75,9.5156 z"
       fill="#173f5b"
       fill-rule="evenodd"
       id="path22" />
    <path
       d="m 529.45,741.14 c -5.1094,0 -9.2812,-4.1719 -9.2812,-9.2812 v -79.359 c 0,-5.1094 4.1719,-9.2812 9.2812,-9.2812 5.1093,0 9.2812,4.1719 9.2812,9.2812 v 79.359 c 0,4.875 -4.1719,9.2812 -9.2812,9.2812 z"
       fill="#173f5b"
       fill-rule="evenodd"
       id="path24" />
    <path
       d="m 590.58,741.14 c -5.1094,0 -9.2812,-4.1719 -9.2812,-9.2812 v -79.359 c 0,-5.1094 4.1719,-9.2812 9.2812,-9.2812 5.1093,0 9.2812,4.1719 9.2812,9.2812 v 79.359 c 0,4.875 -4.1719,9.2812 -9.2812,9.2812 z"
       fill="#173f5b"
       fill-rule="evenodd"
       id="path26" />
    <path
       d="m 588.79,701.34 h -57.609 c -5.1094,0 -9.2812,-4.1719 -9.2812,-9.2812 0,-5.1093 4.1719,-9.2812 9.2812,-9.2812 h 57.609 c 5.1094,0 9.2812,4.1719 9.2812,9.2812 0,5.1093 -4.1719,9.2812 -9.2812,9.2812 z"
       fill="#173f5b"
       fill-rule="evenodd"
       id="path28" />
  </g>
</svg>
