<svg width="48" height="48" viewBox="0 0 48 48" fill="none" xmlns="http://www.w3.org/2000/svg">
<path d="M27.608 27.2244L26.5053 27.8414C27.2637 29.2616 27.0766 31.0133 26.0313 32.2295C24.9885 33.4457 23.312 33.8664 21.8375 33.2825C21.6305 33.2009 21.396 33.2851 21.2862 33.4814C21.1739 33.6777 21.2188 33.9276 21.391 34.0704L25.1955 37.2244L24.4621 34.6619C25.9615 34.2641 27.1963 33.1805 27.8126 31.7297C28.4263 30.2763 28.3515 28.614 27.608 27.2244Z" fill="#5E798D"/>
<path d="M25.0345 25.3792L20.6866 22.2244L21.5248 24.7875V24.785C19.8112 25.1828 18.4 26.2667 17.6958 27.7179C16.9944 29.1716 17.0799 30.8344 17.9267 32.2244L19.1869 31.6072H19.1898C18.3202 30.1866 18.5369 28.4345 19.7315 27.218C20.9232 26.0014 22.8363 25.5806 24.5241 26.1646C24.7608 26.2463 25.0288 26.1621 25.1542 25.9657C25.2825 25.7693 25.2312 25.5194 25.0345 25.3792Z" fill="#5E798D"/>
<path d="M10.8319 7.22437C10.1289 7.22437 9.45743 7.5024 8.96167 7.99812C8.46593 8.49386 8.18792 9.16537 8.18792 9.86566H4.22461V11.1877C4.95378 11.1877 5.54394 11.7805 5.54394 12.5097C5.54394 13.2389 4.95377 13.8317 4.22461 13.8317V15.1538H8.18792V36.2975H4.22461V37.6196V37.6169C4.95116 37.6222 5.53609 38.2124 5.53609 38.939C5.53609 39.6655 4.95116 40.2557 4.22461 40.261V41.583H8.18792C8.18792 43.0414 9.37088 44.2244 10.8319 44.2244H34.6199H34.6173C36.0783 44.2244 37.2613 43.0414 37.2613 41.583H41.2246V40.261C40.4981 40.2557 39.9131 39.6656 39.9131 38.939C39.9131 38.2124 40.4981 37.6222 41.2246 37.6169V36.2949H37.2613V15.1511H41.2246V13.8291V13.8317C40.4954 13.8317 39.9026 13.2389 39.9026 12.5097C39.9026 11.7805 40.4954 11.1877 41.2246 11.1877V9.86566H37.2613C37.2613 9.1653 36.9833 8.49381 36.4875 7.99812C35.9918 7.50237 35.3177 7.22437 34.6173 7.22437H10.8319ZM10.8319 8.54639H34.6199H34.6173C34.9688 8.54639 35.3045 8.68541 35.5511 8.93197C35.8003 9.18115 35.9393 9.5169 35.9393 9.86574V41.5828C35.9393 42.3119 35.3465 42.9048 34.6173 42.9048H10.8292H10.8318C10.4804 42.9048 10.1446 42.7658 9.89546 42.5166C9.6489 42.27 9.50988 41.9316 9.50988 41.5828V9.86579C9.50988 9.51693 9.6489 9.17859 9.89546 8.93202C10.1446 8.68545 10.4804 8.54381 10.8318 8.54381L10.8319 8.54639ZM6.51444 11.1904L8.18792 11.1877V13.8317H6.51182C6.98396 13.0133 6.98396 12.0061 6.51182 11.1877L6.51444 11.1904ZM37.2611 11.1904H38.9372L38.9346 11.1877C38.4624 12.0062 38.4624 13.0134 38.9346 13.8317H37.2611L37.2611 11.1904ZM6.51444 37.6194L8.18792 37.6168V40.2608H6.51182C6.98396 39.4424 6.98396 38.4351 6.51182 37.6168L6.51444 37.6194ZM37.2611 37.6194H38.9372L38.9346 37.6168C38.4624 38.4352 38.4624 39.4424 38.9346 40.2608H37.2611L37.2611 37.6194Z" fill="#5E798D"/>
<path d="M12.2246 11.2244V18.2244H33.2246V11.2244H12.2246ZM13.5376 12.625H31.912V16.8238H13.5376V12.625Z" fill="#5E798D"/>
</svg>
