<?xml version="1.0" encoding="UTF-8"?>
<svg width="1200pt" height="1200pt" version="1.1" viewBox="0 0 1200 1200" xmlns="http://www.w3.org/2000/svg">
 <path d="m210.91 87.273c10.91 0 18.184-7.2734 18.184-18.184l-0.003906-32.727c0-10.91-7.2734-18.184-18.184-18.184s-18.184 7.2734-18.184 18.184v32.727c0.003906 9.0938 9.0938 18.184 18.188 18.184z" fill="#173f5b"/>
 <path d="m1116.4 321.82c-3.6367-25.453-30.91-45.453-61.816-45.453h-589.09c-30.91 0-58.184 20-61.816 45.453l-70.91 543.64c-5.4531 36.363 23.637 65.453 61.816 65.453h225.45l0.003906 123.64h-47.273c-5.4531 0-10.91 3.6367-14.547 7.2734l-60 90.91c-3.6367 5.4531-3.6367 12.727-1.8164 18.184 3.6367 5.4531 9.0898 9.0898 16.363 9.0898h490.91c7.2734 0 12.727-3.6367 16.363-9.0898 3.6367-5.4531 3.6367-12.727-1.8164-18.184l-60-90.91c-3.6367-5.4531-9.0898-7.2734-14.547-7.2734h-47.273v-123.64h229.09c38.184 0 67.273-29.09 61.816-65.453zm-338.18-10.906h130.91l5.4531 96.363h-138.18l0.003906-96.363zm0 132.73h140l7.2734 109.09h-147.27zm0 145.45h149.09l7.2734 125.45h-156.36zm-167.27-278.18h130.91v96.363h-138.18zm247.27 620v123.64h-201.82v-123.64zm-256.37-487.27h140v109.09h-147.27zm-9.0898 145.45h149.09v125.45h-156.36zm-56.363 305.46h-141.82c-16.363 0-27.273-10.91-25.453-25.453l16.363-121.82 160-0.003906zm10.91-181.82h-160l16.363-125.45h150.91zm10.91-160h-149.09l14.547-109.09h141.82zm-129.09-145.45 10.91-81.816c0-5.4531 10.91-14.547 25.453-14.547h109.09l-5.4531 96.363zm143.64 487.27 9.0898-145.45h160v145.45zm360 196.36 36.363 54.547-423.64-0.003906 36.363-54.547zm-154.54-196.36v-145.45h160l9.0898 145.45zm167.27-583.64h109.09c14.547 0 25.453 9.0898 25.453 14.547l10.91 81.816h-140zm9.0938 132.73h141.82l14.547 109.09h-149.09zm9.0898 145.45h150.91l16.363 125.45h-160zm161.82 305.46h-141.82l-9.0898-145.45h161.82l16.363 121.82c0 14.543-12.727 23.637-27.273 23.637z" fill="#173f5b"/>
 <path d="m210.91 103.64c-61.816 0-112.73 50.91-112.73 112.73 0 61.816 50.91 112.73 112.73 112.73s112.73-50.91 112.73-112.73c0-61.816-49.09-112.73-112.73-112.73zm0 190.91c-41.816 0-76.363-34.547-76.363-76.363s34.547-76.363 76.363-76.363 76.363 34.547 76.363 76.363-32.727 76.363-76.363 76.363z" fill="#173f5b"/>
 <path d="m121.82 98.184c5.457 9.0898 16.367 10.906 23.637 5.4531 9.0898-5.4531 10.91-16.363 7.2734-25.453l-16.363-27.273c-5.4531-7.2734-16.363-10.91-23.637-5.457-9.0898 3.6367-12.727 16.363-7.2734 23.637z" fill="#173f5b"/>
 <path d="m45.453 141.82 27.273 16.367c9.0898 5.4531 20 1.8164 25.457-5.457 5.4531-9.0898 1.8164-20-7.2734-25.453l-27.273-16.363c-9.0898-5.457-20-1.8203-25.453 7.2734-3.6367 9.0898-1.8203 20 7.2695 23.633z" fill="#173f5b"/>
 <path d="m63.637 236.36c10.91 0 18.184-7.2734 18.184-18.184 0-10.91-7.2734-18.184-18.184-18.184l-32.727 0.003906c-10.91 0-18.184 7.2734-18.184 18.184s7.2734 18.184 18.184 18.184z" fill="#173f5b"/>
 <path d="m72.727 276.36-27.273 16.363c-9.0898 5.457-10.906 16.363-7.2695 23.637 5.4531 9.0898 16.363 10.91 25.453 7.2734l27.273-16.363c9.0898-5.4531 10.91-16.363 7.2734-25.453-5.457-7.2734-16.367-10.91-25.457-5.457z" fill="#173f5b"/>
 <path d="m121.82 336.36-16.363 27.273c-5.4531 9.0898-1.8164 20 7.2734 25.453 9.0898 5.4531 20 1.8164 25.453-7.2734l16.363-27.273c5.4531-9.0898 1.8164-20-7.2734-25.453-9.0859-3.6367-19.996 0-25.453 7.2734z" fill="#173f5b"/>
 <path d="m192.73 365.45v32.727c0 10.91 7.2734 18.184 18.184 18.184s18.184-7.2734 18.184-18.184v-32.727c0-10.91-7.2734-18.184-18.184-18.184-10.91 0.003907-18.184 9.0938-18.184 18.184z" fill="#173f5b"/>
 <path d="m276.36 330.91c-9.0898 5.4531-10.91 16.363-7.2734 25.453l16.363 27.273c5.4531 9.0898 16.363 10.91 25.453 7.2734 9.0898-5.4531 10.91-16.363 7.2734-25.453l-16.363-27.273c-5.4531-9.0938-16.363-12.73-25.453-7.2734z" fill="#173f5b"/>
 <path d="m383.64 316.36c5.4531-9.0898 1.8164-20-7.2734-25.453l-27.273-16.363c-9.0898-5.4531-20-1.8164-25.453 7.2734-5.4531 9.0898-1.8164 20 7.2734 25.453l27.273 16.363c9.0898 5.4531 20 1.8164 25.453-7.2734z" fill="#173f5b"/>
 <path d="m341.82 218.18c0 10.91 7.2734 18.184 18.184 18.184h32.727c10.91 0 18.184-7.2734 18.184-18.184s-7.2734-18.184-18.184-18.184h-32.727c-9.0898 0-18.184 7.2734-18.184 18.184z" fill="#173f5b"/>
 <path d="m349.09 158.18 27.273-16.363c9.0898-5.4531 10.91-16.363 7.2734-25.453-5.4531-9.0898-16.363-10.91-25.453-7.2734l-27.273 18.18c-9.0898 5.4531-10.91 16.363-7.2734 25.453 5.4531 9.0898 16.363 10.91 25.453 5.457z" fill="#173f5b"/>
 <path d="m276.36 103.64c9.0898 5.4531 20 1.8164 25.453-7.2734l16.363-27.273c5.4531-9.0898 1.8164-20-7.2734-25.453s-20-1.8164-25.453 7.2734l-16.363 27.273c-3.6367 10.906-1.8164 21.816 7.2734 25.453z" fill="#173f5b"/>
</svg>
