<?xml version="1.0" encoding="UTF-8" standalone="no"?>
<svg
   width="1213.8491pt"
   height="1200pt"
   version="1.1"
   viewBox="0 0 1213.8491 1200"
   id="svg30"
   sodipodi:docname="i_pv_full.svg"
   inkscape:version="1.1.2 (0a00cf5339, 2022-02-04)"
   xmlns:inkscape="http://www.inkscape.org/namespaces/inkscape"
   xmlns:sodipodi="http://sodipodi.sourceforge.net/DTD/sodipodi-0.dtd"
   xmlns="http://www.w3.org/2000/svg"
   xmlns:svg="http://www.w3.org/2000/svg">
  <defs
     id="defs34" />
  <sodipodi:namedview
     id="namedview32"
     pagecolor="#ffffff"
     bordercolor="#999999"
     borderopacity="1"
     inkscape:pageshadow="0"
     inkscape:pageopacity="0"
     inkscape:pagecheckerboard="0"
     inkscape:document-units="pt"
     showgrid="false"
     showguides="true"
     inkscape:guide-bbox="true"
     inkscape:zoom="0.528125"
     inkscape:cx="805.68047"
     inkscape:cy="497.98817"
     inkscape:window-width="1920"
     inkscape:window-height="1022"
     inkscape:window-x="0"
     inkscape:window-y="0"
     inkscape:window-maximized="1"
     inkscape:current-layer="svg30">
    <sodipodi:guide
       position="-457.15939,602.82861"
       orientation="0,-1"
       id="guide52" />
    <sodipodi:guide
       position="605.08914,1128.2724"
       orientation="1,0"
       id="guide85" />
  </sodipodi:namedview>
  <g
     id="g50"
     transform="matrix(1.0328514,0,0,1.0328514,-13.144067,-18.775173)">
    <path
       d="m 210.91,87.273 c 10.91,0 18.184,-7.2734 18.184,-18.184 L 229.09,36.362 c 0,-10.91 -7.2734,-18.184 -18.184,-18.184 -10.9106,0 -18.184,7.2734 -18.184,18.184 v 32.727 c 0.004,9.0938 9.0938,18.184 18.188,18.184 z"
       fill="#173f5b"
       id="path2" />
    <path
       d="m 1116.4,321.82 c -3.6367,-25.453 -30.91,-45.453 -61.816,-45.453 h -589.09 c -30.91,0 -58.184,20 -61.816,45.453 l -70.91,543.64 c -5.4531,36.363 23.637,65.453 61.816,65.453 h 225.45 l 0.004,123.64 h -47.273 c -5.4531,0 -10.91,3.6367 -14.547,7.2734 l -60,90.91 c -3.6367,5.4531 -3.6367,12.727 -1.8164,18.184 3.6367,5.4531 9.0898,9.0898 16.363,9.0898 h 490.91 c 7.2734,0 12.727,-3.6367 16.363,-9.0898 3.6367,-5.4531 3.6367,-12.727 -1.8164,-18.184 l -60,-90.91 c -3.6367,-5.4531 -9.0898,-7.2734 -14.547,-7.2734 h -47.273 v -123.64 h 229.09 c 38.184,0 67.273,-29.09 61.816,-65.453 z M 778.22,310.914 h 130.91 l 5.4531,96.363 h -138.18 l 0.004,-96.363 z m 0,132.73 h 140 l 7.2734,109.09 h -147.27 z m 0,145.45 h 149.09 l 7.2734,125.45 h -156.36 z M 610.95,310.914 h 130.91 v 96.363 H 603.68 Z m 247.27,620 v 123.64 H 656.4 V 930.914 Z M 601.85,443.644 h 140 v 109.09 H 594.58 Z m -9.0898,145.45 h 149.09 v 125.45 h -156.36 z m -56.363,305.46 h -141.82 c -16.363,0 -27.273,-10.91 -25.453,-25.453 l 16.363,-121.82 160,-0.004 z m 10.91,-181.82 h -160 l 16.363,-125.45 h 150.91 z m 10.91,-160 h -149.09 l 14.547,-109.09 h 141.82 z m -129.09,-145.45 10.91,-81.816 c 0,-5.4531 10.91,-14.547 25.453,-14.547 h 109.09 l -5.4531,96.363 z m 143.64,487.27 9.0898,-145.45 h 160 v 145.45 z m 360,196.36 36.363,54.547 h -423.64 l 36.363,-54.547 z m -154.54,-196.36 v -145.45 h 160 l 9.0898,145.45 z m 167.27,-583.64 h 109.09 c 14.547,0 25.453,9.0898 25.453,14.547 l 10.91,81.816 h -140 z m 9.0938,132.73 h 141.82 l 14.547,109.09 h -149.09 z m 9.0898,145.45 h 150.91 l 16.363,125.45 h -160 z m 161.82,305.46 h -141.82 l -9.0898,-145.45 h 161.82 l 16.363,121.82 c 0,14.543 -12.727,23.637 -27.273,23.637 z"
       fill="#173f5b"
       id="path4" />
    <path
       d="m 210.91,103.64 c -61.816,0 -112.73,50.91 -112.73,112.73 0,61.816 50.91,112.73 112.73,112.73 61.82,0 112.73,-50.91 112.73,-112.73 0,-61.816 -49.09,-112.73 -112.73,-112.73 z m 0,190.91 c -41.816,0 -76.363,-34.547 -76.363,-76.363 0,-41.816 34.547,-76.363 76.363,-76.363 41.816,0 76.363,34.547 76.363,76.363 0,41.816 -32.727,76.363 -76.363,76.363 z"
       fill="#173f5b"
       id="path6" />
    <path
       d="m 121.82,98.184 c 5.457,9.0898 16.367,10.906 23.637,5.4531 9.0898,-5.4531 10.91,-16.363 7.2734,-25.453 l -16.363,-27.273 c -5.4531,-7.2734 -16.363,-10.91 -23.637,-5.457 -9.0898,3.6367 -12.727,16.363 -7.2734,23.637 z"
       fill="#173f5b"
       id="path8" />
    <path
       d="m 45.453,141.82 27.273,16.367 c 9.0898,5.4531 20,1.8164 25.457,-5.457 5.4531,-9.0898 1.8164,-20 -7.2734,-25.453 l -27.273,-16.363 c -9.0898,-5.457 -20,-1.8203 -25.453,7.2734 -3.6367,9.0898 -1.8203,20 7.2695,23.633 z"
       fill="#173f5b"
       id="path10" />
    <path
       d="m 63.637,236.36 c 10.91,0 18.184,-7.2734 18.184,-18.184 0,-10.91 -7.2734,-18.184 -18.184,-18.184 l -32.727,0.004 c -10.91,0 -18.184,7.2734 -18.184,18.184 0,10.9106 7.2734,18.184 18.184,18.184 z"
       fill="#173f5b"
       id="path12" />
    <path
       d="m 72.727,276.36 -27.273,16.363 c -9.0898,5.457 -10.906,16.363 -7.2695,23.637 5.4531,9.0898 16.363,10.91 25.453,7.2734 l 27.273,-16.363 c 9.0898,-5.4531 10.91,-16.363 7.2734,-25.453 -5.457,-7.2734 -16.367,-10.91 -25.457,-5.457 z"
       fill="#173f5b"
       id="path14" />
    <path
       d="m 121.82,336.36 -16.363,27.273 c -5.4531,9.0898 -1.8164,20 7.2734,25.453 9.0898,5.4531 20,1.8164 25.453,-7.2734 l 16.363,-27.273 c 5.4531,-9.0898 1.8164,-20 -7.2734,-25.453 -9.0859,-3.6367 -19.996,0 -25.453,7.2734 z"
       fill="#173f5b"
       id="path16" />
    <path
       d="m 192.73,365.45 v 32.727 c 0,10.91 7.2734,18.184 18.184,18.184 10.9106,0 18.184,-7.2734 18.184,-18.184 V 365.45 c 0,-10.91 -7.2734,-18.184 -18.184,-18.184 -10.91,0.004 -18.184,9.0938 -18.184,18.184 z"
       fill="#173f5b"
       id="path18" />
    <path
       d="m 276.36,330.91 c -9.0898,5.4531 -10.91,16.363 -7.2734,25.453 l 16.363,27.273 c 5.4531,9.0898 16.363,10.91 25.453,7.2734 9.0898,-5.4531 10.91,-16.363 7.2734,-25.453 l -16.363,-27.273 c -5.4531,-9.0938 -16.363,-12.73 -25.453,-7.2734 z"
       fill="#173f5b"
       id="path20" />
    <path
       d="m 383.64,316.36 c 5.4531,-9.0898 1.8164,-20 -7.2734,-25.453 l -27.273,-16.363 c -9.0898,-5.4531 -20,-1.8164 -25.453,7.2734 -5.4531,9.0898 -1.8164,20 7.2734,25.453 l 27.273,16.363 c 9.0898,5.4531 20,1.8164 25.453,-7.2734 z"
       fill="#173f5b"
       id="path22" />
    <path
       d="m 341.82,218.18 c 0,10.91 7.2734,18.184 18.184,18.184 h 32.727 c 10.91,0 18.184,-7.2734 18.184,-18.184 0,-10.9106 -7.2734,-18.184 -18.184,-18.184 h -32.727 c -9.0898,0 -18.184,7.2734 -18.184,18.184 z"
       fill="#173f5b"
       id="path24" />
    <path
       d="m 349.09,158.18 27.273,-16.363 c 9.0898,-5.4531 10.91,-16.363 7.2734,-25.453 -5.4531,-9.0898 -16.363,-10.91 -25.453,-7.2734 l -27.273,18.18 c -9.0898,5.4531 -10.91,16.363 -7.2734,25.453 5.4531,9.0898 16.363,10.91 25.453,5.457 z"
       fill="#173f5b"
       id="path26" />
    <path
       d="m 276.36,103.64 c 9.0898,5.4531 20,1.8164 25.453,-7.2734 l 16.363,-27.273 c 5.4531,-9.0898 1.8164,-20 -7.2734,-25.453 -9.0898,-5.453 -20,-1.8164 -25.453,7.2734 l -16.363,27.273 c -3.6367,10.906 -1.8164,21.816 7.2734,25.453 z"
       fill="#173f5b"
       id="path28" />
  </g>
</svg>
