<?xml version="1.0" encoding="UTF-8"?>
<svg width="1200pt" height="1200pt" version="1.1" viewBox="0 0 1200 1200" xmlns="http://www.w3.org/2000/svg">
 <path d="m477.37 1025.4-8.6289 2.6992-5.9297-1.0781 8.0898-11.855 3.7695 2.6992 5.3867 1.0781zm-132.06-853.39 31.262 9.707 5.3867-1.0781 4.8477 1.0781 8.0898 5.3867 11.316 10.777 7.0078 7.0078 3.2383 4.3086 16.176 23.723 5.9297 5.9297 5.9297 3.2383 5.9297 1.0781 4.8477-0.53906 4.3086-2.6992 6.4688-5.3867 9.168-2.1602 7.5469 0.53906 38.809-21.562h3.7695l11.316 1.6211 12.395 2.6992 32.879 21.562 26.41 14.016 18.863 4.3086 22.105 3.2383 37.188 1.0781 28.57-29.652 10.234-6.4688 12.938-5.9297 3.7695-1.0781 22.645-4.3086 43.656-4.3086 40.969 2.1602 8.0898 1.0781 17.242 3.7812 26.953 9.707 11.316 9.168 18.324 1.6211 12.938-1.6211 4.3086-9.168 12.938-12.395 9.6953-4.8477 10.246-6.4688 15.637-7.5469 13.477-3.7695 11.855-9.168 9.168-2.6992h16.176l14.016 19.402 15.637 21.562 11.855 16.715 8.6289 42.59 1.0781 8.0898 0.53906 3.7695 0.53906 3.2383 1.0781 5.9297 7.0078 2.6992 12.938 1.0781 9.168 4.3086 5.9297 6.4688 0.53906 1.6211 2.6992 5.3867 0.53906 3.7695-0.53906 11.316-2.1602 14.016-3.2383 9.168 2.1602 12.938-0.53906 5.3867-1.6211 3.7812-5.9297 3.7695-7.5469 4.3086-18.863 12.395-5.3867 1.6211-7.5469 0.53906-7.0078 2.6992-8.0898 6.4688-17.242 24.793-15.098 24.266-4.8477 20.484-5.9297 19.402-12.938 12.395-2.1602 7.0078-0.53906 3.7695-0.53906 9.168-1.6211 15.637-1.6211 7.5469-2.1602 2.1602-14.016 4.8477-8.6289 5.3867-4.8477 11.316-1.6211 11.855-2.6992 14.016-1.6211 11.855-2.1602 6.4688-4.8477 6.4688-7.0078 7.0078-6.4688 4.3086-16.176 2.6992-8.0898 15.637-7.0078 12.395-0.53906 5.3867-6.4219 25.891-11.855 19.402-1.0781 7.0078v5.3867l-14.555 17.258-4.3086 5.3867-3.7695 6.4688 3.7695 6.4688 4.3086 5.9297 0.53906 1.6211-6.4688 5.3867-11.855 9.707-7.0078 5.9297-1.6211 2.6992-1.0781 14.555-1.6211 3.7695-4.8477 5.3867-7.0078 5.3867-7.0078 4.8477-7.5469 2.6992-8.0898 1.6211-3.7695-2.1602-2.6992-4.3086-4.3086-17.23-2.1602-3.7695-4.8477-3.2383-19.414-19.414-11.855-7.0078-2.6992 0.53906-2.1602 2.1602-3.2266 9.707-3.2266 3.2383-6.4688 1.6211h-10.781l-8.0898-1.6211-1.6211-1.6211-1.6211-4.3086-2.1602-3.7695-9.707 7.0078-14.555 10.777-4.8477 1.6211-3.7695 2.1602-4.8477 10.246-5.9297 10.777-8.0898 5.3867-7.5469 4.8477-4.3086 3.7695-5.9297 5.3867-12.395 11.855-16.176 16.176-5.3867 8.0898-5.9297 12.395-3.2383 14.016-3.7695 15.098-4.8477 23.723-8.0898 14.016-6.4688 10.777-4.8477 8.6289-2.6992 7.0078-1.0781-0.53906-2.6992 3.2266-7.5469-2.1602-3.7695-5.9297-4.3086-1.0781-8.0898-9.168-1.6211 1.6211 8.0898 23.184-2.6992 8.6289h-24.254l-20.484 3.2383-14.016-0.53906-7.5469-2.6992-2.6992-8.6289-1.6211 0.53906-0.53906 4.8477-4.3086 3.2383-16.176 1.0781-7.0078-5.9297-5.3867-6.4688-6.4688-3.2383 1.0781 3.2383 7.0078 5.9297-1.0781 9.168-12.395 10.777-8.0898 0.53906-5.3867-4.3086-2.1602-7.5469-1.6211-11.316-3.2383-7.0078h-1.6211l1.6211 6.4688 0.53906 5.3867v11.316l5.9297 8.6289-9.168 2.6992h-3.7695l-7.5078 0.54688-1.6211-3.2383-1.0781-7.5469-2.1602-1.6211-2.1602 11.855-4.8477 1.0781h-3.7695l-14.555 2.6992-3.2383-0.53906-0.53906-2.1602 1.6211-3.7695-0.53906-5.3867-4.8477 4.3086-1.0781 8.6289-2.6992 1.0781-8.6289-1.0781-9.707-4.3086-5.9141-4.3203-9.707-6.4688-18.863-17.258-3.2266-7.5469-5.3867-9.707-4.3086-9.707-5.9297-16.715 2.1602-1.0781 4.3086 1.0781 2.1602-2.1602-8.0898-2.1602-1.6211-1.6211-0.53906-5.9297 0.53906-7.0078 6.4688-2.6992 5.3867-1.0781 2.6992-4.3086 1.6211-4.3086-14.555 6.4688-14.016-7.5469-3.25-4.2852 1.6211-3.7695h16.176l5.9297-3.2383-3.7695-1.0781h-5.9297l-2.1602-2.1602v-5.3867l-2.1602 1.0781-2.6992 4.8477-9.168 3.2266-5.3867-3.2266-0.53906-8.0898-1.0781-3.2383-4.8477-3.2383-16.176-20.484-21.023-17.258-17.785-11.855-28.031-5.9297-57.672 0.53906-3.2266-2.1602 3.7695-2.6992 4.8477-1.6211 18.324-9.707-2.6992-1.0781-19.402 5.9297-6.4688 0.53906-8.6133 11.891-51.219 1.6094-5.9297 0.53906v-5.3867l2.6992-15.098 1.6211-5.9297 2.1602-4.8477-2.1602-5.3867-2.1602-7.0078-0.53906-11.855 2.1602-3.2383 1.0781-4.8477-1.0781-6.4688v-23.184l3.2422-4.3203v-3.2383l-2.7109-5.9336-3.2266-6.4688v-9.707l-1.0781-9.707-1.6211-4.3086 1.0781-15.637 1.0781-20.484-0.53906-9.168 1.6211-5.9297 1.0781-16.176v-15.098l3.7695-24.266 10.777-1.0781 13.477-2.1602 5.9297-9.707 3.2266-11.855-1.0781-11.855 2.6992-4.3086 5.3867-6.4688 9.707-9.168-0.53125-10.219 2.6992-2.6992 4.3086-2.6992 6.4688-1.0781 7.5469-4.8477 3.7695-9.168 4.3086-14.016-6.4688-10.246v-2.1602l2.6992-5.3867 3.7695-4.8477 2.6992-2.1602 7.5469 1.6211 1.0781-0.53906 1.0781-1.6211 4.3086-15.637 0.003906-4.3047-7.0078-10.246-1.0781-7.5469-0.53906-11.316-1.6211-9.707-2.1602-3.7695-3.7695-3.2383-1.0781-2.1602-14.016-19.945 0.53906-9.707 5.3867-11.855 3.7695-5.9297 5.3867-3.2383 1.0781-2.6992-1.6211-3.7812-2.6992-2.1602-0.53906-5.9297 0.53906-3.2383 2.1602-4.3086-1.0781-8.0898 0.53906-12.938 0.53906-18.863 0.53906-11.316 10.777-8.6289 16.176-14.016 8.6289-14.555 4.3086-11.316 5.3867-36.66 3.7695-2.1602 4.8477-2.1602 16.176-13.477 12.395-4.8477 9.707-2.6992 14.016-2.6992 9.168 1.0781 16.176 0.53906 12.938-1.0781 10.777-7.5469 4.8477-2.1602 6.4688-1.0781z" fill="#1f567d"/>
</svg>
