<svg width="109" height="109" viewBox="0 0 109 109" fill="none" xmlns="http://www.w3.org/2000/svg">
<path d="M78.2611 40.2328L78.0933 39.339L77.472 38.9118L76.6176 38.3941V37.3836L75.6717 36.9827L74.648 36.4518L74.3112 35.7912L73.4568 34.9105C73.4568 34.9105 73.0559 33.5633 73.0559 33.4991C73.0559 33.4348 73.1985 31.3233 73.1985 31.3233L73.3926 30.1449L72.8618 28.9144L71.5408 28.2279L69.9995 26.4403L68.5337 24.1975L68.016 24.3011L67.0187 24.0939L66.2416 23.6798H64.9203L64.2596 24.0428L64.4274 24.4437L63.9871 24.7936L63.2359 25.9336L62.0828 26.154L61.2795 26.711L61.0333 27.0872L60.7224 27.0098L60.5415 26.4396L60.2048 26.1934L59.5441 26.116L58.2742 24.8855L57.6267 24.8592L57.1339 25.3127L56.5899 25.753L56.0066 25.6363L55.7994 26.2838L55.2817 26.6979L54.4401 27.112L53.287 28.0579L52.3669 28.9255L51.5899 28.8481L51.0459 28.4983L51.1886 27.7471L51.9787 26.3225L52.3928 25.1573L52.3406 24.3029L51.7967 23.5517L52.0561 23.0589L52.8072 21.2975L53.1049 20.1575L53.0276 19.4578L52.5741 18.6545L52.7299 17.1773L52.3538 16.918L51.2396 16.8012L50.4626 16.9953L49.6986 17.332L49.1284 17.1642L48.2215 16.4003L48.0406 15.8042L48.3642 15.2209L48.8307 14.1461V13.6533L47.6644 12.3455H47.1847L46.7575 13.174L45.6696 11.9566L44.5949 12.5268L43.5712 12.7862L42.8715 12.4494L42.7157 12.7471L42.8715 13.4468L42.6253 13.8609L41.9004 14.0812L40.8898 13.7051L39.7888 14.2228V15.337L39.3748 15.894H38.0406L36.6802 16.2439L35.7995 16.4117L34.7631 15.8547L34.2586 16.1655L33.935 16.7357L33.0412 17.5773L32.977 19.6363L32.5235 20.3491L32.6662 21.3987L32.8602 22.3698L32.6914 22.9006H32.1985L31.8093 23.1469L30.8644 22.9659L30.7346 23.3669L31.3821 24.338L32.0818 24.3774L32.6651 25.7115L32.7687 26.2292L32.5094 26.8767L32.652 27.4075L33.5326 28.3276L34.711 29.8047L36.8353 31.7733L37.0294 32.4598L36.9258 33.1847L37.4435 34.1296L37.7802 34.8807L38.0779 35.684L38.3887 35.6578L39.01 35.1401L39.4503 35.865L38.5303 36.8624L37.5329 37.1349L37.3651 38.5463L37.4819 40.1007L37.5081 40.9041L37.2878 41.2017L36.8868 41.228L36.1229 41.7208L35.5921 41.8376L35.2944 42.4078L35.4111 43.017L35.7478 44.4284L37.3413 46.7994L38.365 47.641L39.8801 49.1429L40.6834 50.2177L40.9297 51.396L40.9691 52.5492L40.9953 53.6108L40.555 54.2715L41.0727 55.2295V56.2006L42.0569 57.0682L42.2773 57.6515L42.7176 59.4774L43.3652 61.1092L43.4556 61.7827L43.2484 62.3919L42.5104 63.0011L41.3452 65.009L39.4018 67.4441L38.5602 68.0534L38.6244 69.3612L38.3782 70.4359L37.8736 71.8343L37.5238 73.4792L37.1228 74.4372L36.63 75.7192L36.449 76.8071L35.6074 78.7114L35.568 80.55L36.0215 82.0782L36.526 82.2208L37.3425 81.6247L38.1841 82.0913L38.7674 83.1923L39.9205 84.0088L40.2051 84.3455L40.2572 85.0835L40.9701 85.2776L41.7081 86.4176L42.3425 87.2078L43.3789 87.3888L43.3268 87.8816L43.6766 88.3993L44.1943 88.7754L44.1038 89.7334L44.311 90.1737L45.1527 90.8986L45.7097 91.6888L46.4009 92.4705L46.6493 91.1296H46.997L47.6424 91.7999L49.3495 92.6085L50.1396 92.4013L50.5668 93.0488L50.7226 93.6832L51.5511 93.619L52.095 94.1118V94.6427L52.0429 95.3676L51.4595 95.8984L51.2917 96.4686L51.7583 96.9731L52.4449 97.0373L52.8458 96.454L54.1157 96.0137L54.6333 95.6376L55.5403 96.5707L56.3304 96.234L56.9006 94.9772L57.6135 94.4595L57.8597 93.6956L55.9423 92.1412L54.4524 90.2106L53.6108 89.926L51.4734 90.289L49.2845 88.4752H48.3514L47.0946 86.765L46.5901 85.263L47.0946 84.9522L47.535 85.2758L47.3409 85.9624L47.9675 86.1827L48.3379 87.6204L48.8687 87.8014L47.971 84.5945L47.305 81.5118L46.8005 80.7869L46.6326 81.1105L45.6353 80.1905L45.2592 76.8225L44.7926 76.0976H44.0287L42.5388 76.7069L41.6713 76.3439L41.594 75.8904L41.7497 75.3976L41.0369 74.2445L41.0365 72.4846L41.2569 71.2672L41.1142 70.1272L41.5677 69.5701L41.6071 68.9609L42.889 67.0435V66.1497L43.29 65.3081L43.6008 63.5074L44.4814 62.3411L44.805 61.188L45.3884 60.3463L45.7513 59.2847L45.674 57.6912L45.6218 56.3961L45.9979 55.1177L46.3087 54.5181L45.7911 53.4564L45.972 52.7052L47.0337 51.9413L48.6272 51.9935L49.1711 51.54L49.664 51.9804L50.6351 52.1102L51.1921 52.5243L51.0623 53.0682L51.3216 53.7417L51.0491 54.4545L50.8419 55.9185L51.1013 56.9801L51.6974 56.9933L52.2282 56.6434L53.8991 57.11C53.8991 57.11 55.1942 56.6959 55.2332 56.6959C55.2726 56.6959 55.9844 56.7222 55.9844 56.7222L57.0854 57.3828L57.7588 57.6674L58.368 58.5349L58.8478 58.5481L60.1819 59.8953L60.6354 59.4944L61.3482 60.2455L61.659 61.3202C61.659 61.3202 62.605 62.3567 62.605 62.2913C62.605 62.2271 61.9837 60.6858 61.9837 60.6858L61.3624 59.3385L61.5955 58.1854L60.0936 56.6572L60.0542 54.8054L59.2126 53.4319L59.1352 51.606L60.5992 51.3988L60.5861 50.9584L61.4536 49.8443L62.7487 48.0183L64.0055 47.215L66.1039 46.6317L67.0498 46.9425L69.4324 46.8652L71.1295 47.0078L72.9434 46.5675L74.1097 46.9684L74.5106 47.9265L75.2355 47.5766L75.4559 46.9933L76.4401 46.6303L77.2434 45.827L77.4375 44.4286L77.5411 43.1467L77.308 41.7994L77.5411 41.1519L78.2611 40.2328Z" fill="#D2DEE6"/>
<path d="M43.8017 91.1512L43.3539 91.6299L43.5785 92.1181L44.3719 91.9961L44.0153 91.5174L43.8017 91.1512Z" fill="#D2DEE6"/>
<path d="M36.0572 82.83L35.994 83.6596L35.8553 84.0999L36.5607 84.6669V83.748L36.7111 83.1941L36.3722 83.0557L36.0572 82.83Z" fill="#D2DEE6"/>
<path d="M37.605 83.7483L37.7554 84.1266L37.9069 83.346L37.303 82.9056L37.605 83.7483Z" fill="#D2DEE6"/>
<path d="M45.2759 74.8439L45.6342 75.5436L46.1161 75.2331L46.1945 74.5168L45.5101 74.3773L45.2759 74.8439Z" fill="#D2DEE6"/>
<path d="M45.8509 73.1017L45.7341 73.4122L46.0687 74.2059L46.3185 73.3817L45.8509 73.1017Z" fill="#D2DEE6"/>
<path d="M45.1832 72.2307V71.7173H44.8103L44.6851 72.0902L45.1832 72.2307Z" fill="#D2DEE6"/>
<path d="M58.8455 59.7665V60.5329L59.2095 60.7888L59.8187 60.6908L59.3316 59.9007L58.8455 59.7665Z" fill="#D2DEE6"/>
<path d="M60.3542 62.3217L60.1101 62.6016L60.4869 63.137L60.6941 62.7293L60.5721 62.3217L60.3542 62.3217Z" fill="#D2DEE6"/>
</svg>
