<svg width="109" height="109" viewBox="0 0 109 109" fill="none" xmlns="http://www.w3.org/2000/svg">
<path d="M43.3611 93.1405L42.5773 93.3857L42.0387 93.2877L42.7735 92.2109L43.1159 92.4561L43.6052 92.554L43.3611 93.1405ZM31.3657 15.6242L34.2053 16.5059L34.6946 16.408L35.1349 16.5059L35.8697 16.9952L36.8976 17.9741L37.5341 18.6107L37.8283 19.0021L39.2976 21.1569L39.8362 21.6955L40.3748 21.9897L40.9135 22.0876L41.3538 22.0386L41.7452 21.7934L42.3327 21.3041L43.1655 21.1079L43.851 21.1569L47.3762 19.1983H47.7186L48.7464 19.3456L49.8723 19.5908L52.8588 21.5493L55.2577 22.8224L56.9711 23.2138L58.979 23.508L62.3569 23.6059L64.952 20.9125L65.8816 20.3249L67.0568 19.7863L67.3992 19.6884L69.4561 19.297L73.4215 18.9056L77.1429 19.1019L77.8777 19.1998L79.4438 19.5432L81.8921 20.425L82.9199 21.2577L84.5844 21.405L85.7596 21.2577L86.1509 20.425L87.3261 19.2991L88.2068 18.8587L89.1375 18.2712L90.5578 17.5857L91.782 17.2433L92.8588 16.4105L93.6916 16.1653H95.1609L96.434 17.9277L97.8544 19.8862L98.9312 21.4045L99.715 25.2731L99.813 26.0079L99.8619 26.3503L99.9109 26.6445L100.009 27.1831L100.645 27.4282L101.821 27.5262L102.653 27.9175L103.192 28.5051L103.241 28.6524L103.486 29.1417L103.535 29.4841L103.486 30.5119L103.29 31.785L102.996 32.6178L103.192 33.793L103.143 34.2823L102.996 34.6258L102.457 34.9682L101.772 35.3595L100.058 36.4854L99.5689 36.6327L98.8834 36.6816L98.2468 36.9268L97.512 37.5144L95.9459 39.7664L94.5745 41.9706L94.1341 43.8312L93.5955 45.5935L92.4203 46.7194L92.2241 47.356L92.1751 47.6984L92.1262 48.5311L91.9789 49.9515L91.8317 50.637L91.6355 50.8332L90.3623 51.2735L89.5785 51.7628L89.1382 52.7907L88.991 53.8675L88.7458 55.1407L88.5985 56.2175L88.4023 56.8051L87.962 57.3927L87.3254 58.0292L86.7378 58.4206L85.2685 58.6657L84.5337 60.0861L83.8972 61.212L83.8482 61.7013L83.2649 64.053L82.188 65.8154L82.0901 66.4519V66.9412L80.768 68.5088L80.3767 68.9981L80.0343 69.5857L80.3767 70.1733L80.768 70.7119L80.817 70.8591L80.2294 71.3484L79.1526 72.2302L78.5161 72.7688L78.3688 73.0139L78.2709 74.336L78.1236 74.6784L77.6833 75.1677L77.0468 75.657L76.4102 76.0973L75.7247 76.3425L74.9899 76.4898L74.6475 76.2935L74.4023 75.9022L74.0109 74.3371L73.8147 73.9947L73.3744 73.7006L71.611 71.9371L70.5341 71.3006L70.2889 71.3496L70.0927 71.5458L69.7996 72.4275L69.5066 72.7216L68.919 72.8689H67.9397L67.2049 72.7216L67.0576 72.5744L66.9104 72.183L66.7142 71.8406L65.8324 72.4772L64.5104 73.4561L64.07 73.6033L63.7276 73.7996L63.2873 74.7302L62.7487 75.7091L62.0139 76.1984L61.3284 76.6388L60.937 76.9812L60.3984 77.4705L59.2725 78.5473L57.8032 80.0166L57.3139 80.7514L56.7753 81.8773L56.4811 83.1504L56.1387 84.5218L55.6984 86.6767L54.9636 87.9498L54.376 88.9287L53.9357 89.7125L53.6905 90.349L53.5926 90.3001L53.3474 90.5932L52.6619 90.3969L52.3195 89.8583L51.9281 89.7604L51.1933 88.9276L51.046 89.0749L51.7809 91.1808L51.5357 91.9646H49.3326L47.472 92.2587L46.1989 92.2097L45.5133 91.9646L45.2682 91.1808L45.1209 91.2297L45.072 91.6701L44.6806 91.9642L43.2113 92.0621L42.5747 91.5235L42.0854 90.9359L41.4979 90.6418L41.5958 90.9359L42.2323 91.4746L42.1344 92.3073L41.0085 93.2862L40.2737 93.3352L39.7844 92.9438L39.5882 92.2583L39.4409 91.2304L39.1468 90.5939H38.9995L39.1468 91.1815L39.1958 91.6708V92.6986L39.7344 93.4824L38.9016 93.7276H38.5592L37.8773 93.7773L37.73 93.4831L37.6321 92.7976L37.4359 92.6504L37.2396 93.7272L36.7993 93.8251H36.4569L35.1348 94.0703L34.8407 94.0214L34.7917 93.8251L34.939 93.4827L34.89 92.9935L34.4497 93.3848L34.3517 94.1686L34.1066 94.2665L33.3228 94.1686L32.4411 93.7772L31.9039 93.3848L31.0221 92.7972L29.3088 91.2296L29.0157 90.5441L28.5264 89.6624L28.135 88.7807L27.5964 87.2624L27.7926 87.1645L28.184 87.2624L28.3802 87.0662L27.6454 86.87L27.4981 86.7227L27.4492 86.1841L27.4981 85.5476L28.0857 85.3024L28.575 85.2045L28.8202 84.8131L28.9674 84.4217L27.6453 85.0093L26.3722 84.3238L26.077 83.9346L26.2243 83.5922H27.6936L28.2322 83.298L27.8898 83.2001H27.3512L27.155 83.0039V82.5146L26.9588 82.6125L26.7136 83.0528L25.8808 83.3459L25.3915 83.0528L25.3426 82.318L25.2446 82.0239L24.8043 81.7297L23.335 79.8691L21.4254 78.3015L19.8099 77.2247L17.2638 76.6861L12.0252 76.735L11.7321 76.5388L12.0745 76.2936L12.5149 76.1464L14.1793 75.2647L13.9341 75.1667L12.1718 75.7053L11.5842 75.7543L10.8018 76.8344L6.14943 76.9806L5.61082 77.0296V76.5403L5.85599 75.1689L6.00324 74.6302L6.19946 74.1899L6.00324 73.7006L5.80703 73.0641L5.75806 71.9873L5.95428 71.6931L6.05221 71.2528L5.95428 70.6652V68.5593L6.24878 68.1669V67.8727L6.00254 67.3338L5.70946 66.7462V65.8645L5.61153 64.9827L5.46428 64.5914L5.56221 63.171L5.66013 61.3104L5.61117 60.4776L5.75842 59.939L5.85635 58.4697V57.0983L6.19874 54.8941L7.17765 54.7962L8.40181 54.6L8.94043 53.7183L9.23351 52.6414L9.13558 51.5646L9.38076 51.1732L9.87005 50.5857L10.7518 49.7529L10.7035 48.8247L10.9487 48.5795L11.3401 48.3343L11.9276 48.2364L12.6132 47.7961L12.9555 46.9633L13.3469 45.6902L12.7593 44.7595V44.5633L13.0045 44.074L13.3469 43.6337L13.5921 43.4374L14.2776 43.5847L14.3755 43.5357L14.4734 43.3885L14.8648 41.9681L14.8652 41.5771L14.2286 40.6464L14.1307 39.9609L14.0817 38.933L13.9345 38.0513L13.7383 37.7089L13.3959 37.4148L13.2979 37.2186L12.0248 35.4069L12.0738 34.5252L12.5631 33.4483L12.9055 32.9097L13.3948 32.6156L13.4927 32.3704L13.3454 32.027L13.1003 31.8307L13.0513 31.2921L13.1003 30.998L13.2965 30.6066L13.1986 29.8718L13.2475 28.6966L13.2965 26.9832L13.3454 25.9553L14.3244 25.1715L15.7937 23.8984L16.5775 22.5763L16.9688 21.5485L17.4581 18.2185L17.8005 18.0223L18.2409 17.8261L19.7102 16.6019L20.8361 16.1616L21.7178 15.9164L22.9909 15.6712L23.8237 15.7692L25.293 15.8181L26.4682 15.7202L27.4471 15.0347L27.8874 14.8385L28.475 14.7405L31.3657 15.6242Z" fill="#D2DEE6"/>
</svg>
