<?xml version="1.0" encoding="UTF-8"?>
<svg width="1200pt" height="1200pt" version="1.1" viewBox="0 0 1200 1200" xmlns="http://www.w3.org/2000/svg">
 <path d="m861.59 442.93-1.8477-9.8398-6.8398-4.7031-9.4062-5.6992v-11.125l-10.414-4.4141-11.27-5.8438-3.707-7.2734-9.4062-9.6953s-4.4141-14.832-4.4141-15.539 1.5703-23.953 1.5703-23.953l2.1367-12.973-5.8438-13.547-14.543-7.5586-16.969-19.68-16.137-24.691-5.6992 1.1406-10.98-2.2812-8.5547-4.5586h-14.547l-7.2734 3.9961 1.8477 4.4141-4.8477 3.8516-8.2695 12.551-12.695 2.4258-8.8438 6.1328-2.7109 4.1406-3.4219-0.85156-1.9922-6.2773-3.707-2.7109-7.2734-0.85156-13.98-13.547-7.1289-0.28906-5.4258 4.9922-5.9883 4.8477-6.4219-1.2852-2.2812 7.1289-5.6992 4.5586-9.2656 4.5586-12.695 10.414-10.129 9.5508-8.5547-0.85156-5.9883-3.8516 1.5703-8.2695 8.6992-15.684 4.5586-12.828-0.57422-9.4062-5.9883-8.2695 2.8555-5.4258 8.2695-19.391 3.2773-12.551-0.85156-7.7031-4.9922-8.8438 1.7148-16.262-4.1406-2.8555-12.266-1.2852-8.5547 2.1367-8.4102 3.707-6.2773-1.8477-9.9844-8.4102-1.9922-6.5625 3.5625-6.4219 5.1367-11.832v-5.4258l-12.84-14.398h-5.2812l-4.7031 9.1211-11.977-13.402-11.832 6.2773-11.27 2.8555-7.7031-3.707-1.7148 3.2773 1.7148 7.7031-2.7109 4.5586-7.9805 2.4258-11.125-4.1406-12.121 5.6992v12.266l-4.5586 6.1328h-14.688l-14.977 3.8516-9.6953 1.8477-11.41-6.1328-5.5547 3.4219-3.5625 6.2773-9.8398 9.2656-0.70703 22.668-4.9922 7.8477 1.5703 11.555 2.1367 10.691-1.8594 5.8438h-5.4258l-4.2852 2.7109-10.402-1.9922-1.4297 4.4141 7.1289 10.691 7.7031 0.43359 6.4219 14.688 1.1406 5.6992-2.8555 7.1289 1.5703 5.8438 9.6953 10.129 12.973 16.262 23.387 21.672 2.1367 7.5586-1.1406 7.9805 5.6992 10.402 3.707 8.2695 3.2773 8.8438 3.4219-0.28906 6.8398-5.6992 4.8477 7.9805-10.129 10.98-10.98 3-1.8477 15.539 1.2852 17.113 0.28906 8.8438-2.4258 3.2773-4.4141 0.28906-8.4102 5.4258-5.8438 1.2852-3.2773 6.2773 1.2852 6.707 3.707 15.539 17.543 26.102 11.27 9.2656 16.68 16.535 8.8438 11.832 2.7109 12.973 0.43359 12.695 0.28906 11.688-4.8477 7.2734 5.6992 10.547v10.691l10.836 9.5508 2.4258 6.4219 4.8477 20.102 7.1289 17.965 0.99609 7.4141-2.2812 6.707-8.125 6.707-12.828 22.105-21.395 26.809-9.2656 6.707 0.70703 14.398-2.7109 11.832-5.5547 15.395-3.8516 18.109-4.4141 10.547-5.4258 14.113-1.9922 11.977-9.2656 20.965-0.43359 20.242 4.9922 16.824 5.5547 1.5703 8.9883-6.5625 9.2656 5.1367 6.4219 12.121 12.695 8.9883 3.1328 3.707 0.57422 8.125 7.8477 2.1367 8.125 12.551 6.9844 8.6992 11.41 1.9922-0.57422 5.4258 3.8516 5.6992 5.6992 4.1406-0.99609 10.547 2.2812 4.8477 9.2656 7.9805 6.1328 8.6992 7.6094 8.6055 2.7344-14.762h3.8281l7.1055 7.3789 18.793 8.9023 8.6992-2.2812 4.7031 7.1289 1.7148 6.9844 9.1211-0.70703 5.9883 5.4258v5.8438l-0.57422 7.9805-6.4219 5.8438-1.8477 6.2773 5.1367 5.5547 7.5586 0.70703 4.4141-6.4219 13.98-4.8477 5.6992-4.1406 9.9844 10.273 8.6992-3.707 6.2773-13.836 7.8477-5.6992 2.7109-8.4102-21.109-17.113-16.402-21.254-9.2656-3.1328-23.531 3.9961-24.098-19.969h-10.273l-13.836-18.828-5.5547-16.535 5.5547-3.4219 4.8477 3.5625-2.1367 7.5586 6.8984 2.4258 4.0781 15.828 5.8438 1.9922-9.8828-35.305-7.332-33.938-5.5547-7.9805-1.8477 3.5625-10.98-10.129-4.1406-37.078-5.1367-7.9805h-8.4102l-16.402 6.707-9.5508-3.9961-0.85156-4.9922 1.7148-5.4258-7.8477-12.695-0.003906-19.375 2.4258-13.402-1.5703-12.551 4.9922-6.1328 0.43359-6.707 14.113-21.109v-9.8398l4.4141-9.2656 3.4219-19.824 9.6953-12.84 3.5625-12.695 6.4219-9.2656 3.9961-11.688-0.85156-17.543-0.57422-14.258 4.1406-14.074 3.4219-6.6016-5.6992-11.688 1.9922-8.2695 11.688-8.4102 17.543 0.57422 5.9883-4.9922 5.4258 4.8477 10.691 1.4297 6.1328 4.5586-1.4297 5.9883 2.8555 7.4141-3 7.8477-2.2812 16.117 2.8555 11.688 6.5625 0.14453 5.8438-3.8516 18.395 5.1367s14.258-4.5586 14.688-4.5586c0.43359 0 8.2695 0.28906 8.2695 0.28906l12.121 7.2734 7.4141 3.1328 6.707 9.5508 5.2812 0.14453 14.688 14.832 4.9922-4.4141 7.8477 8.2695 3.4219 11.832s10.414 11.41 10.414 10.691c0-0.70703-6.8398-17.676-6.8398-17.676l-6.8398-14.832 2.5664-12.695-16.535-16.824-0.43359-20.387-9.2656-15.121-0.85156-20.102 16.117-2.2812-0.14453-4.8477 9.5508-12.266 14.258-20.102 13.836-8.8438 23.102-6.4219 10.414 3.4219 26.23-0.85156 18.684 1.5703 19.969-4.8477 12.84 4.4141 4.4141 10.547 7.9805-3.8516 2.4258-6.4219 10.836-3.9961 8.8438-8.8438 2.1367-15.395 1.1406-14.113-2.5664-14.832 2.5664-7.1289z" fill="#1f567d"/>
 <path d="m482.22 1003.5-4.9297 5.2695 2.4727 5.375 8.7344-1.3438-3.9258-5.2695z" fill="#1f567d"/>
 <path d="m396.96 911.89-0.69531 9.1328-1.5273 4.8477 7.7656 6.2422v-10.117l1.6562-6.0977-3.7305-1.5234z" fill="#1f567d"/>
 <path d="m414 922 1.6562 4.1641 1.668-8.5938-6.6484-4.8477z" fill="#1f567d"/>
 <path d="m498.45 823.97 3.9453 7.7031 5.3047-3.418 0.86328-7.8867-7.5352-1.5352z" fill="#1f567d"/>
 <path d="m504.78 804.79-1.2852 3.418 3.6836 8.7383 2.75-9.0742z" fill="#1f567d"/>
 <path d="m497.43 795.2v-5.6523h-4.1055l-1.3789 4.1055z" fill="#1f567d"/>
 <path d="m647.84 657.98v8.4375l4.0078 2.8164 6.707-1.0781-5.3633-8.6992z" fill="#1f567d"/>
 <path d="m664.45 686.11-2.6875 3.082 4.1484 5.8945 2.2812-4.4883-1.3438-4.4883z" fill="#1f567d"/>
</svg>
