<?xml version="1.0" encoding="UTF-8"?>
<svg width="1200pt" height="1200pt" version="1.1" viewBox="0 0 1200 1200" xmlns="http://www.w3.org/2000/svg">
 <path d="m418.8 1134-1.1992 2.3984 1.1992 2.3984v-1.1992h2.3984l1.1992-1.1992 1.1992-2.3984v-3.5977l-2.3984 1.1992zm549.6-829.2v-1.1992l1.1992-3.6016v-2.3984l-1.1992-1.1992v-1.1992l1.1992-3.6016v-2.3984h-2.3984l-1.1992 1.1992h-3.5977v-1.1992l1.1992-1.1992h4.7969l1.1992-2.3984-1.1992-2.3984-4.7969-2.3984h-1.1992l-3.6016 2.3984-2.3984 6-2.3984 2.3984v-4.8008l1.1992-1.1992-1.1992-1.1992v-1.1992h2.3984l-1.1992-7.1992h1.1992l1.1992 1.1992h2.3984l1.1992-1.1992h1.1992v-3.5977l1.1992-1.1992-1.1992-1.1992v-4.7969l-1.1992-1.1992h-1.1992l-3.6016 1.1992-1.1992 1.1992v2.3984h-4.7969l1.1992-1.1992-1.1992-1.1992v-3.5977h-1.1992l-1.1992 1.1992h-1.1992v-2.3984l-1.1992-1.1992v-1.1992l2.3984-1.1992h3.5977l1.1992-1.1992v-2.3984l-1.1992-1.1992h-1.1992l2.3984-1.1992 1.1992-1.1992v-3.5977l-1.1992-3.6016v-3.5977l-1.1992-1.1992v-2.3984l-1.1992-2.3984-1.1992-8.3984v-1.1992l-2.3984-3.6016v-1.1992l4.7969-4.7969h-1.1992l-3.5977-3.5977 1.1992-1.1992v-6l2.3984-2.3984v-1.1992h-1.1992v-6l-1.1992 1.1992h-1.1992v-2.3984l2.3984-2.3984v-7.1992l-1.1992-2.3984v-3.5977l1.1992-3.6016v-3.5977h-7.1953v1.1992l1.1992 1.1992v1.1992l-1.1992 1.1992h-2.3984l-3.6016-3.6016v-3.5977l2.3984-2.3984 2.3984-1.1992h2.3984l1.1992-2.3984v-1.1992l-1.1992-1.1992h-1.1992v-1.1992h2.3984l1.1992-1.1992v-1.1992l1.1992 1.1992h2.3984l1.1992-1.1992v-2.3984h-1.1992v-3.5977h-2.3984l-1.1992-3.6016v-2.3984h1.1992l1.1992 1.1992h1.1992v-1.1992l-2.3984-1.1992h-2.3984v-6h-4.7969l-1.1992-1.1992v-1.1992l1.1992-2.3984v-2.3984h1.1992v-1.1992h-4.7969v-5.9961l-1.1992-2.3984-1.1992-1.1992h-1.1992v-1.1992h4.7969l1.1992-1.1992v-3.5977l-1.1992-2.3984v-2.3984l1.1992-3.6016v-3.5977l1.1992-1.1992-0.003907 8.3203-2.3984-2.3984-1.1992-2.3984v-4.7969l2.3984-2.3984h-1.1992l-1.1992-1.1992v-4.8008l-1.1992-1.1992v-4.7969l-1.1992-1.1992v-1.1992l1.1992-1.1992v-2.3984l-2.3984-2.3984v-1.1992l1.1992-1.1992v-1.1992l1.1992-2.3984v-7.1953h-2.3984l-4.7969-4.7969v1.1992-1.1992l-1.1992-1.1992h3.5977v-1.1992l1.1992-2.3984v-1.1992l4.8008-3.6016 1.1992-1.1992v-4.7969l3.5977-3.5977 1.1992-2.3984v-2.3984l-1.1992-1.1992h-1.1992l-1.1992 1.1992h-1.1992v-3.5977l-1.1992-2.3984 2.3984-4.7969 1.1992-1.1992 3.6016-2.3984 1.1992-1.1992-1.1992-1.1992-4.8008-2.3984-1.1992-1.1992v1.1992-2.3984l6-4.8008 2.3984-1.1992h3.5977v-1.1992h-4.7969v-4.7969h-3.5977v-2.3984l2.3984-2.3984v-1.1992l-1.1992-1.1992-2.3984 1.1992h-1.1992l1.1992-1.1992v-1.1992h-2.3984l-1.1992 2.3984-2.3984 2.3984-2.3984 1.1992-4.8008 1.1992-8.3984 8.3984-2.3984 1.1992-8.3984 7.1992-1.1992 1.1992-7.1992 3.6016-7.1992 4.8008-1.1992 1.1992-12 2.3984h-6l-1.1992 1.1992-13.199 10.801-1.1992 1.1992h-4.7969l-2.3984-1.1992h-1.1992l-2.3984 1.1992h-14.398l-2.3984 1.1992-1.1992 1.1992h-2.3984l-3.5977 3.5977h-4.7969l-1.1992 1.1992h-2.3984l-1.1992 1.1992-1.1992 2.3984-7.1992 4.8008-1.1992 2.3984-2.3984-1.1992-6-1.1992-2.3984-1.1992-3.6016-3.6016-2.3984-1.1992h-4.8008l-1.1992 1.1992h-2.3984l-1.1992-1.1992h-1.1992v-1.1992h-2.3984l-3.6016 1.1992-1.1992 1.1992h-4.7969l-4.8008 2.3984v2.3984l-1.1992 3.6016-1.1992 1.1992v1.1992l-1.1992 2.3984v5.9961l-2.3984 2.3984-4.8008 2.3984-3.6016 2.3984-1.1992 1.1992h-4.7969l-2.3984 1.1992h-2.3984v3.5977h-2.3984l-3.6016-1.1992-1.1992-1.1992h-9.5977l-6-1.1992-2.3984-1.1992-4.7969-4.7969-1.1992-2.3984-1.1992 1.1992h-9.5977l-1.1992-1.1992h-3.5977l-6 6h-2.3984l-2.3984 1.1992h-4.7969l-4.8008 1.1992h-1.1992l-1.1992-1.1992v-1.1992h-10.797l-2.3984 1.1992h-2.3984l-1.1992-1.1992h-4.7969l-1.1992-1.1992v-5.9961h-5.9961l-2.3984-1.1992-1.1992-1.1992h-2.3984l-2.3984-2.3984 1.1992-1.1992-1.1992-1.1992h-3.5977l-2.3984-1.1992h-2.3984l-4.7969 4.7969-3.6016 1.1992-1.1992 1.1992v1.1992h-1.1992l-1.1992 1.1992v2.3984h-1.1992l-3.6016 1.1992-1.1992 1.1992h-3.5977v1.1992h-37.195v7.1992l-1.1992 3.6016v6l-3.6016 7.1992-1.1992 6-1.1992 2.3984-3.6016 1.1992-1.1992 1.1992v1.1992h-1.1992l-4.7969 4.7969 1.1992 1.1992v4.7969l-1.1992 3.6016v7.1992l-1.1992 1.1992 1.1992 1.1992v1.1992l1.1992 1.1992v1.1992l3.5977 3.5977v4.7969l1.1992 1.1992v1.1992l1.1992 3.6016v1.1992l-1.1992 2.3984v6l-1.1992 2.3984v5.9961l2.3984 6 1.1992 2.3984v1.1992l-1.1992 2.3984v7.1953l-1.1992 3.6016v3.5977l1.1992 1.1992 2.3984 1.1992v8.3984l2.3984 1.1992 7.1992 6 6 6 6 7.1992 7.1992 8.3984 12 14.398 4.8008 8.3984 6 7.1992 7.1992 9.6016 4.8008 6 4.8008 4.8008v1.1992l1.1992 14.398v1.1992h2.3984l-2.3984 6-2.3984 4.8008-3.6016 8.3984v2.3984l4.7969 16.797v8.3984l-1.1992 8.3984v6l-1.1992 10.801-1.1992 4.8008v4.7969l-2.3984 2.3984-4.8008 3.6016h-4.7969l-7.1992 2.3984h-1.1992v2.3984h-2.3984v-1.1992l-1.1992-1.1992h-3.5977l-8.3984 8.3984-1.1992 2.3984v4.8008l1.1992 2.3984v1.1992l-1.1992 2.3984v4.7969l-1.1992 1.1992-4.8008 3.6016-1.1992 1.1992 1.1992 3.6016 1.1992 1.1992v2.3984h3.5977v1.1992l1.1992 2.3984v6l1.1992 2.3984v2.3984l-1.1992 1.1992v3.5977l2.3984 1.1992v2.3984l-1.1992 1.1992v1.1992l1.1992 2.3984v4.7969h-14.402l-1.1992-1.1992v-2.3984l-2.3984-3.6016v-2.3984l3.5977-3.5977 1.1992-2.3984v-4.7969l-1.1992-2.3984-1.1992-1.1992h-7.1953l-2.3984-1.1992-1.1992-1.1992v-1.1992l-1.1992-1.1992h-1.1992v-1.1992l-1.1992-1.1992h-1.1992l-2.3984-2.3984v-2.3984l-3.6016-2.3984-1.1992-1.1992-1.1992-2.3984-1.1992-1.1992-4.8008-2.3984-1.1992-2.3984v-1.1992l-2.3984-1.1992-2.3984-2.3984-2.3984-4.8008-1.1992-1.1992h-6l-1.1992-1.1992-2.3984-6v-2.3984l1.1992-4.8008v-2.3984l-8.3984-8.3984-2.3984-1.1992-1.1992-1.1992-1.1992-2.3984v-4.7969l4.7969-4.7969h3.5977l4.8008-6 1.1992-2.3984v-2.3984l-1.1992-4.8008v-2.3984l2.3984-2.3984 1.1992-2.3984 1.1992-1.1992v-4.7969l1.1992-1.1992h2.3984l1.1992-1.1992 1.1992-2.3984v-2.3984l-1.1992-10.801v-1.1992l1.1992-1.1992v-4.7969l1.1992-2.3984v-3.5977l-2.3984-2.3984v-9.5977l-3.5977-7.1953 1.1992-4.8008v-2.3984l-1.1992-2.3984-3.6016-3.6016-1.1992-2.3984-2.3984-4.8008-1.1992-2.3984-2.3984-1.1992h-2.3984l-7.1992 2.3984h-4.8008l-2.3984 1.1992v1.1992l-1.1992 1.1992-7.1992-1.1992h-4.7969l-3.6016 2.3984-2.3984 1.1992h-2.3984l-3.6016-2.3984h-1.1992l-1.1992 1.1992-1.1992 2.3984v3.5977h-2.3984l-1.1992-1.1992v-1.1992l-1.1992-3.6016v-1.1992l-1.1992-1.1992-2.3984-1.1992-1.1992-1.1992v-3.5977l-1.1992-1.1992-2.3984-1.1992-2.3984-2.3984-3.6016-7.1992-1.1992-1.1992-1.1992-2.3984h-1.1992l-1.1992-1.1992v-1.1992l-1.1992-2.3984v-4.8008l-1.1992-2.3984-1.1992-1.1992-3.6016-2.3984-4.8008 1.1992-6 2.3984-8.3984 2.3984-24 7.2031-10.801 3.6016-7.1992 2.3984-6 2.3984-6 1.1992-2.3984 1.1992-4.8008 2.3984-7.1992 2.3984-19.203 7.2031-4.8008 2.3984-6 3.6016-6 2.3984-7.1992 1.1992-8.3984 2.3984-7.1992 1.1992h-1.1992l-9.6016 2.3984-7.1992 1.1992-9.6016 3.6016-6 2.3984-7.1992 2.3984-6 3.6016-4.8008 2.3984-6 1.1992h-1.1992v9.6016l2.3984 8.3984 1.1992 3.6016 2.3984 1.1992h1.1992l2.3984 2.3984v8.3984l1.1992 1.1992v2.3984l-1.1992 2.3984v2.3984l2.3984 2.3984 1.1992 2.3984h-1.1992v26.398h30l3.6016 1.1992 4.7969 4.7969h1.1992l3.5977-3.5977h1.1992v-1.1992l1.1992-1.1992h3.6016l7.1992 1.1992h1.1992l2.3984 2.3984 1.1992 2.3984 2.3984 2.3984h1.1992v2.3984h3.5977l1.1992 1.1992 2.3984 1.1992 12 1.1992 1.1992 1.1992 2.3984 1.1992 3.6016 4.8008 1.1992 1.1992 2.3984 1.1992 2.3984 2.3984v3.5977h1.1992l7.1992 1.1992h13.199l6 1.1992 7.1992 2.3984 10.801 4.8008 8.3984 3.6016 1.1992 1.1992v2.3984l1.1992 2.3984 2.3984 1.1992h4.7969l4.8008 1.1992h3.5977l2.3984-1.1992h2.3984v2.3984l-2.3984 7.1992-1.1992 2.3984-6 6 3.6016 7.1992 2.3984 4.8008 1.1992 3.6016 1.1992 4.8008v4.8008l2.3984 2.3984v3.5977l-1.1992 2.3984-2.3984 4.8008h-1.1992v1.1992l1.1992 2.3984 1.1992 1.1992 2.3984 1.1992 1.1992 1.1992v2.3984l-1.1992 2.3984v8.3984l-1.1992 1.1992h-1.1992l-1.1992 1.1992v3.5977l1.1992 2.3984v3.5977l1.1992 1.1992v3.5977l2.3984 7.1992v2.3984l-1.1992 1.1992v3.5977l1.1992 1.1992 3.6016 2.3984 1.1992 1.1992v2.3984l-2.3984 1.1992-1.1992 2.3984v1.1992l1.1992 1.1992v2.3984l-4.7969 4.7969h-2.3984l-1.1992 1.1992v2.3984l1.1992 2.3984 2.3984 3.6016v7.1953l-2.3984 2.3984h-7.1953l-7.1992 3.6016v6h1.1992-2.3984l-1.1992 1.1992v5.9961h2.3984l4.8008-1.1992h2.3984v2.3984h1.1992v3.5977l-2.3984 9.6016v4.7969l-3.5977 3.5977v7.1953l1.1992 1.1992h3.5977v15.594l1.1992 1.1992h3.5977l2.3984-2.3984h1.1992l1.1992 1.1992v4.7969l4.7969 4.7969v6l-1.1992 4.8008v7.1992h-3.6016l-1.1992 1.1992v3.5977h-2.3984l-1.1992 1.1992v4.8008l-1.1992 1.1992v7.1953l-3.6016 3.6016-4.8008 6-4.7969 9.6016-1.1992 2.3984h-9.6016l-2.3984 2.3984-1.1992 3.6016v3.6016l1.1992 8.3984 1.1992 7.1992v2.3984l-1.1992 3.6016-3.6016 4.8008-4.8008 7.1992v1.1992l2.3984 2.3984 4.8008 8.3984v1.1992l-2.3984-1.1992-67.227 67.227-4.8008 3.6016-6 3.6016-1.1992 1.1992 3.6016 9.6016 7.2031 21.602 2.3984 8.3984 4.8008 14.398v2.3984l-1.1992 16.801v3.6016l1.1992 2.3984 7.1992 7.1992 1.1992 2.3984 2.3984 9.6016 2.3984 7.1992 2.3984 2.3984 4.8008 3.6016 1.1992 1.1992v18l6 14.398 1.1992 6v73.203l-1.1992 3.6016v7.1953l1.1992 1.1992v1.1992l1.1992 4.8008v2.3984h-1.1992l-1.1992 1.1992v1.1992l-2.3984 7.1992v4.7969l2.3984 8.3984 1.1992 1.1992 2.3984 1.1992 4.8008 1.1992-1.1992 2.3984v2.3984l1.1992 2.3984v4.7969l-2.3984 6v2.3984l1.1992 8.3984v2.3984l3.6016 7.1992 1.1992 6v20.398h8.3984l4.8008 1.1992 3.6016 1.1992h37.199v-1.1992l-1.1992-1.1992v-1.1992l1.1992-2.3984v-12l1.1992-1.1992 1.1992-6 1.1992-21.602 1.1992-12v-2.3984l-2.3984 1.1992-1.1992 1.1992v1.1992l-1.1992 3.6016-1.1992 2.3984v4.7969l1.1992 2.3984h-4.7969l-3.5977-3.5977-1.1992-2.3984-2.3984-2.3984h-1.1992l-1.1992 1.1992v-1.1992l-1.1992-3.6016v-3.5977l-1.1992-1.1992v-1.1992l-1.1992-1.1992h-2.3984v-1.1992h-2.3984v2.3984h-1.1992l-1.1992-1.1992v-1.1992l2.3984-2.3984h3.5977l1.1992 1.1992h2.3984l2.3984-1.1992v-1.1992l3.6016-3.6016v-5.9961h1.1992v-1.1992 1.1992-4.8008l1.1992-1.1992 1.1992-4.8008 1.1992-3.6016 3.6016-4.8008 2.3984-2.3984 19.199-13.199 3.6016-1.1992 2.3984-2.3984h-1.1992v-1.1992h2.3984l1.1992-1.1992v-1.1992l2.3984-1.1992h1.1992v1.1992l-2.3984 2.3984h-1.1992l2.3984-1.1992 10.801-6 8.3984-2.3984 9.6016-4.8008 14.398-4.8008 15.602-6 3.6016-1.1992 7.1992-3.6016h2.3984l9.6016-3.6016 12-2.3984 10.801-6 20.398-10.801 4.8008-4.8008v-4.7969l8.3984-8.3984 10.801-15.602 1.1992-1.1992v-3.5977l-1.1992-1.1992v-2.3984l3.6016-13.199v-3.6016l-1.1992-1.1992-2.3984-1.1992v7.1992h-1.1992l-1.1992-1.1992-2.3984-1.1992-1.1992-1.1992h-1.1992l-1.1992 1.1992v1.1992l1.1992 2.3984-3.6016 3.6016h-1.1992v-1.1992l1.1992-1.1992v-11.992l1.1992-2.3984v-3.5977h-1.1992v-1.1992h2.3984v3.5977l1.1992 1.1992 1.1992-1.1992v-8.3984l1.1992-9.6016 3.6016-12v-4.8008l-1.1992-2.3984v-3.5977l1.1992-2.3984 2.3984-7.1992 1.1992-2.3984 2.3984-4.8008v-2.3984l-1.1992-1.1992v1.1992h-2.3984v1.1992l-1.1992 1.1992-1.1992-2.3984-2.3984-16.801v-9.6016l3.6016-12v-7.1992l1.1992-9.6016v1.1992l-1.1992 1.1992v6l-1.1992-12v-3.5977h-2.3984v1.1992l-1.1992 2.3984v1.1992h1.1992l1.1992 3.6016-1.1992 1.1992h-1.1992l-1.1992-2.3984v1.1992l-1.1992 2.3984v3.6016l1.1992 3.6016 1.1992 2.3984-1.1992 1.1992v6l-1.1992-1.1992-1.1992-2.3984-1.1992-1.1992h-1.1992l-1.1992-1.1992v-6l2.3984-19.199-1.1992-6-1.1992-3.6016v-6l-2.3984-4.8008-1.1992-3.6016v-9.6016l-2.3984-4.8008h-1.1992l-1.1992-1.1992-4.8008-7.1992-2.3984-6v-6l1.1992-2.3984v-6l-2.3984 8.3984-1.1992 2.3984v-4.8008l-1.1992-1.1992h-1.1992l1.1992-1.1992h2.3984v-1.1992h-1.1992v-1.1992h-1.1992v-2.3984l-1.1992-1.1992h-1.1992v-2.3984h1.1992l1.1992-1.1992v-4.7969h3.5977v-3.5977h-1.1992v-1.1992l-1.1992-1.1992h-1.1992l-2.3984 1.1992v-4.7969l-3.5977-3.5977v-2.3984l1.1992-1.1992v-1.1992h-2.3984v-4.7969l-2.3984-2.3984v-1.1992h-6v1.1992-1.1992l2.3984-2.3984v-1.1992h-1.1992l-2.3984 1.1992v-4.7969l-2.3984-2.3984h-1.1992l-1.1992-1.1992v-1.1992l-1.1992 1.1992v-3.5977h-2.3984l-2.3984 1.1992v-1.1992l2.3984-2.3984v-3.5977h-2.3984l-1.1992-1.1992v-4.7969l1.1992 1.1992h2.3984l1.1992-1.1992v-1.1992l-1.1992-1.1992v-1.1992l1.1992-1.1992v-1.1992l1.1992-2.3984v-2.3984l-4.8008-2.3984-1.1992-1.1992v1.1992h3.5977l2.3984 1.1992h1.1992v-7.1953l-1.1992-1.1992v-13.191h-4.7969v-1.1992h1.1992l1.1992-1.1992 1.1992-2.3984v-3.5977l-1.1992-2.3984-1.1992-1.1992h-3.5977l-3.6016-4.8008v-3.5977l-1.1992-1.1992h-3.5977l-1.1992 1.1992h-1.1992 1.1992l1.1992-2.3984h5.9961v3.5977h1.1992v1.1992l2.3984 3.6016h1.1992l3.6016 1.1992 2.3984 2.3984v4.7969l2.3984 1.1992 3.6016-2.3984 2.3984-2.3984h1.1992l1.1992 1.1992 2.3984-1.1992 3.6016-3.6016h1.1992l2.3984-1.1992 7.1992-7.1992 8.3984-6 7.1992-7.1992 3.6016-4.8008v-2.3984h1.1992l3.6016-3.6016v-1.1992h-1.1992l3.6016-3.6016 4.7969-2.3984h-1.1992l1.1992-2.3984 1.1992-1.1992h1.1992l3.5977-3.5977 9.6016-7.1992v-1.1992h-1.1992v-2.3984h2.3984l2.3984 2.3984h1.1992l1.1992-1.1992v-3.5977l1.1992-1.1992h1.1992v2.3984h2.3984l1.1992-1.1992 3.6016-4.8008 2.3984-2.3984h2.3984v6l1.1992 1.1992h2.3984l2.3984-1.1992h4.7969v-1.1992h-1.1992l1.1992-2.3984v-2.3984l-1.1992-4.8008v-2.3984l2.3984 4.8008 1.1992 1.1992h1.1992l1.1992 1.1992h4.7969l1.1992-1.1992-1.1992-1.1992v-1.1992h-1.1992v-2.3984 2.3984l1.1992-1.1992 2.3984-6 1.1992-1.1992v-2.3984h3.5977v-1.1992l1.1992 1.1992v-3.5977h2.3984l3.6016-2.3984 6-7.1992 2.3984-2.3984 4.8008-6 1.1992-1.1992h-1.1992l-2.3984 1.1992h-1.1992l1.1992-2.3984 2.3984-2.3984h3.5977v-3.5977l1.1992-2.3984 1.1992-1.1992 2.3984-3.6016h-1.1992l-1.1992-1.1992h-3.5977v-5.9961l-1.1992-2.3984-1.1992-1.1992-2.3984 1.1992 1.1992-2.3984h2.3984l2.3984 1.1992 1.1992 1.1992v3.5977l1.1992 1.1992h2.3984l2.3984 2.3984v1.1992l2.3984-2.3984 4.8008-8.3984 7.1992-7.1992v-2.3984h1.1992l2.3984-1.1992 2.3984-2.3984v-1.1992h5.9961l1.1992-1.1992 1.1992 1.1992h1.1992l3.5977-3.5977 8.3984-4.8008 1.1992-2.3984h2.3984l5.9961-5.9961v1.1992h1.1992l8.3984-6 3.6016-2.3984 14.402-3.5977 1.1992-1.1992-1.1992-1.1992 1.1992-1.1992-3.5977-3.5977h4.7969v-1.1992l1.1992 1.1992v4.8008l1.1992 1.1992h1.1992l1.1992-1.1992 1.1992-2.3984 1.1992-1.1992 19.199-8.3984v-1.1992h2.3984l3.6016-3.6016v1.1992h2.3984l2.3984-1.1992 1.1992-1.1992-1.1992-2.3984h1.1992l1.1992 1.1992h1.1992l10.801-1.1992 2.3984-1.1992 3.6016-2.3984h8.3945l2.3984-2.3984v-2.3984h-3.5977 1.1992l2.3984-2.3984v-1.1992l1.1992 1.1992 4.7969-4.7969 10.801-7.1992 12-6 1.1992-1.1992h1.1992l7.1953-3.5977 3.5977-3.5977h1.1992l2.3984-1.1992-1.1992-1.1992h4.7969v1.1992h1.1992l3.6016-2.3984-3.5977-3.5977v-4.7969h-1.1992v-1.1992l2.3984-1.1992 4.8008-2.3984h6l2.3984-1.1992 2.3984-2.3984 2.3984-6 3.5977-3.5977v-2.3984l1.1992-1.1992v-2.3984l-3.5977 3.5977-1.1992-1.1992v-1.1992h4.7969v-3.5977l2.3984-1.1992 14.398-14.398 4.8008-7.1992 4.7969-4.7969v-2.3984h3.5977l2.3984-2.3984v-2.3984h-1.1992v-4.7969l1.1992-1.1992v-3.5977l2.3984-2.3984v-1.1992l-1.1992-1.1992 1.1992-1.1992v-4.7969l-2.3984-2.3984h-1.1992l-1.1992 1.1992-1.1992 2.3984-1.1992-1.1992h-3.5977v-4.7969h4.7969l1.1992-2.3984 2.3984-1.1992h2.3984l2.3984-1.1992-2.3984-3.6016-1.1992-2.3984 1.1992-1.1992 3.6016 1.1992h3.5977l1.1992 1.1992v-2.3984l-2.3984-2.3984h-6l-1.1992-1.1992v-3.5977l1.1992 1.1992 1.1992 2.3984h2.3984l4.7969-4.7969v-1.1992l3.6016-1.1992zm-565.2 60-2.3984-1.1992-2.3984-2.3984h-1.1992l-2.3984 1.1992h-3.5977v2.3984h-4.7969l-2.3984-1.1992-3.5977 3.5977v1.1992h-7.1953v1.1992l-1.1992 1.1992h-4.7969l-4.8008 1.1992h-1.1992v2.3984h-2.3984l-2.3984-1.1992h-4.8008l-1.1992-1.1992h-2.3984l-1.1992-1.1992h-1.1992l-2.3984-1.1992h-2.3984l-1.1992 1.1992-2.3984 1.1992h-2.3984l-8.3984 1.1992h-2.3984l-2.3984-2.3984h-1.1992v1.1992h-1.1992l-1.1992-1.1992v-1.1992h-3.5977v2.3984h-4.7969l-1.1992-1.1992v2.3984h-1.1992l-2.3984-2.3984v3.5977l-1.1992-1.1992h-3.5977 1.1992v1.1992l-3.5977 3.5977-2.3984 1.1992-1.1992 1.1992-2.3984 3.6016v-5.9961h4.7969v-4.7969l-1.1992 1.1992h-2.3984l-6-1.1992-3.6016-1.1992h-2.3984l-2.3984-1.1992h-4.8008l-2.3984-1.1992h-3.5977l-1.1992-1.1992 1.1992-1.1992h1.1992l12 3.6016h2.3984l3.6016 1.1992h5.9961l2.3984-2.3984 2.3984 1.1992v-1.1992h1.1992l1.1992-2.3984h2.3984l1.1992-1.1992v-2.3984h7.1992l1.1992 1.1992h4.7969l1.1992-1.1992h4.7969v1.1992-1.1992h2.3984v3.5977l2.3984-2.3984h1.1992l10.801-1.1992h1.1992l2.3984-1.1992h2.3984l1.1992 1.1992h1.1992l2.3984-2.3984 1.1992 1.1992 4.7969 2.3984h1.1992l1.1992-1.1992h6l7.1992-1.1992h1.1992l2.3984-2.3984h3.5977v1.1992l2.3984 1.1992h2.3984l1.1992-1.1992h1.1992l1.1992 1.1992h5.9961v-1.1992h2.3984l1.1992-1.1992h3.5977l1.1992-1.1992v2.3984h1.1992zm193.2 430.8-1.1992 1.1992-2.3984 9.6016-1.1992 6v2.3984h1.1992l2.3984-10.801v-4.8008z" fill="#1f567d"/>
</svg>
