<svg width="109" height="109" viewBox="0 0 109 109" fill="none" xmlns="http://www.w3.org/2000/svg">
<g clip-path="url(#clip0_259_203)">
<path d="M38.041 103.005L37.9321 103.223L38.041 103.441V103.332H38.2589L38.3678 103.223L38.4768 103.005V102.678L38.2589 102.787L38.041 103.005ZM87.963 27.686V27.5771L88.072 27.2499V27.0321L87.963 26.9232V26.8142L88.072 26.4871V26.2692H87.8541L87.7452 26.3782H87.4184V26.2692L87.5273 26.1603H87.963L88.072 25.9424L87.963 25.7246L87.5273 25.5067H87.4184L87.0912 25.7246L86.8734 26.2696L86.6555 26.4874V26.0514L86.7645 25.9424L86.6555 25.8335V25.7246H86.8734L86.7645 25.0707H86.8734L86.9823 25.1796H87.2002L87.3091 25.0707H87.418V24.7439L87.527 24.6349L87.418 24.526V24.0903L87.3091 23.9814H87.2002L86.873 24.0903L86.7641 24.1992V24.4171H86.3284L86.4373 24.3082L86.3284 24.1992V23.8724H86.2195L86.1105 23.9814H86.0016V23.7635L85.8927 23.6546V23.5457L86.1105 23.4367H86.4373L86.5462 23.3278V23.1099L86.4373 23.001H86.3284L86.5462 22.8921L86.6552 22.7832V22.4564L86.5462 22.1292V21.8024L86.4373 21.6935V21.4757L86.3284 21.2578L86.2195 20.4949V20.386L86.0016 20.0589V19.9499L86.4373 19.5142H86.3284L86.0016 19.1874L86.1105 19.0785V18.5335L86.3284 18.3157V18.2067H86.2195V17.6617L86.1105 17.7707H86.0016V17.5528L86.2195 17.3349V16.681L86.1105 16.4632V16.1364L86.2195 15.8092V15.4824H85.5659V15.5914L85.6748 15.7003V15.8092L85.5659 15.9181H85.348L85.0209 15.591V15.2642L85.2387 15.0464L85.4566 14.9374H85.6745L85.7834 14.7196V14.6106L85.6745 14.5017H85.5655V14.3928H85.7834L85.8923 14.2839V14.1749L86.0012 14.2839H86.2191L86.328 14.1749V13.9571H86.2191V13.6303H86.0012L85.8923 13.3031V13.0853H86.0012L86.1102 13.1942H86.2191V13.0853L86.0012 12.9764H85.7834V12.4314H85.3477L85.2387 12.3224V12.2135L85.3477 11.9957V11.7778H85.4566V11.6689H85.0209V11.1242L84.9119 10.9064L84.803 10.7974H84.6941V10.6885H85.1298L85.2387 10.5796V10.2528L85.1298 10.0349V9.81709L85.2387 9.48994V9.16315L85.3477 9.05422L85.3473 9.80998L85.1295 9.59213L85.0205 9.37427V8.93856L85.2384 8.7207H85.1295L85.0205 8.61177V8.1757L84.9116 8.06677V7.63105L84.8027 7.52213V7.4132L84.9116 7.30427V7.08642L84.6937 6.86856V6.75964L84.8027 6.65071V6.54178L84.9116 6.32393V5.67035H84.6937L84.258 5.23463L84.1491 5.12571H84.4759V5.01678L84.5848 4.79893V4.69L85.0209 4.36285L85.1298 4.25393V3.81821L85.4566 3.49142L85.5655 3.27356V3.05571L85.4566 2.94678H85.3477L85.2388 3.05571H85.1298V2.72892L85.0209 2.51106L85.2388 2.07534L85.3477 1.96641L85.6748 1.74856L85.7838 1.63963L85.6748 1.53071L85.2388 1.31285L85.1298 1.20392V1.31285V1.095L85.6748 0.658923L85.8927 0.549996H86.2195V0.441069H85.7838V0.00535029H85.457V-0.212504L85.6748 -0.430359V-0.539286L85.5659 -0.648214L85.348 -0.539286H85.2391L85.348 -0.648214V-0.757141H85.1302L85.0213 -0.539286L84.8034 -0.321432L84.5856 -0.212504L84.1495 -0.103577L83.3866 0.659278L83.1688 0.768205L82.4059 1.42213L82.297 1.53106L81.6431 1.85821L80.9891 2.29428L80.8802 2.40321L79.7902 2.62106H79.2452L79.1363 2.72999L77.9374 3.71108L77.8284 3.82001H77.3927L77.1749 3.71108H77.0659L76.8481 3.82001H75.5403L75.3224 3.92893L75.2135 4.03786H74.9956L74.6688 4.36465H74.2331L74.1242 4.47358H73.9063L73.7974 4.58251L73.6885 4.80036L73.0346 5.23643L72.9256 5.45429L72.7078 5.34536L72.1628 5.23643L71.9449 5.12751L71.6178 4.80036L71.3999 4.69143H70.9638L70.8549 4.80036H70.6371L70.5281 4.69143H70.4192V4.58251H70.2014L69.8742 4.69143L69.7653 4.80036H69.3296L68.8935 5.01822V5.23607L68.7846 5.56322L68.6756 5.67214V5.78107L68.5667 5.99892V6.54357L68.3489 6.76143L67.9128 6.97928L67.5856 7.19713L67.4767 7.30606H67.041L66.8231 7.41499H66.6053V7.74178H66.3874L66.0603 7.63285L65.9514 7.52393H65.0796L64.5346 7.415L64.3167 7.30607L63.881 6.87035L63.7721 6.6525L63.6631 6.76143H62.7913L62.6824 6.6525H62.3556L61.8106 7.1975H61.5928L61.3749 7.30643H60.9392L60.5031 7.41535H60.3942L60.2853 7.30643V7.1975H59.3045L59.0867 7.30643H58.8688L58.7599 7.1975H58.3242L58.2153 7.08857V6.54392H57.6706L57.4528 6.435L57.3438 6.32607H57.126L56.9081 6.10822L57.0171 5.99929L56.9081 5.89036H56.5813L56.3635 5.78143H56.1456L55.7099 6.21715L55.3828 6.32608L55.2738 6.43501V6.54393H55.1649L55.056 6.65286V6.87072H54.9471L54.6199 6.97964L54.511 7.08857H54.1842V7.1975H50.8056V7.85143L50.6967 8.17857V8.72357L50.3696 9.3775L50.2606 9.9225L50.1517 10.1404L49.8246 10.2493L49.7156 10.3582V10.4671H49.6067L49.171 10.9029L49.2799 11.0118V11.4475L49.171 11.7746V12.4286L49.0621 12.5375L49.171 12.6464V12.7554L49.2799 12.8643V12.9732L49.6067 13.3V13.7357L49.7156 13.8446V13.9536L49.8246 14.2807V14.3896L49.7156 14.6075V15.1525L49.6067 15.3704V15.915L49.8246 16.46L49.9335 16.6779V16.7868L49.8246 17.0046V17.6582L49.7156 17.9854V18.3121L49.8246 18.4211L50.0424 18.53V19.2929L50.2603 19.4018L50.9142 19.9468L51.4592 20.4918L52.0042 21.1457L52.6581 21.9086L53.7481 23.2164L54.1842 23.9792L54.7292 24.6332L55.3831 25.5053L55.8192 26.0503L56.2553 26.4864V26.5953L56.3642 27.9031V28.0121H56.5821L56.3642 28.5571L56.1464 28.9931L55.8192 29.756V29.9738L56.2549 31.4996V32.2624L56.146 33.0253V33.5703L56.0371 34.5514L55.9281 34.9874V35.4232L55.7103 35.641L55.2742 35.9682H54.8385L54.1846 36.186H54.0756V36.4039H53.8578V36.2949L53.7489 36.186H53.4221L52.6592 36.9489L52.5503 37.1667V37.6028L52.6592 37.8207V37.9296L52.5503 38.1474V38.5832L52.4414 38.6921L52.0053 39.0192L51.8964 39.1282L52.0053 39.4553L52.1142 39.5642V39.7821H52.441V39.891L52.5499 40.1089V40.6539L52.6589 40.8717V41.0896L52.5499 41.1985V41.5253L52.7678 41.6342V41.8521L52.6589 41.961V42.0699L52.7678 42.2878V42.7235H51.4596L51.3507 42.6146V42.3967L51.1328 42.0696V41.8517L51.4596 41.5249L51.5685 41.3071V40.8714L51.4596 40.6535L51.3507 40.5446H50.6971L50.4793 40.4356L50.3703 40.3267V40.2178L50.2614 40.1089H50.1525V39.9999L50.0435 39.891H49.9346L49.7168 39.6732V39.4553L49.3896 39.2374L49.2807 39.1285L49.1718 38.9107L49.0628 38.8017L48.6268 38.5839L48.5178 38.366V38.2571L48.3 38.1482L48.0821 37.9303L47.8643 37.4942L47.7554 37.3853H47.2104L47.1014 37.2764L46.8836 36.7314V36.5135L46.9925 36.0775V35.8596L46.2296 35.0968L46.0118 34.9878L45.9029 34.8789L45.7939 34.661V34.2253L46.2297 33.7896H46.5564L46.9925 33.2446L47.1014 33.0267V32.8089L46.9925 32.3728V32.155L47.2104 31.9371L47.3193 31.7193L47.4282 31.6103V31.1746L47.5372 31.0657H47.755L47.8639 30.9568L47.9729 30.7389V30.521L47.8639 29.54V29.431L47.9729 29.3221V28.8864L48.0818 28.6685V28.3417L47.8639 28.1239V27.2521L47.5371 26.5985L47.6461 26.1624V25.9446L47.5371 25.7267L47.21 25.3996L47.1011 25.1817L46.8832 24.7457L46.7743 24.5278L46.5564 24.4189H46.3386L45.6847 24.6367H45.2486L45.0307 24.7457V24.8546L44.9218 24.9635L44.2679 24.8546H43.8321L43.505 25.0724L43.2871 25.1814H43.0693L42.7421 24.9635H42.6332L42.5243 25.0724L42.4154 25.2903V25.6171H42.1975L42.0886 25.5082V25.3992L41.9797 25.0721V24.9632L41.8707 24.8542L41.6529 24.7453L41.5439 24.6364V24.3096L41.435 24.2007L41.2172 24.0917L40.9993 23.8739L40.6722 23.22L40.5632 23.111L40.4543 22.8932H40.3454L40.2365 22.7842V22.6753L40.1275 22.4575V22.0214L40.0186 21.8035L39.9097 21.6946L39.5825 21.4768L39.1465 21.5857L38.6015 21.8035L37.8386 22.0214L35.6586 22.6757L34.6775 23.0028L34.0236 23.2207L33.4786 23.4385L32.9336 23.5475L32.7157 23.6564L32.2797 23.8742L31.6257 24.0921L29.8815 24.7464L29.4454 24.9642L28.9004 25.2914L28.3554 25.5092L27.7015 25.6182L26.9386 25.836L26.2847 25.9449H26.1757L25.3036 26.1628L24.6497 26.2717L23.7775 26.5989L23.2325 26.8167L22.5786 27.0346L22.0336 27.3617L21.5975 27.5796L21.0525 27.6885H20.9436V28.5606L21.1615 29.3235L21.2704 29.6506L21.4882 29.7596H21.5972L21.815 29.9774V30.7403L21.9239 30.8492V31.0671L21.815 31.2849V31.5028L22.0329 31.7206L22.1418 31.9385H22.0329V34.3363H24.7579L25.085 34.4452L25.5207 34.881H25.6297L25.9565 34.5542H26.0654V34.4452L26.1743 34.3363H26.5015L27.1554 34.4452H27.2643L27.4822 34.6631L27.5911 34.8809L27.809 35.0988H27.9179V35.3167H28.2447L28.3536 35.4256L28.5715 35.5345L29.6615 35.6434L29.7704 35.7524L29.9882 35.8613L30.3154 36.2974L30.4243 36.4063L30.6422 36.5152L30.86 36.7331V37.0599H30.9689L31.6229 37.1688H32.8218L33.3668 37.2777L34.0207 37.4956L35.0018 37.9316L35.7647 38.2588L35.8736 38.3677V38.5856L35.9825 38.8034L36.2004 38.9123H36.6361L37.0722 39.0213H37.3989L37.6168 38.9123H37.8347V39.1302L37.6168 39.7841L37.5079 40.002L36.9629 40.547L37.29 41.2009L37.5079 41.637L37.6168 41.9641L37.7257 42.4002V42.8363L37.9436 43.0541V43.3809L37.8347 43.5988L37.6168 44.0349H37.5079V44.1438L37.6168 44.3616L37.7257 44.4706L37.9436 44.5795L38.0525 44.6884V44.9063L37.9436 45.1241V45.887L37.8347 45.9959H37.7257L37.6168 46.1048V46.4316L37.7257 46.6495V46.9763L37.8347 47.0852V47.412L38.0525 48.0659V48.2838L37.9436 48.3927V48.7195L38.0525 48.8284L38.3797 49.0463L38.4886 49.1552V49.3731L38.2707 49.482L38.1618 49.6998V49.8088L38.2707 49.9177V50.1355L37.835 50.5713H37.6172L37.5082 50.6802V50.898L37.6172 51.1159L37.835 51.443V52.0966L37.6172 52.3145H36.9636L36.3097 52.6416V53.1866H36.4186H36.2007L36.0918 53.2955V53.8402H36.3097L36.7457 53.7313H36.9636V53.9491H37.0725V54.2759L36.8547 55.1481V55.5838L36.5279 55.9106V56.5641L36.6368 56.6731H36.9636V58.0895L37.0725 58.1984H37.3993L37.6172 57.9806H37.7261L37.835 58.0895V58.5252L38.2707 58.961V59.506L38.1618 59.942V60.596H37.8347L37.7257 60.7049V61.0317H37.5079L37.3989 61.1406V61.5767L37.29 61.6856V62.3392L36.9629 62.6663L36.5268 63.2113L36.0911 64.0835L35.9822 64.3013H35.11L34.8922 64.5192L34.7832 64.8463V65.1735L34.8922 65.9363L35.0011 66.5902V66.8081L34.8922 67.1353L34.565 67.5713L34.1289 68.2253V68.3342L34.3468 68.552L34.7829 69.3149V69.4238L34.565 69.3149L28.4586 75.4213L28.0225 75.7485L27.4775 76.0756L27.3686 76.1846L27.6957 77.0567L28.35 79.0189L28.5678 79.7817L29.0039 81.0896V81.3074L28.895 82.8335V83.1607L29.0039 83.3785L29.6578 84.0324L29.7668 84.2503L29.9846 85.1224L30.2025 85.7764L30.4203 85.9942L30.8564 86.3214L30.9653 86.4303V88.0653L31.5103 89.3731L31.6193 89.9181V96.5674L31.5103 96.8945V97.5481L31.6193 97.657V97.7659L31.7282 98.202V98.4199H31.6193L31.5103 98.5288V98.6377L31.2925 99.2917V99.7274L31.5103 100.49L31.6193 100.599L31.8371 100.708L32.2732 100.817L32.1643 101.035V101.253L32.2732 101.471V101.906L32.0553 102.451V102.669L32.1643 103.432V103.65L32.4914 104.304L32.6003 104.849V106.702H33.3632L33.7993 106.811L34.1264 106.919H37.5053V106.811L37.3964 106.702V106.593L37.5053 106.375V105.285L37.6142 105.176L37.7232 104.631L37.8321 102.669L37.941 101.579V101.361L37.7232 101.47L37.6142 101.579V101.688L37.5053 102.015L37.3964 102.233V102.668L37.5053 102.886H37.0696L36.7428 102.559L36.6339 102.342L36.416 102.124H36.3071L36.1982 102.233V102.124L36.0892 101.797V101.47L35.9803 101.361V101.252L35.8714 101.143H35.6535V101.034H35.4357V101.252H35.3267L35.2178 101.143V101.034L35.4357 100.816H35.7625L35.8714 100.925H36.0892L36.3071 100.816V100.707L36.6342 100.38V99.8355H36.7432V99.3994L36.8521 99.2905L36.961 98.8544L37.07 98.5273L37.3971 98.0912L37.615 97.8734L39.3589 96.6744L39.686 96.5655L39.9039 96.3477H39.7949V96.2387H40.0128L40.1217 96.1298V96.0209L40.3396 95.912H40.4485V96.0209L40.2306 96.2387H40.1217L40.3396 96.1298L41.3207 95.5848L42.0835 95.367L42.9557 94.9309L44.2635 94.4948L45.6807 93.9498L46.0078 93.8409L46.6617 93.5137H46.8796L47.7517 93.1866L48.8417 92.9687L49.8228 92.4237L51.6756 91.4426L52.1117 91.0066V90.5709L52.8746 89.808L53.8557 88.3908L53.9646 88.2819V87.9551L53.8557 87.8462V87.6283L54.1828 86.4294V86.1023L54.0739 85.9933L53.856 85.8844V86.5383H53.7471L53.6382 86.4294L53.4203 86.3205L53.3114 86.2115H53.2025L53.0935 86.3205V86.4294L53.2025 86.6473L52.8753 86.9744H52.7664V86.8655L52.8753 86.7565V85.6673L52.9842 85.4494V85.1226H52.8753V85.0137H53.0932V85.3405L53.2021 85.4494L53.311 85.3405V84.5776L53.4199 83.7055L53.7471 82.6155V82.1794L53.6382 81.9616V81.6348L53.7471 81.4169L53.965 80.763L54.0739 80.5451L54.2917 80.1091V79.8912L54.1828 79.7823V79.8912H53.965V80.0001L53.856 80.1091L53.7471 79.8912L53.5292 78.3651V77.493L53.8564 76.403V75.749L53.9653 74.8769V74.9858L53.8564 75.0948V75.6398L53.7475 74.5498V74.223H53.5296V74.3319L53.4207 74.5498V74.6587H53.5296L53.6385 74.9858L53.5296 75.0947H53.4207L53.3118 74.8769V74.9858L53.2028 75.2037V75.5308L53.3118 75.858L53.4207 76.0758L53.3118 76.1847V76.7298L53.2028 76.6208L53.0939 76.403L52.985 76.294H52.876L52.7671 76.1851V75.6401L52.985 73.8962L52.876 73.3512L52.7671 73.0241V72.4791L52.5493 72.043L52.4403 71.7158V70.8437L52.2225 70.4076H52.1136L52.0046 70.2987L51.5686 69.6448L51.3507 69.0998V68.5548L51.4596 68.3369V67.7919L51.2418 68.5548L51.1328 68.7726V68.3365L51.0239 68.2276H50.915L51.0239 68.1187H51.2418V68.0098H51.1328V67.9008H51.0239V67.683L50.915 67.5741H50.8061V67.3562H50.915L51.0239 67.2473V66.8116H51.3507V66.4848H51.2418V66.3758L51.1329 66.2669H51.0239L50.8061 66.3758V65.9401L50.4793 65.6133V65.3955L50.5882 65.2865V65.1776H50.3704V64.7419L50.1525 64.524V64.4151H49.6075L49.8254 64.1973V64.0883H49.7164L49.4986 64.1973V63.7615L49.2807 63.5437H49.1718L49.0629 63.4348V63.3258L48.9539 63.4348V63.108H48.7361L48.5182 63.2169V63.108L48.7361 62.8901V62.5633H48.5182L48.4093 62.4544V62.0187L48.5182 62.1276H48.7361L48.845 62.0187V61.9097L48.7361 61.8008V61.6919L48.845 61.583V61.474L48.9539 61.2562V61.0383L48.5179 60.8205L48.4089 60.7116V60.8205H48.7357L48.9536 60.9294H49.0625V60.2758L48.9536 60.1669V58.9687H48.5179V58.8598H48.6268L48.7357 58.7509L48.8446 58.533V58.2062L48.7357 57.9884L48.6268 57.8794H48.3L47.9729 57.4434V57.1166L47.8639 57.0076H47.5371L47.4282 57.1166L47.5371 56.8987H48.0818V57.2255H48.1907V57.3344L48.4086 57.6616H48.5175L48.8446 57.7705L49.0625 57.9884V58.4241L49.2803 58.533L49.6075 58.3152L49.8253 58.0973H49.9343L50.0432 58.2062L50.2611 58.0973L50.5882 57.7702H50.6971L50.915 57.6612L51.5689 57.0073L52.3318 56.4623L52.9857 55.8084L53.3128 55.3723V55.1544H53.4218L53.7489 54.8273V54.7184H53.64L53.9671 54.3912L54.4028 54.1734H54.2939L54.4028 53.9555L54.5118 53.8466H54.6207L54.9475 53.5198L55.8196 52.8659V52.757H55.7107V52.5391H55.9286L56.1464 52.757H56.2553L56.3643 52.648V52.3212L56.4732 52.2123H56.5821V52.4302H56.8L56.9089 52.3212L57.2361 51.8852L57.4539 51.6673H57.6718V52.2123L57.7807 52.3212H57.9985L58.2164 52.2123H58.6521V52.1034H58.5432L58.6521 51.8855V51.6677L58.5432 51.2316V51.0137L58.761 51.4498L58.87 51.5587H58.9789L59.0878 51.6677H59.5235L59.6325 51.5587L59.5235 51.4498V51.3409H59.4146L59.5235 51.232L59.7414 50.687L59.8503 50.578V50.3602H60.1771V50.2512L60.286 50.3602V50.0334H60.5039L60.831 49.8155L61.376 49.1616L61.5939 48.9437L62.03 48.3987L62.1389 48.2898H62.03L61.8121 48.3987H61.7032L61.8121 48.1809L62.03 47.963H62.3568V47.6362L62.4657 47.4184L62.5746 47.3095L62.7925 46.9823H62.6835L62.5746 46.8734H62.2478V46.3287L62.1389 46.1109L62.03 46.002L61.8121 46.1109L61.921 45.893H62.1389L62.3568 46.002L62.4657 46.1109V46.4377L62.5746 46.5466H62.7925L63.0103 46.7645V46.8734L63.2282 46.6555L63.6642 45.8927L64.3182 45.2388V45.0209H64.4271L64.645 44.912L64.8628 44.6941V44.5852H65.4075L65.5164 44.4763L65.6253 44.5852H65.7342L66.061 44.2584L66.8239 43.8223L66.9328 43.6045H67.1507L67.6953 43.0598V43.1688H67.8042L68.5671 42.6238L68.8942 42.4059L70.2024 42.0791L70.3113 41.9702L70.2024 41.8613L70.3113 41.7523L69.9846 41.4255H70.4203V41.3166L70.5292 41.4255V41.8616L70.6381 41.9705H70.7471L70.856 41.8616L70.9649 41.6438L71.0738 41.5348L72.8177 40.772V40.663H73.0356L73.3627 40.3359V40.4448H73.5806L73.7985 40.3359L73.9074 40.227L73.7985 40.0091H73.9074L74.0163 40.118H74.1252L75.1063 40.0091L75.3242 39.9002L75.6513 39.6823H76.4138L76.6317 39.4645V39.2466H76.3049H76.4138L76.6317 39.0288V38.9198L76.7406 39.0288L77.1763 38.5931L78.1574 37.9391L79.2474 37.3941L79.3563 37.2852H79.4653L80.1188 36.9584L80.4456 36.6316H80.5546L80.7724 36.5227L80.6635 36.4138H81.0992V36.5227H81.2081L81.5353 36.3048L81.2085 35.978V35.5423H81.0996V35.4334L81.3174 35.3245L81.7535 35.1066H82.2985L82.5163 34.9977L82.7342 34.7798L82.952 34.2348L83.2788 33.908V33.6902L83.3878 33.5813V33.3634L83.061 33.6902L82.952 33.5813V33.4723H83.3878V33.1455L83.6056 33.0366L84.9134 31.7288L85.3495 31.0749L85.7852 30.6392V30.4213H86.112L86.3299 30.2034V29.9856H86.2209V29.5499L86.3299 29.4409V29.1142L86.5477 28.8963V28.7874L86.4388 28.6784L86.5477 28.5695V28.1338L86.3299 27.9159H86.2209L86.112 28.0249L86.0031 28.2427L85.8942 28.1338H85.5674V27.6981H86.0031L86.112 27.4802L86.3299 27.3713H86.5477L86.7656 27.2624L86.5477 26.9352L86.4388 26.7174L86.5477 26.6084L86.8749 26.7174H87.2017L87.3106 26.8263V26.6084L87.0927 26.3906H86.5477L86.4388 26.2817V25.9549L86.5477 26.0638L86.6567 26.2817H86.8745L87.3102 25.8459V25.737L87.6374 25.6281L87.963 27.686ZM36.624 33.136L36.4062 33.0271L36.1883 32.8092H36.0794L35.8616 32.9182H35.5348V33.136H35.099L34.8812 33.0271L34.5544 33.3539V33.4628H33.9008V33.5717L33.7919 33.6807H33.3562L32.9201 33.7896H32.8112V34.0074H32.5933L32.3755 33.8985H31.9394L31.8305 33.7896H31.6126L31.5037 33.6807H31.3948L31.1769 33.5717H30.9591L30.8501 33.6807L30.6323 33.7896H30.4144L29.6516 33.8985H29.4337L29.2159 33.6807H29.1069V33.7896H28.998L28.8891 33.6807V33.5717H28.5623V33.7896H28.1266L28.0176 33.6807V33.8985H27.9087L27.6908 33.6807V34.0075L27.5819 33.8985H27.2551H27.3641V34.0075L27.0373 34.3342L26.8194 34.4432L26.7105 34.5521L26.4926 34.8792V34.3346H26.9283V33.8989L26.8194 34.0078H26.6016L26.0566 33.8989L25.7294 33.79H25.5116L25.2937 33.681H24.8576L24.6398 33.5721H24.313L24.2041 33.4632L24.313 33.3542H24.4219L25.5119 33.6814H25.7298L26.0569 33.7903H26.6016L26.8194 33.5725L27.0373 33.6814V33.5725H27.1462L27.2551 33.3546H27.473L27.5819 33.2457V33.0278H28.2358L28.3448 33.1367H28.7805L28.8894 33.0278H29.3251H29.543V33.3546L29.7608 33.1368H29.8698L30.8509 33.0278H30.9598L31.1776 32.9189H31.3955L31.5044 33.0278H31.6134L31.8312 32.81L31.9401 32.9189L32.3759 33.1368H32.4848L32.5937 33.0278H33.1387L33.7926 32.9189H33.9016L34.1194 32.701H34.4462V32.81L34.6641 32.9189H34.8819L34.9908 32.81H35.0998L35.2087 32.9189H35.7533V32.81H35.9712L36.0801 32.701H36.4069L36.5158 32.5921V32.81H36.6248L36.624 33.136ZM54.173 72.267L54.0641 72.3759L53.8463 73.2481L53.7373 73.7931V74.0109H53.8463L54.0641 73.0299V72.5938L54.173 72.267Z" fill="#D2DEE6"/>
</g>
<defs>
<clipPath id="clip0_259_203">
<rect width="109" height="109" fill="white"/>
</clipPath>
</defs>
</svg>
