<svg width="15" height="11" viewBox="0 0 15 11" fill="none" xmlns="http://www.w3.org/2000/svg">
<path d="M14.6667 10C14.6667 10.1768 14.5964 10.3464 14.4714 10.4714C14.3464 10.5964 14.1768 10.6667 14 10.6667H6C5.82319 10.6667 5.65362 10.5964 5.5286 10.4714C5.40357 10.3464 5.33333 10.1768 5.33333 10C5.33333 8.93913 5.75476 7.92172 6.50491 7.17157C7.25505 6.42143 8.27247 6 9.33333 6H10.6667C11.7275 6 12.7449 6.42143 13.4951 7.17157C14.2452 7.92172 14.6667 8.93913 14.6667 10ZM10 0C9.47258 0 8.95701 0.156397 8.51848 0.449414C8.07995 0.742431 7.73815 1.15891 7.53632 1.64618C7.33449 2.13345 7.28168 2.66962 7.38457 3.18691C7.48747 3.70419 7.74144 4.17935 8.11438 4.55229C8.48732 4.92523 8.96248 5.1792 9.47976 5.28209C9.99704 5.38499 10.5332 5.33218 11.0205 5.13035C11.5078 4.92851 11.9242 4.58672 12.2173 4.14819C12.5103 3.70966 12.6667 3.19408 12.6667 2.66667C12.6667 1.95942 12.3857 1.28115 11.8856 0.781048C11.3855 0.280951 10.7072 0 10 0ZM4 0C3.47258 0 2.95701 0.156397 2.51848 0.449414C2.07995 0.742431 1.73816 1.15891 1.53632 1.64618C1.33449 2.13345 1.28168 2.66962 1.38457 3.18691C1.48747 3.70419 1.74144 4.17935 2.11438 4.55229C2.48732 4.92523 2.96248 5.1792 3.47976 5.28209C3.99704 5.38499 4.53322 5.33218 5.02049 5.13035C5.50776 4.92851 5.92424 4.58672 6.21725 4.14819C6.51027 3.70966 6.66667 3.19408 6.66667 2.66667C6.66667 1.95942 6.38572 1.28115 5.88562 0.781048C5.38552 0.280951 4.70724 0 4 0ZM4 10C3.99901 9.29974 4.13697 8.60624 4.4059 7.95968C4.67482 7.31312 5.06936 6.72634 5.56667 6.23333C5.15969 6.07968 4.72835 6.00064 4.29333 6H3.70667C2.72414 6.00176 1.78236 6.39285 1.0876 7.0876C0.392851 7.78236 0.00176239 8.72414 0 9.70667V10C0 10.1768 0.0702379 10.3464 0.195262 10.4714C0.320286 10.5964 0.489856 10.6667 0.666667 10.6667H4.12C4.04239 10.4529 4.0018 10.2274 4 10Z" fill="#002E4F"/>
</svg>
