<?xml version="1.0" encoding="UTF-8" standalone="no"?>
<svg
   xmlns:dc="http://purl.org/dc/elements/1.1/"
   xmlns:cc="http://creativecommons.org/ns#"
   xmlns:rdf="http://www.w3.org/1999/02/22-rdf-syntax-ns#"
   xmlns:svg="http://www.w3.org/2000/svg"
   xmlns="http://www.w3.org/2000/svg"
   viewBox="0 20 1056 600"
   height="600"
   width="1056"
   xml:space="preserve"
   id="svg2"
   version="1.1"><metadata
     id="metadata8"><rdf:RDF><cc:Work
         rdf:about=""><dc:format>image/svg+xml</dc:format><dc:type
           rdf:resource="http://purl.org/dc/dcmitype/StillImage" /></cc:Work></rdf:RDF></metadata><defs
     id="defs6"><clipPath
       id="clipPath66"
       clipPathUnits="userSpaceOnUse"><path
         style="clip-rule:evenodd"
         id="path64"
         d="m 1774.4171,1865.827 c 0,35.064 29.1994,63.4882 65.2194,63.4882 36.0201,0 65.2193,-28.4242 65.2193,-63.4882 0,-35.0639 -29.1992,-63.4881 -65.2193,-63.4881 -36.02,0 -65.2194,28.4242 -65.2194,63.4881 z" /></clipPath><linearGradient
       id="linearGradient76"
       gradientUnits="userSpaceOnUse"
       y2="1802"
       x2="1839"
       y1="1929"
       x1="1839"><stop
         id="stop68"
         offset="0"
         style="stop-opacity:1;stop-color:#fff200" /><stop
         id="stop70"
         offset="0.253845"
         style="stop-opacity:1;stop-color:#fff200" /><stop
         id="stop72"
         offset="0.896224"
         style="stop-opacity:1;stop-color:#f36717" /><stop
         id="stop74"
         offset="1"
         style="stop-opacity:1;stop-color:#f36717" /></linearGradient></defs><g
     transform="matrix(1.3333333,0,0,-1.3333333,0,816)"
     id="g10"><g
       transform="translate(-1692,-1584)"
       id="g12"><path
         id="path14"
         style="fill:#f45813;fill-opacity:1;fill-rule:evenodd;stroke:none"
         d="m 2016.559,1942.0976 -1.012,-8.6229 c -0.2072,-1.9152 -0.4402,-4.4362 -0.6987,-7.5629 l -0.465,-6.0504 -0.7782,-0.83 h -4.5059 l -0.7782,0.755 c -0.1028,6.8071 -0.5173,10.6897 -1.2434,11.6481 -1.1919,1.5617 -8.4189,2.3426 -21.6806,2.3426 -2.1236,0 -5.4648,-0.1507 -10.0237,-0.4525 -0.5702,-5.1436 -0.8553,-14.3707 -0.8553,-27.6814 v -10.2083 l 8.7828,-0.2273 c 2.6405,-0.05 7.536,0.051 14.6857,0.3026 1.3993,0.05 2.3317,0.4282 2.7976,1.135 0.7774,1.21 1.2432,4.5376 1.3974,9.983 l 0.7783,0.755 h 4.8165 l 0.7784,-0.755 c -0.2073,-5.647 -0.3109,-10.8155 -0.3109,-15.5059 0,-5.0919 0.1036,-10.6629 0.3109,-16.7133 l -0.7784,-0.68 h -5.2044 l -0.7782,0.755 c 0,5.2953 -0.2331,8.3962 -0.6989,9.303 -0.8802,1.7651 -3.5483,2.8244 -8.0044,3.1777 -3.0569,0.2516 -6.0615,0.3776 -9.0139,0.3776 -3.5742,0 -6.7602,-0.076 -9.5585,-0.2276 v -17.9985 c 0,-11.9506 0.3373,-19.766 1.012,-23.4462 0.2587,-1.4618 1.1389,-2.3944 2.6407,-2.7976 0.3632,-0.1018 4.0674,-0.3543 11.1128,-0.7577 l 0.7759,-0.755 v -5.0678 l -0.8531,-0.755 -31.2392,0.4525 c -4.4543,0.05 -10.6186,-0.101 -18.4928,-0.4525 l -0.7784,0.6799 v 5.1429 l 0.7784,0.755 c 5.2831,0.3034 8.3135,0.5559 9.091,0.7577 1.5019,0.4032 2.3821,1.3358 2.6407,2.7976 0.6748,3.6802 1.0121,11.4956 1.0122,23.4462 v 40.0071 c 0,11.949 -0.3374,19.7637 -1.0122,23.4438 -0.2586,1.4634 -1.1388,2.3968 -2.6407,2.8001 -0.7775,0.2018 -3.8078,0.4533 -9.091,0.7551 l -0.7784,0.7576 v 5.1427 l 0.7784,0.68 c 4.9731,-0.3033 12.9509,-0.455 23.9335,-0.455 7.0968,0 24.5544,0.1517 52.3728,0.455 z" /><path
         id="path16"
         style="fill:#f45813;fill-opacity:1;fill-rule:evenodd;stroke:none"
         d="m 2131.2963,1936.8799 -0.7758,-0.7576 c -6.1138,0 -9.5594,-1.5884 -10.3368,-4.7653 -0.4145,-1.7634 -0.7252,-5.5954 -0.9325,-11.4956 -0.1541,-4.3852 -0.2313,-10.7123 -0.2313,-18.981 v -23.2937 c 0,-14.9759 -3.0312,-25.6646 -9.0934,-32.0668 -8.0285,-8.4705 -19.4768,-12.7056 -34.3451,-12.7056 -13.5735,0 -24.1673,2.1925 -31.7813,6.5779 -6.4237,3.7318 -10.6202,9.0262 -12.5897,15.8833 -1.2433,4.3867 -1.865,15.8315 -1.865,34.3344 v 19.5134 c 0,11.9991 -0.3365,19.8137 -1.0095,23.4438 -0.2586,1.4634 -1.1396,2.3968 -2.6434,2.8001 -0.7757,0.2018 2.675,0.4533 -2.6098,0.7551 l -0.7758,0.7576 v 5.0653 l 0.7758,0.7574 c 4.9732,-0.3033 6.47,-0.455 17.4524,-0.455 11.1899,0 19.1419,0.1517 23.8565,0.455 l 0.7759,-0.7574 v -5.0653 l -0.7759,-0.7576 c -5.2847,-0.3018 -8.3151,-0.5533 -9.091,-0.7551 -1.5035,-0.4033 -2.3846,-1.3367 -2.6432,-2.8001 -0.6731,-3.6301 -1.0096,-11.4447 -1.0096,-23.4438 v -15.5808 c 0,-19.0577 0.8803,-30.7292 2.6408,-35.0145 3.5228,-8.4703 12.2002,-12.7056 26.0323,-12.7056 9.0661,0 16.1372,2.1676 21.2132,6.5029 2.3838,2.0668 4.042,4.1591 4.9745,6.2767 0.9324,2.1175 1.6572,5.3949 2.1746,9.8317 0.4674,4.1352 0.7011,8.3203 0.7011,12.5557 v 15.7308 c 0,13.2091 -0.052,22.2337 -0.1566,27.074 -0.1027,4.5385 -0.4136,7.4887 -0.9325,8.8503 -0.4144,1.0084 -1.3212,1.7894 -2.7203,2.3427 -1.1903,0.4551 -4.3757,0.8333 -9.5561,1.1351 l -0.7783,0.7576 v 5.0653 l 0.7783,0.7574 c 4.5057,-0.3033 9.1416,-0.455 13.9077,-0.455 3.5757,0 10.4404,0.1517 20.594,0.455 l 0.7758,-0.7574 z" /><path
         id="path18"
         style="fill:#f45813;fill-opacity:1;fill-rule:evenodd;stroke:none"
         d="m 2244.0417,1936.8799 -0.8555,-0.7576 c -5.2832,-0.3018 -8.3135,-0.5533 -9.0911,-0.7551 -1.5019,-0.4033 -2.3822,-1.3367 -2.6407,-2.8001 -0.6747,-3.6301 -1.0121,-11.4447 -1.0121,-23.4438 v -30.7066 c 0,-22.6379 0.3374,-34.9211 1.0121,-41.7781 l -1.0121,-0.6801 c -5.8536,0.9584 -10.2821,-0.8251 -13.2859,-0.4216 -13.8836,15.1758 -37.5842,42.8557 -71.1019,83.0394 v -49.4601 c 0,-12.0007 0.3364,-19.8161 1.0095,-23.4462 0.2586,-1.4618 1.1397,-2.3944 2.6432,-2.7976 0.7758,-0.2018 3.8062,-0.4543 9.091,-0.7577 l 0.776,-0.755 v -5.1429 l -0.776,-0.6799 c -5.9579,0.3017 -11.5013,0.4525 -16.6303,0.4525 -5.9563,0 -11.939,-0.1508 -17.9484,-0.4525 l -0.7783,0.6799 v 5.1429 l 0.7783,0.755 c 5.2832,0.3034 8.3135,0.5559 9.0911,0.7577 1.5018,0.4032 2.3821,1.3358 2.6408,2.7976 0.6746,3.6301 1.012,11.4455 1.012,23.4462 v 40.0071 c 0,11.9991 -0.3374,19.8137 -1.012,23.4438 -0.2587,1.4634 -1.139,2.3968 -2.6408,2.8001 -0.7776,0.2018 -3.8079,0.4533 -9.0911,0.7551 l -0.7783,0.7576 v 5.1427 l 0.7783,0.68 c 4.9202,-0.3033 9.6082,-0.455 14.0643,-0.455 6.994,0 12.7961,0.1517 17.4062,0.455 18.6494,-24.2013 40.5623,-50.1418 65.7385,-77.8217 v 44.2424 c 0,11.9991 -0.3365,19.8137 -1.0097,23.4438 -0.2586,1.4634 -1.1388,2.3968 -2.6408,2.8001 -0.7774,0.2018 -3.8085,0.4533 -9.0934,0.7551 l -0.7758,0.7576 v 5.1427 l 0.7758,0.68 c 5.802,-0.3033 11.3199,-0.455 16.5532,-0.455 6.6824,0 12.6918,0.1517 18.0279,0.455 l 0.776,-0.68 z" /><path
         id="path20"
         style="fill:#f45813;fill-opacity:1;fill-rule:evenodd;stroke:none"
         d="m 2345.1563,1836.2919 -0.6987,-0.755 c -11.5014,0.3017 -18.4431,0.4525 -20.8253,0.4525 -9.5321,0 -18.391,-0.1508 -26.5768,-0.4525 l -0.6987,0.755 v 4.7652 l 0.7782,0.8325 6.7586,0.3775 c 2.8497,0.1518 4.2745,1.1352 4.2745,2.9503 0,1.0584 -0.7253,3.4278 -2.1759,7.1079 l -6.2934,15.9584 c -7.1499,0.1 -14.4548,0.15 -21.9145,0.15 -4.04,0 -10.0493,-0.05 -18.0279,-0.15 l -3.4191,-9.2281 c -2.5893,-7.0071 -3.8842,-11.3931 -3.8842,-13.1582 0,-1.9167 1.2178,-3.0509 3.6529,-3.4026 1.3461,-0.2017 3.9879,-0.4033 7.9248,-0.6052 l 0.7783,-0.7574 v -4.8403 l -0.7783,-0.755 c -9.5832,0.3017 -15.7477,0.4525 -18.4927,0.4525 -2.1253,0 -1.546,-0.1508 -9.9374,-0.4525 l -0.7784,0.6799 v 4.9154 l 0.8553,0.7574 c 5.3363,0.3018 2.7756,1.3352 3.9932,3.1003 1.2176,1.765 5.7892,12.2773 13.7148,31.5367 l 20.2808,49.3852 c 1.5019,3.8317 3.7814,9.6055 6.8382,17.3207 h 11.0356 l 41.183,-94.3098 c 1.6065,-3.5803 3.0569,-5.597 4.3516,-6.0503 1.7092,-0.6053 4.1701,-0.9076 7.3828,-0.9076 l 0.6987,-0.8326 z m -49.2646,40.6896 -16.6304,39.6297 -15.9292,-39.6297 c 4.2471,-0.1514 9.7641,-0.2275 16.5509,-0.2275 6.5796,0 11.9157,0.076 16.0087,0.2275 z" /><path
         id="path22"
         style="fill:#f45813;fill-opacity:1;fill-rule:evenodd;stroke:none"
         d="m 2419.5611,1861.2507 c -1.1388,-7.362 -1.7083,-15.6816 -1.7083,-24.9588 l -0.7784,-0.755 -56.4906,0.4525 c -9.4292,0 -16.0867,-0.1508 -19.9724,-0.4525 l -0.7758,0.755 v 2.1177 l 0.388,0.9075 c 3.8343,2.37 5.9064,3.8576 6.2164,4.4628 0.4658,0.9583 0.751,4.3109 0.8554,10.058 l 0.2337,16.9408 v 38.3446 c 0,11.9991 -0.3373,19.8137 -1.012,23.4438 -0.2586,1.4634 -1.1389,2.3968 -2.6407,2.8001 -0.7776,0.2018 -3.808,0.4533 -9.0912,0.7551 l -0.7783,0.7576 v 5.1427 l 0.7783,0.68 c 5.2319,-0.3033 13.3134,-0.455 24.2446,-0.455 9.739,0 28.2585,0.1517 55.5581,0.455 l 0.8555,-0.605 -1.0096,-8.3954 c -0.3117,-2.6718 -0.5446,-4.9404 -0.6988,-6.8055 l -0.5445,-7.0353 -0.7784,-0.83 h -4.5058 l -0.7782,0.755 c -0.051,6.8571 -0.466,10.7648 -1.2434,11.7232 -0.5685,0.7051 -3.3527,1.2592 -8.3524,1.6626 -4.9997,0.4034 -9.3902,0.6049 -13.1715,0.6049 -4.5074,0 -9.0662,-0.1758 -13.6764,-0.5275 -0.5702,-5.2952 -0.8553,-12.6315 -0.8553,-22.0088 v -15.6557 c 4.0928,-0.2515 7.4084,-0.3775 9.9464,-0.3775 l 10.1802,0.075 c 4.7659,0.05 7.4598,0.4282 8.0814,1.135 0.8288,0.9068 1.3727,4.3102 1.6312,10.2105 l 0.7783,0.755 h 4.8166 l 0.7783,-0.755 c -0.2072,-5.647 -0.3109,-10.8155 -0.3109,-15.5059 0,-5.0919 0.1037,-10.6629 0.3109,-16.7133 l -0.7783,-0.68 h -5.2045 l -0.7784,0.755 c 0,5.7986 -0.4144,9.2401 -1.2432,10.3242 -0.8289,1.0843 -3.3412,1.8032 -7.537,2.1565 -3.1596,0.2516 -6.5274,0.3776 -10.103,0.3776 -3.7813,0 -7.3039,-0.126 -10.568,-0.3776 v -23.0688 c 0,-6.6037 0.1301,-13.0065 0.3903,-19.2086 h 10.5682 c 15.1267,0 24.3994,0.58 27.8176,1.7402 0.5701,0.2016 0.9847,0.4783 1.2432,0.83 0.5189,0.7069 1.0113,2.2193 1.4771,4.5378 l 1.865,9.3779 0.7757,0.8326 h 4.742 l 0.8529,-0.7551 z" /><path
         id="path24"
         style="fill:#001466;fill-opacity:1;fill-rule:evenodd;stroke:none"
         d="m 1955.769,1816.7418 v -11.6099 h 5.3609 c 1.2443,0 2.1556,0.2686 2.7338,0.8062 0.5782,0.5375 0.9625,1.6232 1.1527,3.2573 h 0.8043 v -10.0471 h -0.8043 c -0.014,1.1494 -0.1643,1.9933 -0.4499,2.5316 -0.2854,0.5385 -0.6808,0.9432 -1.1859,1.2145 -0.505,0.2711 -1.2553,0.4068 -2.2507,0.4068 h -5.3609 v -9.3327 c 0,-1.4954 0.094,-2.4826 0.2814,-2.9617 0.1443,-0.3629 0.4473,-0.6749 0.9095,-0.9363 0.6352,-0.3484 1.2993,-0.5226 1.992,-0.5226 h 1.0612 v -0.8037 h -12.6874 v 0.8037 h 1.0499 c 1.2252,0 2.115,0.3556 2.6692,1.0668 0.35,0.4647 0.5249,1.5827 0.5249,3.3538 v 19.1563 c 0,1.4954 -0.095,2.4828 -0.2841,2.9618 -0.1461,0.3629 -0.4451,0.6749 -0.897,0.9363 -0.6272,0.3485 -1.2982,0.5227 -2.013,0.5227 h -1.0499 v 0.8036 h 21.9794 l 0.3127,-6.5194 h -0.7595 c -0.3783,1.389 -0.8183,2.4087 -1.3202,3.0592 -0.5019,0.6505 -1.1193,1.1219 -1.8523,1.4143 -0.7328,0.2923 -1.8685,0.4385 -3.4071,0.4385 z" /><path
         id="path26"
         style="fill:#001466;fill-opacity:1;fill-rule:evenodd;stroke:none"
         d="m 1991.5987,1817.5456 v 0.8036 h 10.409 v -0.8036 h -1.1099 c -1.161,0 -2.0533,-0.4868 -2.6768,-1.4604 -0.3049,-0.4508 -0.4572,-1.4971 -0.4572,-3.1389 v -12 c 0,-2.967 -0.2942,-5.2689 -0.8824,-6.9052 -0.5882,-1.6363 -1.7428,-3.0398 -3.4639,-4.2106 -1.7211,-1.1709 -4.0631,-1.7561 -7.0259,-1.7561 -3.2245,0 -5.6716,0.5601 -7.3419,1.6801 -1.6701,1.1199 -2.8537,2.6257 -3.5507,4.5168 -0.465,1.295 -0.6975,3.7245 -0.6975,7.2884 v 11.5651 c 0,1.8146 -0.2503,3.005 -0.751,3.5713 -0.5007,0.5663 -1.3097,0.8495 -2.4271,0.8495 h -1.1106 v 0.8036 h 12.7767 v -0.8036 h -1.1322 c -1.2192,0 -2.0897,-0.3847 -2.612,-1.1542 -0.3629,-0.5226 -0.5444,-1.6116 -0.5444,-3.2666 v -12.8971 c 0,-1.1489 0.1054,-2.4653 0.3161,-3.9494 0.2108,-1.4841 0.5928,-2.6407 1.1455,-3.4701 0.5529,-0.8292 1.3492,-1.513 2.389,-2.0512 1.0398,-0.5381 2.3159,-0.8072 3.8283,-0.8072 1.9345,0 3.6653,0.4218 5.1922,1.2655 1.5271,0.8438 2.5706,1.9241 3.1307,3.2406 0.56,1.3165 0.8402,3.5461 0.8402,6.6887 v 11.9802 c 0,1.8439 -0.2033,2.9982 -0.6095,3.4628 -0.5659,0.6386 -1.4074,0.958 -2.5247,0.958 z" /><path
         id="path28"
         style="fill:#001466;fill-opacity:1;fill-rule:evenodd;stroke:none"
         d="m 2000.7264,1818.3492 h 7.9575 l 18.1486,-22.2324 v 17.0973 c 0,1.823 -0.2065,2.9605 -0.6193,3.4126 -0.5449,0.6126 -1.4069,0.9189 -2.5862,0.9189 h -1.0385 v 0.8036 h 10.4088 v -0.8036 h -1.0609 c -1.2672,0 -2.166,-0.3793 -2.6965,-1.1374 -0.3244,-0.467 -0.4865,-1.5316 -0.4865,-3.1941 v -24.9493 h -0.7859 l -19.496,23.8498 v -18.2354 c 0,-1.8229 0.1991,-2.9602 0.5969,-3.4123 0.5598,-0.6128 1.4218,-0.919 2.5862,-0.919 h 1.0608 v -0.8037 h -10.4087 v 0.8037 h 1.0386 c 1.282,0 2.1884,0.3792 2.7188,1.1373 0.3243,0.467 0.4866,1.5317 0.4866,3.194 v 20.5851 c -0.8581,1.0053 -1.5089,1.668 -1.9524,1.9887 -0.4435,0.3204 -1.0942,0.619 -1.9524,0.8958 -0.4217,0.1311 -1.0615,0.1968 -1.9195,0.1968 z" /><path
         id="path30"
         style="fill:#001466;fill-opacity:1;fill-rule:evenodd;stroke:none"
         d="m 2033.1623,1788.7442 v 0.8037 h 1.1099 c 1.2481,0 2.1332,0.3993 2.6552,1.1979 0.3192,0.4791 0.4789,1.5533 0.4789,3.2227 v 19.1563 c 0,1.8439 -0.2031,2.9982 -0.6093,3.4628 -0.566,0.6386 -1.4075,0.958 -2.5248,0.958 h -1.1099 v 0.8036 h 12.0409 c 4.4208,0 7.7838,-0.5022 10.0888,-1.5062 2.3051,-1.0043 4.1593,-2.6781 5.5625,-5.0215 1.4034,-2.3433 2.1051,-5.0507 2.1051,-8.1221 0,-4.1192 -1.2508,-7.5615 -3.752,-10.3265 -2.8065,-3.086 -7.0819,-4.6287 -12.8261,-4.6287 z m 8.4433,2.1734 c 1.8433,-0.4072 3.3891,-0.6106 4.6376,-0.6106 3.3673,0 6.1612,1.185 8.3819,3.5551 2.2207,2.3701 3.3309,5.5835 3.3309,9.6399 0,4.0859 -1.1102,7.3065 -3.3309,9.662 -2.2207,2.3554 -5.0727,3.5331 -8.5563,3.5331 -1.3063,0 -2.7941,-0.2109 -4.4632,-0.6328 z" /><path
         id="path32"
         style="fill:#001466;fill-opacity:1;fill-rule:evenodd;stroke:none"
         d="m 2079.8031,1819.019 c 3.8362,0 7.1603,-1.4583 9.9725,-4.3753 2.8121,-2.9169 4.2182,-6.5577 4.2182,-10.9225 0,-4.4955 -1.4169,-8.2274 -4.2505,-11.1951 -2.8339,-2.9679 -6.2635,-4.4517 -10.2893,-4.4517 -4.0689,0 -7.4876,1.4476 -10.256,4.3429 -2.7684,2.8951 -4.1525,6.6413 -4.1525,11.2383 0,4.6992 1.5985,8.5329 4.7953,11.5009 2.7759,2.5751 6.0965,3.8625 9.9623,3.8625 z m -0.4141,-1.5628 c -2.6418,0 -4.7609,-0.9826 -6.3575,-2.9478 -1.9885,-2.4457 -2.9826,-6.0268 -2.9826,-10.7433 0,-4.8332 1.0304,-8.5527 3.0916,-11.1585 1.5821,-1.9797 3.6723,-2.9694 6.2702,-2.9694 2.7722,0 5.0617,1.0845 6.8689,3.2534 1.8072,2.169 2.7108,5.59 2.7108,10.2632 0,5.0659 -0.9943,8.8435 -2.9827,11.333 -1.5966,1.9796 -3.8028,2.9694 -6.6187,2.9694 z" /><path
         id="path34"
         style="fill:#001466;fill-opacity:1;fill-rule:evenodd;stroke:none"
         d="m 2105.3195,1788.7442 v 0.8037 h 1.1099 c 1.2482,0 2.1332,0.3993 2.6554,1.1979 0.3192,0.4791 0.4787,1.5533 0.4787,3.2227 v 19.1563 c 0,1.8439 -0.2031,2.9982 -0.6093,3.4628 -0.566,0.6386 -1.4075,0.958 -2.5248,0.958 h -1.1099 v 0.8036 h 12.041 c 4.4209,0 7.7838,-0.5022 10.0888,-1.5062 2.305,-1.0043 4.1594,-2.6781 5.5626,-5.0215 1.4032,-2.3433 2.1049,-5.0507 2.1049,-8.1221 0,-4.1192 -1.2508,-7.5615 -3.752,-10.3265 -2.8065,-3.086 -7.0818,-4.6287 -12.8261,-4.6287 z m 8.4434,2.1734 c 1.8432,-0.4072 3.389,-0.6106 4.6375,-0.6106 3.3673,0 6.1613,1.185 8.3821,3.5551 2.2205,2.3701 3.3308,5.5835 3.3308,9.6399 0,4.0859 -1.1103,7.3065 -3.3308,9.662 -2.2208,2.3554 -5.0729,3.5331 -8.5565,3.5331 -1.3062,0 -2.794,-0.2109 -4.4631,-0.6328 z" /><path
         id="path36"
         style="fill:#001466;fill-opacity:1;fill-rule:evenodd;stroke:none"
         d="m 2144.9759,1816.7418 v -11.6992 h 6.5222 c 1.6869,0 2.8141,0.2539 3.3813,0.7618 0.7561,0.6671 1.1778,1.8421 1.2648,3.5249 h 0.8041 v -10.3149 h -0.8041 c -0.2033,1.4442 -0.4068,2.3707 -0.6107,2.7797 -0.2616,0.5102 -0.6905,0.9113 -1.2867,1.2031 -0.5966,0.2919 -1.5126,0.4379 -2.7487,0.4379 h -6.5222 v -9.7638 c 0,-1.3103 0.058,-2.1073 0.174,-2.3914 0.1162,-0.2839 0.3196,-0.5096 0.6102,-0.6771 0.2906,-0.1674 0.8426,-0.2512 1.6561,-0.2512 h 5.0117 c 1.6707,0 2.8836,0.1164 3.6392,0.3493 0.7554,0.2327 1.4818,0.691 2.1789,1.3747 0.9009,0.902 1.8234,2.2623 2.7676,4.0808 h 0.8936 l -2.5527,-7.4122 h -22.822 v 0.8037 h 1.0499 c 0.7003,0 1.3639,0.1676 1.9907,0.503 0.4669,0.2336 0.7841,0.5838 0.9518,1.0507 0.1677,0.467 0.2516,1.4227 0.2516,2.8669 v 19.2456 c 0,1.8718 -0.1897,3.0252 -0.5688,3.4607 -0.525,0.5804 -1.4001,0.8708 -2.6253,0.8708 h -1.0499 v 0.8036 h 22.8283 l 0.3126,-6.5194 h -0.8488 c -0.3054,1.5713 -0.6433,2.6506 -1.0143,3.2379 -0.3708,0.5871 -0.9197,1.0349 -1.6465,1.3433 -0.5817,0.2205 -1.6067,0.3308 -3.0748,0.3308 z" /><path
         id="path38"
         style="fill:#001466;fill-opacity:1;fill-rule:evenodd;stroke:none"
         d="m 2181.0261,1816.7418 v -11.6992 h 6.5223 c 1.687,0 2.8141,0.2539 3.3812,0.7618 0.7563,0.6671 1.1778,1.8421 1.265,3.5249 h 0.8042 v -10.3149 h -0.8042 c -0.2034,1.4442 -0.407,2.3707 -0.6108,2.7797 -0.2615,0.5102 -0.6905,0.9113 -1.2868,1.2031 -0.5964,0.2919 -1.5125,0.4379 -2.7486,0.4379 h -6.5223 v -9.7638 c 0,-1.3103 0.058,-2.1073 0.1742,-2.3914 0.1161,-0.2839 0.3195,-0.5096 0.6101,-0.6771 0.2906,-0.1674 0.8427,-0.2512 1.656,-0.2512 h 5.0119 c 1.6706,0 2.8835,0.1164 3.639,0.3493 0.7556,0.2327 1.4819,0.691 2.179,1.3747 0.9009,0.902 1.8234,2.2623 2.7676,4.0808 h 0.8934 l -2.5526,-7.4122 h -22.8218 v 0.8037 h 1.0498 c 0.7004,0 1.3639,0.1676 1.9908,0.503 0.4668,0.2336 0.784,0.5838 0.9517,1.0507 0.1677,0.467 0.2517,1.4227 0.2517,2.8669 v 19.2456 c 0,1.8718 -0.1897,3.0252 -0.5689,3.4607 -0.5249,0.5804 -1.4,0.8708 -2.6253,0.8708 h -1.0498 v 0.8036 h 22.8281 l 0.3126,-6.5194 h -0.8486 c -0.3054,1.5713 -0.6435,2.6506 -1.0143,3.2379 -0.3709,0.5871 -0.9198,1.0349 -1.6466,1.3433 -0.5817,0.2205 -1.6067,0.3308 -3.0748,0.3308 z" /><path
         id="path40"
         style="fill:#001466;fill-opacity:1;fill-rule:evenodd;stroke:none"
         d="m 2197.143,1818.3492 h 7.9575 l 18.1486,-22.2324 v 17.0973 c 0,1.823 -0.2065,2.9605 -0.6191,3.4126 -0.5451,0.6126 -1.4071,0.9189 -2.5863,0.9189 h -1.0387 v 0.8036 h 10.409 v -0.8036 h -1.061 c -1.2673,0 -2.166,-0.3793 -2.6965,-1.1374 -0.3244,-0.467 -0.4865,-1.5316 -0.4865,-3.1941 v -24.9493 h -0.786 l -19.4958,23.8498 v -18.2354 c 0,-1.8229 0.1989,-2.9602 0.5969,-3.4123 0.5598,-0.6128 1.4218,-0.919 2.586,-0.919 h 1.0611 v -0.8037 h -10.4089 v 0.8037 h 1.0387 c 1.2819,0 2.1882,0.3792 2.7187,1.1373 0.3244,0.467 0.4866,1.5317 0.4866,3.194 v 20.5851 c -0.8582,1.0053 -1.5089,1.668 -1.9524,1.9887 -0.4435,0.3204 -1.0943,0.619 -1.9524,0.8958 -0.4216,0.1311 -1.0615,0.1968 -1.9195,0.1968 z" /><path
         id="path42"
         style="fill:#001466;fill-opacity:1;fill-rule:evenodd;stroke:none"
         d="m 2238.1561,1816.7418 v -11.6992 h 6.5224 c 1.687,0 2.814,0.2539 3.3812,0.7618 0.7563,0.6671 1.1779,1.8421 1.2649,3.5249 h 0.8041 v -10.3149 h -0.8041 c -0.2034,1.4442 -0.407,2.3707 -0.6108,2.7797 -0.2615,0.5102 -0.6905,0.9113 -1.2868,1.2031 -0.5963,0.2919 -1.5124,0.4379 -2.7485,0.4379 h -6.5224 v -9.7638 c 0,-1.3103 0.058,-2.1073 0.1742,-2.3914 0.1162,-0.2839 0.3195,-0.5096 0.6102,-0.6771 0.2905,-0.1674 0.8426,-0.2512 1.6561,-0.2512 h 5.0117 c 1.6706,0 2.8837,0.1164 3.6391,0.3493 0.7556,0.2327 1.4819,0.691 2.1789,1.3747 0.9009,0.902 1.8235,2.2623 2.7677,4.0808 h 0.8935 l -2.5527,-7.4122 h -22.8218 v 0.8037 h 1.0498 c 0.7004,0 1.3638,0.1676 1.9908,0.503 0.4668,0.2336 0.784,0.5838 0.9516,1.0507 0.1678,0.467 0.2517,1.4227 0.2517,2.8669 v 19.2456 c 0,1.8718 -0.1896,3.0252 -0.5689,3.4607 -0.5249,0.5804 -1.3999,0.8708 -2.6252,0.8708 h -1.0498 v 0.8036 h 22.8281 l 0.3127,-6.5194 h -0.8489 c -0.3052,1.5713 -0.6433,2.6506 -1.0141,3.2379 -0.371,0.5871 -0.9198,1.0349 -1.6467,1.3433 -0.5816,0.2205 -1.6066,0.3308 -3.0747,0.3308 z" /><path
         id="path44"
         style="fill:#001466;fill-opacity:1;fill-rule:evenodd;stroke:none"
         d="m 2285.0851,1788.7442 h -7.9316 l -10.0571,13.8424 c -0.7236,-0.029 -1.3126,-0.044 -1.7668,-0.044 -0.1847,0 -0.3835,0 -0.5963,0.011 -0.213,0.01 -0.4329,0.018 -0.66,0.033 v -8.6181 c 0,-1.8582 0.2031,-3.0125 0.6092,-3.4627 0.5516,-0.6386 1.3785,-0.9579 2.4809,-0.9579 h 1.1539 v -0.8037 h -12.6872 v 0.8037 h 1.1097 c 1.248,0 2.1405,0.4065 2.6771,1.2196 0.3047,0.4497 0.4571,1.5169 0.4571,3.201 v 19.1563 c 0,1.8582 -0.2031,3.0125 -0.6094,3.4628 -0.5659,0.6386 -1.4075,0.958 -2.5248,0.958 h -1.1097 v 0.8036 h 10.7837 c 3.144,0 5.4616,-0.2292 6.9533,-0.6878 1.4916,-0.4586 2.7577,-1.3033 3.7983,-2.5338 1.0405,-1.2305 1.5608,-2.6975 1.5608,-4.4014 0,-1.8202 -0.5935,-3.4 -1.7804,-4.7396 -1.1869,-1.3397 -3.0255,-2.2862 -5.5161,-2.8397 l 6.13,-8.4757 c 1.396,-1.9559 2.5958,-3.2548 3.599,-3.8971 1.0034,-0.6421 2.3123,-1.0508 3.9264,-1.2262 z m -21.0118,15.2267 c 0.2735,0 0.5113,0 0.7126,-0.011 0.2017,-0.01 0.3669,-0.011 0.4964,-0.011 2.792,0 4.8969,0.6111 6.3142,1.8335 1.4175,1.2223 2.1262,2.7795 2.1262,4.6711 0,1.848 -0.572,3.3505 -1.716,4.5076 -1.144,1.157 -2.659,1.7355 -4.5446,1.7355 -0.8343,0 -1.9639,-0.134 -3.3888,-0.4018 v -12.3244 z" /><path
         id="path46"
         style="fill:#001466;fill-opacity:1;fill-rule:evenodd;stroke:none"
         d="m 2310.8204,1819.019 0.7594,-9.3324 h -0.8041 c -0.7688,2.315 -1.7621,4.0585 -2.9799,5.2308 -1.7547,1.6925 -4.0099,2.5388 -6.7652,2.5388 -3.7558,0 -6.6127,-1.4898 -8.5703,-4.4695 -1.6384,-2.5145 -2.4578,-5.509 -2.4578,-8.983 0,-2.8201 0.5452,-5.3931 1.6356,-7.7188 1.0902,-2.3257 2.5186,-4.0299 4.2851,-5.1127 1.7665,-1.0828 3.5801,-1.6243 5.4411,-1.6243 1.0903,0 2.1441,0.1386 3.1617,0.4162 1.0174,0.2775 1.9987,0.6862 2.9439,1.2262 v 8.5831 c 0,1.4876 -0.1128,2.461 -0.3386,2.9205 -0.2256,0.4591 -0.575,0.8092 -1.0481,1.0499 -0.4729,0.2406 -1.3063,0.361 -2.4998,0.361 v 0.8038 h 11.4363 v -0.8038 h -0.5436 c -1.131,0 -1.9067,-0.3791 -2.3274,-1.1373 -0.2899,-0.5394 -0.4349,-1.6042 -0.4349,-3.1941 v -9.0749 c -1.6706,-0.9038 -3.3195,-1.5672 -4.9466,-1.9899 -1.627,-0.4229 -3.4355,-0.6342 -5.4253,-0.6342 -5.7093,0 -10.0457,1.833 -13.0091,5.4993 -2.2225,2.7499 -3.3338,5.9214 -3.3338,9.5146 0,2.6042 0.6249,5.0992 1.8743,7.4849 1.4816,2.8375 3.5155,5.0199 6.1015,6.5474 2.1647,1.2656 4.7217,1.8984 7.6712,1.8984 1.0749,0 2.0518,-0.087 2.9307,-0.2616 0.8788,-0.1744 2.1245,-0.5598 3.7375,-1.156 0.8134,-0.3051 1.3582,-0.4578 1.634,-0.4578 0.2761,0 0.5121,0.1273 0.7082,0.3817 0.1961,0.2544 0.3161,0.7523 0.3599,1.4937 z" /><path
         id="path48"
         style="fill:#001466;fill-opacity:1;fill-rule:evenodd;stroke:none"
         d="m 2328.3186,1789.5479 v -0.8037 h -12.6873 v 0.8037 h 1.0499 c 1.2253,0 2.1149,0.3556 2.6692,1.0668 0.35,0.4647 0.5249,1.5827 0.5249,3.3538 v 19.1563 c 0,1.4954 -0.095,2.4828 -0.284,2.9618 -0.1462,0.3629 -0.4451,0.6749 -0.8971,0.9363 -0.6416,0.3485 -1.3127,0.5227 -2.013,0.5227 h -1.0499 v 0.8036 h 12.6873 v -0.8036 h -1.0666 c -1.2043,0 -2.0821,-0.3557 -2.6336,-1.0669 -0.3625,-0.4647 -0.5438,-1.5826 -0.5438,-3.3539 v -19.1563 c 0,-1.4954 0.094,-2.4826 0.2828,-2.9617 0.1451,-0.3629 0.45,-0.6749 0.9144,-0.9363 0.624,-0.3484 1.284,-0.5226 1.9802,-0.5226 z" /><path
         id="path50"
         style="fill:#001466;fill-opacity:1;fill-rule:evenodd;stroke:none"
         d="m 2348.6532,1798.6125 h -11.4678 l -1.9831,-4.6356 c -0.4941,-1.1488 -0.7413,-2.0071 -0.7413,-2.5744 0,-0.4509 0.2144,-0.8472 0.6432,-1.189 0.4289,-0.3418 1.356,-0.5638 2.7814,-0.6656 v -0.8037 h -9.3416 v 0.8037 c 1.2359,0.2182 2.0358,0.5019 2.3997,0.8512 0.7413,0.6986 1.5628,2.1175 2.4647,4.2567 l 10.4187,24.3632 h 0.7351 l 10.2965,-24.6276 c 0.8288,-1.9783 1.5812,-3.262 2.2573,-3.851 0.6762,-0.5891 1.6179,-0.9199 2.825,-0.9925 v -0.8037 h -11.6708 v 0.8037 c 1.1777,0.058 1.9738,0.2547 2.3881,0.5899 0.4144,0.3351 0.6216,0.743 0.6216,1.2235 0,0.6408 -0.2909,1.6532 -0.8725,3.0371 z m -0.668,1.6075 -4.9872,11.9482 -5.1256,-11.9482 z" /><path
         id="path52"
         style="fill:#001466;fill-opacity:1;fill-rule:evenodd;stroke:none"
         d="m 2383.1311,1817.6541 v -11.5612 h 5.3385 c 1.2391,0 2.1466,0.2676 2.7223,0.8028 0.5759,0.5352 0.9585,1.6164 1.148,3.2437 h 0.8009 v -10.005 h -0.8009 c -0.014,1.1445 -0.1636,1.9849 -0.448,2.521 -0.2842,0.5362 -0.678,0.9393 -1.181,1.2094 -0.503,0.27 -1.2502,0.4049 -2.2413,0.4049 h -5.3385 v -9.2934 c 0,-1.4892 0.093,-2.4722 0.2802,-2.9493 0.1436,-0.3614 0.4455,-0.6722 0.9057,-0.9325 0.6326,-0.3469 1.2938,-0.5204 1.9838,-0.5204 h 1.0566 v -0.8003 h -12.6344 v 0.8003 h 1.0456 c 1.2201,0 2.106,0.3542 2.658,1.0624 0.3485,0.4627 0.5228,1.576 0.5228,3.3398 v 19.076 c 0,1.4892 -0.094,2.4723 -0.283,2.9495 -0.1455,0.3612 -0.4432,0.6721 -0.8932,0.9323 -0.6246,0.347 -1.2929,0.5204 -2.0046,0.5204 h -1.0456 v 0.8003 h 21.8877 l 0.3114,-6.492 h -0.7563 c -0.3767,1.3831 -0.8151,2.3985 -1.3148,3.0463 -0.4997,0.6478 -1.1146,1.1172 -1.8445,1.4084 -0.7298,0.2911 -1.8608,0.4366 -3.3928,0.4366 z" /><path
         id="path54"
         style="fill:#001466;fill-opacity:1;fill-rule:evenodd;stroke:none"
         d="m 2406.6665,1803.5931 v -8.6168 c 0,-1.8504 0.2022,-2.9999 0.6068,-3.4482 0.5491,-0.636 1.38,-0.954 2.4926,-0.954 h 1.1268 v -0.8003 h -12.6343 v 0.8003 h 1.1108 c 1.2493,0 2.1425,0.4049 2.6796,1.2145 0.2906,0.4479 0.4359,1.5105 0.4359,3.1877 v 19.076 c 0,1.8505 -0.1961,2.9999 -0.588,3.4482 -0.5663,0.636 -1.4088,0.954 -2.5275,0.954 h -1.1108 v 0.8003 h 10.8089 c 2.6386,0 4.7193,-0.2714 6.2417,-0.8148 1.5226,-0.5434 2.8058,-1.4596 3.8496,-2.7486 1.0439,-1.2891 1.5657,-2.8173 1.5657,-4.585 0,-2.4043 -0.7931,-4.3598 -2.3793,-5.8664 -1.5863,-1.5065 -3.8279,-2.2598 -6.7246,-2.2598 -0.7098,0 -1.4777,0.051 -2.3032,0.1532 -0.8255,0.1021 -1.7091,0.2554 -2.6507,0.4597 z m 0,1.2436 c 0.765,-0.1445 1.4436,-0.2529 2.0359,-0.3251 0.5922,-0.072 1.0976,-0.1084 1.5161,-0.1084 1.5019,0 2.7979,0.5817 3.888,1.7453 1.0902,1.1635 1.6353,2.6703 1.6353,4.5203 0,1.2719 -0.2599,2.4535 -0.7799,3.5447 -0.52,1.0913 -1.2565,1.9079 -2.2094,2.4499 -0.953,0.5418 -2.0358,0.8128 -3.2487,0.8128 -0.7363,0 -1.6821,-0.1372 -2.8373,-0.4119 z" /><path
         id="path56"
         style="fill:#001466;fill-opacity:1;fill-rule:evenodd;stroke:none"
         d="m 2363.6569,1789.3758 v 3.9961 h 3.9977 v -3.9961 c 0,-1.4741 -0.2617,-2.6643 -0.7851,-3.5709 -0.5235,-0.9066 -1.3545,-1.6079 -2.4929,-2.1036 l -0.9594,1.5185 c 0.7428,0.3251 1.2902,0.803 1.6421,1.4339 0.3519,0.6308 0.5474,1.5382 0.5865,2.7221 z" /><path
         id="path58"
         style="fill:#f45813;fill-opacity:1;fill-rule:nonzero;stroke:none"
         d="m 1759.5263,1937.4709 c 0,3.7303 3.025,6.7543 6.7566,6.7543 h 146.7073 c 3.7316,0 6.7566,-3.024 6.7566,-6.7543 v -143.2877 c 0,-3.7303 -3.025,-6.7543 -6.7566,-6.7543 h -146.7073 c -3.7316,0 -6.7566,3.024 -6.7566,6.7543 z" /><g
         id="g60"><g
           clip-path="url(#clipPath66)"
           id="g62"><path
             id="path78"
             style="fill:url(#linearGradient76);fill-rule:evenodd;stroke:none"
             d="m 1774.4171,1865.827 c 0,35.064 29.1994,63.4882 65.2194,63.4882 36.0201,0 65.2193,-28.4242 65.2193,-63.4882 0,-35.0639 -29.1992,-63.4881 -65.2193,-63.4881 -36.02,0 -65.2194,28.4242 -65.2194,63.4881 z" /></g></g></g></g></svg>
