<svg width="924" height="500" viewBox="0 0 924 500" fill="none" xmlns="http://www.w3.org/2000/svg">
<rect x="56.5723" y="144.823" width="11.8467" height="145.738" transform="rotate(-45 56.5723 144.823)" fill="#1DC478"/>
<path d="M835 385H875.871C884.569 385 892.116 386.29 898.51 388.87C904.904 391.45 909.829 395.268 913.285 400.323C916.799 405.325 918.556 411.486 918.556 418.805C918.556 424.228 917.289 429.152 914.754 433.575C912.277 437.998 908.85 441.71 904.472 444.712C900.094 447.66 895.025 449.688 889.264 450.793L885.549 452.057H841.913L841.74 443.764H878.29C884.857 443.764 890.33 442.605 894.708 440.288C899.086 437.972 902.369 434.918 904.558 431.126C906.805 427.283 907.928 423.175 907.928 418.805C907.928 413.592 906.69 409.09 904.213 405.299C901.793 401.455 898.193 398.506 893.412 396.453C888.63 394.399 882.783 393.372 875.871 393.372H845.628V500H835V385ZM912.681 500L880.105 448.582L891.511 448.503L924 498.973V500H912.681Z" fill="#002E4F"/>
<path d="M811 491.707V500H739.507V491.707H811ZM742.737 385V500H732V385H742.737ZM802.096 436.576V444.87H739.507V436.576H802.096ZM810.564 385V393.372H739.507V385H810.564Z" fill="#002E4F"/>
<path d="M698 385V500H687.247L614.666 401.745V500H604V385H614.666L687.421 483.255V385H698Z" fill="#002E4F"/>
<path d="M570 385V500H559.133L485.78 401.745V500H475V385H485.78L559.308 483.255V385H570Z" fill="#002E4F"/>
<path d="M402.002 391.872L358.14 500H347L394.865 385H402.611L402.002 391.872ZM441.86 500L397.911 391.872L397.302 385H405.048L453 500H441.86ZM434.028 459.402V467.775H366.755V459.402H434.028Z" fill="#002E4F"/>
<path d="M328 491.707V500H262.543V491.707H328ZM265.664 385V500H255V385H265.664Z" fill="#002E4F"/>
<path d="M189.174 453.163H152.978V444.87H189.174C196.734 444.87 202.868 443.764 207.578 441.552C212.346 439.288 215.806 436.234 217.957 432.39C220.167 428.546 221.272 424.228 221.272 419.437C221.272 414.75 220.167 410.433 217.957 406.484C215.806 402.534 212.346 399.375 207.578 397.005C202.868 394.583 196.734 393.372 189.174 393.372H156.728V500H146V385H189.174C198.478 385 206.299 386.448 212.637 389.344C219.033 392.24 223.859 396.268 227.116 401.429C230.372 406.589 232 412.539 232 419.279C232 426.335 230.372 432.416 227.116 437.524C223.859 442.579 219.062 446.449 212.724 449.135C206.386 451.82 198.536 453.163 189.174 453.163Z" fill="#002E4F"/>
<path d="M213 225L201 225L201 38L213 38L213 225Z" fill="#1DC478"/>
<path d="M252.477 248.977L244.1 240.601L457.6 27.1005L465.977 35.4774L252.477 248.977Z" fill="#1DC478"/>
<path d="M161.1 323.599L169.476 331.975L31.2265 470.226L22.8496 461.849L161.1 323.599Z" fill="#1DC478"/>
<path d="M207.5 5C219.926 5 230 15.0736 230 27.5C230 39.9264 219.926 50 207.5 50C195.074 50 185 39.9264 185 27.5C185 15.0736 195.074 5.00001 207.5 5Z" fill="#1DC478" stroke="#1DC478" stroke-width="10"/>
<circle cx="56.5961" cy="137.086" r="22.6423" transform="rotate(-177.023 56.5961 137.086)" fill="#1DC478" stroke="#1DC478" stroke-width="10"/>
<path d="M27.5 445C39.9264 445 50 455.074 50 467.5C50 479.926 39.9264 490 27.5 490C15.0736 490 5.00001 479.926 5 467.5C5 455.074 15.0736 445 27.5 445Z" fill="#1DC478" stroke="#1DC478" stroke-width="10"/>
<path d="M466 7C478.788 7 489 17.1581 489 29.5C489 41.8419 478.788 52 466 52C453.212 52 443 41.8419 443 29.5C443 17.1581 453.212 7.00001 466 7Z" fill="#1DC478" stroke="#1DC478" stroke-width="10"/>
<path d="M243.507 286C243.507 266.39 227.61 250.493 208 250.493C188.39 250.493 172.493 266.39 172.493 286C172.493 305.61 188.39 321.507 208 321.507L208 356L207.095 355.994C168.852 355.51 138 324.358 138 286C138 247.34 169.34 216 208 216L208.905 216.006C247.148 216.49 278 247.642 278 286L277.994 286.905C277.51 325.148 246.358 356 208 356L208 321.507C227.61 321.507 243.507 305.61 243.507 286Z" fill="#002E4F"/>
<path d="M858.504 220C871.674 220 883.184 222.818 893.032 228.453C902.998 234.089 910.652 241.916 915.991 251.935C921.33 261.954 924 273.35 924 286.124C924 298.773 921.33 310.169 915.991 320.314C910.652 330.458 902.998 338.473 893.032 344.359C883.184 350.12 871.674 353 858.504 353H806V220H858.504ZM854.944 315.805C863.843 315.805 870.903 313.238 876.124 308.103C881.344 302.968 883.955 295.642 883.955 286.124C883.955 276.606 881.344 269.28 876.124 264.145C870.903 259.011 863.843 256.444 854.944 256.444H845.511V315.805H854.944Z" fill="#002E4F"/>
<path d="M787 220V353H748V220H787Z" fill="#002E4F"/>
<path d="M692.893 353L669.397 305.285H669.22V353H630V220H688.3C698.429 220 707.086 221.941 714.27 225.823C721.454 229.581 726.813 234.778 730.347 241.415C733.998 247.928 735.823 255.316 735.823 263.582C735.823 272.474 733.468 280.363 728.757 287.251C724.163 294.139 717.509 299.086 708.793 302.092L736 353H692.893ZM669.22 277.483H684.767C688.536 277.483 691.362 276.606 693.247 274.853C695.131 272.975 696.073 270.094 696.073 266.212C696.073 262.705 695.072 259.95 693.07 257.946C691.186 255.943 688.418 254.941 684.767 254.941H669.22V277.483Z" fill="#002E4F"/>
<path d="M571.697 265.688C570.156 263.063 567.964 261.063 565.12 259.688C562.276 258.188 558.84 257.438 554.811 257.438C547.227 257.438 541.361 260.063 537.214 265.313C533.066 270.438 530.993 277.5 530.993 286.5C530.993 296.875 533.303 304.625 537.925 309.75C542.546 314.875 549.656 317.438 559.254 317.438C568.379 317.438 575.725 313.563 581.295 305.813H549.834V276.375H614V318C608.549 327.875 601.025 336.375 591.426 343.5C581.828 350.5 569.682 354 554.988 354C541.954 354 530.578 351.188 520.861 345.563C511.263 339.813 503.857 331.813 498.643 321.563C493.548 311.313 491 299.625 491 286.5C491 273.375 493.548 261.688 498.643 251.438C503.857 241.188 511.263 233.25 520.861 227.625C530.46 221.875 541.717 219 554.633 219C571.104 219 584.494 223.188 594.803 231.563C605.231 239.938 611.393 251.313 613.289 265.688H571.697Z" fill="#002E4F"/>
<path d="M485 220V253.062H435.516V271.472H471.116V302.843H435.516V353H396V220H485Z" fill="#002E4F"/>
<path d="M382 220V253.062H332.516V271.472H368.116V302.843H332.516V353H293V220H382Z" fill="#002E4F"/>
</svg>
