<svg width="499" height="501" viewBox="0 0 499 501" fill="none" xmlns="http://www.w3.org/2000/svg">
<rect x="54.1953" y="143.585" width="11.9759" height="154.305" transform="rotate(-45 54.1953 143.585)" fill="#1DC478"/>
<rect x="246.805" y="336.194" width="11.9759" height="112.913" transform="rotate(-45 246.805 336.194)" fill="#1DC478"/>
<path d="M216 236L203 236L203 38L216 38L216 236Z" fill="#1DC478"/>
<path d="M255.8 251.3L247.331 242.831L467.545 22.6172L476.014 31.0854L255.8 251.3Z" fill="#1DC478"/>
<path d="M160.83 329.33L169.298 337.798L31.9057 475.19L23.4375 466.722L160.83 329.33Z" fill="#1DC478"/>
<path d="M209 5C221.703 5 232 15.2974 232 28C232 40.7025 221.703 51 209 51C196.297 51 186 40.7026 186 28C186 15.2974 196.297 5 209 5Z" fill="#1DC478" stroke="#1DC478" stroke-width="10"/>
<circle cx="57.2091" cy="138.758" r="22.9438" transform="rotate(-177.023 57.2091 138.758)" fill="#1DC478" stroke="#1DC478" stroke-width="10"/>
<path d="M28 450C40.7025 450 51 460.297 51 473C51 485.703 40.7026 496 28 496C15.2975 496 5.00001 485.703 5 473C5 460.297 15.2975 450 28 450Z" fill="#1DC478" stroke="#1DC478" stroke-width="10"/>
<path d="M329 387C341.788 387 352 397.158 352 409.5C352 421.842 341.788 432 329 432C316.212 432 306 421.842 306 409.5C306 397.158 316.212 387 329 387Z" fill="#1DC478" stroke="#1DC478" stroke-width="10"/>
<path d="M471 7C483.703 7 494 17.2974 494 30C494 42.7025 483.703 53 471 53C458.297 53 448 42.7026 448 30C448 17.2974 458.297 7 471 7Z" fill="#1DC478" stroke="#1DC478" stroke-width="10"/>
<path d="M245 290C245 269.888 228.877 254 209.5 254C190.123 254 174 269.888 174 290C174 310.112 190.123 326 209.5 326L209.5 360L208.602 359.994C170.632 359.51 140 328.358 140 290C140 251.34 171.116 220 209.5 220L210.398 220.006C248.368 220.49 279 251.642 279 290L278.994 290.904C278.513 329.147 247.584 360 209.5 360L209.5 326C228.877 326 245 310.112 245 290Z" fill="#002E4F"/>
</svg>
