<svg width="651" height="502" viewBox="0 0 651 502" fill="none" xmlns="http://www.w3.org/2000/svg">
<rect width="650.504" height="500.944" fill="white"/>
<path d="M399.635 5.02637H422.727V35.3115L422.164 35.2402C413.468 34.1397 394.912 31.8485 390.148 31.4727C388.782 31.365 387.111 31.8243 385.279 32.6592C383.458 33.4892 381.533 34.6643 379.677 35.9238C378.061 37.0201 376.507 38.173 375.129 39.207L400.83 61.2266L400.93 61.3115L409.087 83.4941L417.715 93.3213L417.927 93.5635L409.344 112.647L425.575 120.474L449.593 118.157C446.291 76.5861 442.71 32.0114 440.189 0.854492L441.187 0.774414C444.073 36.4547 448.354 89.7305 452.008 135.942L485.26 123.464V98.9277L485.624 98.8252L510.239 91.8584V58.3066H510.685L475.89 38.5625L445.108 43.25L444.958 42.2607L475.91 37.5488L476.082 37.5225L476.232 37.6084L518.507 61.5957L576.571 70.1523L576.375 70.7227L565.162 103.155C572.226 103.791 582.534 104.773 591.894 105.784C596.837 106.318 601.518 106.861 605.318 107.364C609.105 107.866 612.05 108.333 613.499 108.72C616.366 109.485 623.148 112.252 630.415 115.376C637.7 118.508 645.524 122.021 650.504 124.3L650.088 125.209C645.113 122.932 637.297 119.423 630.021 116.295C622.725 113.159 616.022 110.428 613.241 109.686C611.866 109.318 608.988 108.859 605.187 108.355C601.398 107.854 596.726 107.312 591.786 106.778C581.961 105.716 571.088 104.685 564.027 104.056L452.954 147.932C454.592 168.716 456.058 187.514 457.146 201.857C458.358 217.825 459.108 228.311 459.108 229.844C459.108 230.859 458.768 232.583 458.192 234.778C457.612 236.993 456.777 239.741 455.757 242.835C454.531 246.555 453.033 250.781 451.386 255.193L476.164 248.742L483.282 232.113L520.428 238.275L521.37 237.771L521.213 237.732L526.451 216.896L500.126 202.003L499.93 201.892L494.004 174.082L456.609 187.899L456.264 186.961L621.229 126.011L621.425 126.425L650.205 187.217L649.302 187.645L620.717 127.266L577.532 143.221L587.855 179.526L587.699 179.727L556.204 220.254L556.139 220.338L556.045 220.389L520.748 239.238L520.599 239.318L520.431 239.291L483.893 233.228L476.891 249.587L476.653 249.648L450.956 256.339C449.99 258.905 448.978 261.526 447.94 264.136C444.951 271.653 441.756 279.102 438.898 285C437.47 287.948 436.121 290.516 434.923 292.514C433.737 294.49 432.662 295.971 431.769 296.682C429.133 298.778 424.84 301.51 420.554 304.07V304.302H420.164C416.077 306.733 412.043 308.987 409.505 310.355L403.59 316.89L403.39 317.111L403.1 317.04L376.687 310.49L319.354 343.816C319.324 343.844 319.294 343.872 319.264 343.9C320.171 345.08 321.149 346.348 322.188 347.689C327.745 354.86 335.023 364.136 342.319 373.384C356.925 391.895 371.568 410.249 372.637 411.408C372.819 411.606 373.022 411.936 373.237 412.331C373.46 412.74 373.717 413.263 374.004 413.879C374.578 415.112 375.279 416.741 376.064 418.632C377.636 422.414 379.556 427.264 381.489 432.121C383.424 436.982 385.374 441.85 387.009 445.68C387.826 447.595 388.562 449.245 389.177 450.501C389.484 451.129 389.759 451.653 389.996 452.061C390.238 452.477 390.423 452.74 390.549 452.871C391.226 453.576 392.581 454.958 394.279 456.697C395.976 458.435 398.014 460.527 400.052 462.649C404.112 466.878 408.216 471.269 409.6 473.189C410.961 475.08 412.886 478.18 414.768 480.979C415.715 482.388 416.658 483.731 417.528 484.835C418.408 485.95 419.184 486.782 419.797 487.208C420.311 487.565 421.629 488.309 423.465 489.295C425.288 490.274 427.594 491.477 430.059 492.747C434.85 495.215 440.241 497.933 443.862 499.741L452.158 492.091L455.397 461.647L455.412 461.506L455.499 461.394L473.235 438.537L470.5 432.365L480.526 422.697L480.75 422.482L499.505 429.184L499.518 429.188L499.531 429.194L520.614 438.108H529.015L536.191 458.708L536.27 458.935L536.144 459.138L529.099 470.423L520.975 487.815L516.094 500.522L515.627 500.343L515.16 500.164L520.048 487.439L520.054 487.424L520.062 487.407L528.207 469.971L528.22 469.943L528.235 469.918L535.168 458.811L528.304 439.108H520.413L520.319 439.069L499.161 430.123L480.996 423.632L471.698 432.6L474.393 438.68L474.209 438.915L456.376 461.894L453.134 492.385L453.113 492.571L452.976 492.699L444.287 500.711L444.033 500.944L443.725 500.79C440.103 498.983 434.535 496.178 429.601 493.636C427.133 492.365 424.822 491.159 422.991 490.176C421.173 489.199 419.798 488.427 419.227 488.03C418.482 487.513 417.628 486.577 416.743 485.454C415.849 484.32 414.891 482.953 413.938 481.536C412.019 478.68 410.142 475.653 408.788 473.773C407.456 471.924 403.415 467.596 399.331 463.343C397.296 461.224 395.261 459.133 393.564 457.396C391.87 455.66 390.509 454.272 389.828 453.563C389.614 453.341 389.379 452.99 389.131 452.563C388.877 452.128 388.592 451.579 388.279 450.94C387.653 449.662 386.909 447.993 386.089 446.072C384.449 442.229 382.495 437.349 380.561 432.49C378.625 427.628 376.709 422.788 375.142 419.016C374.358 417.129 373.663 415.514 373.098 414.301C372.815 413.694 372.567 413.192 372.358 412.81C372.143 412.414 371.991 412.183 371.901 412.086C370.798 410.889 356.116 392.485 341.534 374.003C334.237 364.754 326.956 355.475 321.397 348.302C320.381 346.989 319.422 345.747 318.53 344.588C312.749 350.002 304.408 357.871 297.133 364.854C293.31 368.523 289.782 371.945 287.076 374.639C285.723 375.985 284.576 377.148 283.702 378.066C282.819 378.994 282.235 379.65 281.987 379.994C281.611 380.516 280.891 380.857 280.059 381.1C279.198 381.35 278.103 381.528 276.845 381.649C274.324 381.892 271.075 381.915 267.583 381.805C260.641 381.586 252.676 380.838 247.417 380.211L189.316 397.664L189.12 397.917L188.94 397.776L148.685 409.87L148.397 408.912L188.723 396.798L203.706 377.517L188.499 369.78L188.226 369.642V361.337C188.134 360.407 188.197 358.922 188.668 357.372C189.147 355.797 190.056 354.123 191.686 352.911C193.117 351.846 194.112 350.354 194.772 348.899C195.343 347.644 195.652 346.439 195.781 345.612L155.828 328.703L139.808 499.919L138.812 499.825L154.861 328.294L85.8994 299.107L85.7734 299.054L66.1436 272.554L66.0332 272.405L66.0459 272.221L69.3047 226.98L69.3115 226.875L69.3613 226.782L75.2178 215.691L69.3506 203.194L69.3027 203.094V184.132H69.5127C67.852 183.332 66.2919 182.595 64.9082 181.964C62.6063 180.914 60.8269 180.17 59.8906 179.899C57.3175 179.155 54.5266 176.955 52.1387 174.527C49.7379 172.087 47.6738 169.343 46.5635 167.416C46.4886 167.286 46.3105 167.066 46 166.749C45.6978 166.44 45.2959 166.066 44.8018 165.631C43.8136 164.761 42.4744 163.665 40.8643 162.399C37.6448 159.868 33.3602 156.667 28.6738 153.244C19.302 146.398 8.336 138.673 1.09766 133.647L1.66797 132.825C8.91029 137.853 19.8832 145.585 29.2637 152.437C33.9533 155.862 38.2491 159.071 41.4824 161.613C43.0983 162.884 44.4535 163.992 45.4619 164.88C45.9658 165.323 46.3886 165.716 46.7148 166.049C47.0325 166.373 47.2873 166.67 47.4297 166.917C48.4915 168.76 50.501 171.437 52.8516 173.826C55.2148 176.229 57.8543 178.269 60.168 178.938C61.1865 179.233 63.0326 180.01 65.3223 181.054C67.6245 182.104 70.4094 183.441 73.3232 184.873C79.1044 187.715 85.4059 190.939 89.4844 193.062C97.8521 193.379 116.144 194.288 123.101 195.42C126.605 195.99 136.861 198.551 148.221 201.509C154.195 203.064 160.486 204.733 166.279 206.285L174.279 120.788C149.19 118.104 128.258 116.007 125.163 115.828C124.28 115.777 123.088 115.481 121.683 115.012C120.268 114.54 118.601 113.881 116.754 113.081C113.059 111.481 108.619 109.307 103.987 106.913C94.7232 102.125 84.6692 96.441 78.2383 92.668L78.2158 92.6553L78.1953 92.6396L0 35.1475L0.591797 34.3408L78.7695 91.8203C85.1912 95.5874 95.2154 101.253 104.447 106.024C109.07 108.414 113.487 110.576 117.151 112.163C118.984 112.957 120.622 113.604 121.999 114.063C123.386 114.526 124.475 114.786 125.221 114.829C128.339 115.01 149.288 117.109 174.373 119.792L185.512 0.767578L186.508 0.861328L175.368 119.898C178.054 120.186 180.785 120.48 183.544 120.779C184.823 117.08 186.795 111.653 188.778 106.765C189.816 104.205 190.86 101.787 191.81 99.8398C192.284 98.8664 192.739 98.0049 193.159 97.2998C193.576 96.6017 193.975 96.03 194.344 95.6562C195.916 94.064 201.827 86.5679 210.47 79.4805C219.124 72.3836 230.636 65.5854 243.562 65.3467C256.34 65.1108 276.868 66.1723 295.718 66.7607C305.151 67.0552 314.168 67.232 321.604 67.0703C329.065 66.9081 334.86 66.4056 337.897 65.374C344.041 63.2876 351.307 57.8112 357.487 52.5654C360.569 49.9501 363.362 47.4077 365.596 45.3955C366.711 44.3909 367.69 43.5155 368.492 42.832C369.285 42.157 369.936 41.6415 370.389 41.3799C371.102 40.9674 372.183 40.1663 373.53 39.1553L357.824 25.6992L357.798 25.6768L357.774 25.6504C354.513 21.9556 349.648 16.2941 345.65 11.3184C343.653 8.83173 341.865 6.50818 340.603 4.68457C339.972 3.7745 339.465 2.9768 339.127 2.33984C338.958 2.0224 338.824 1.73125 338.739 1.47754C338.661 1.24415 338.597 0.961591 338.656 0.702148L339.631 0.926758C339.636 0.902851 339.622 0.960787 339.688 1.16113C339.749 1.34103 339.854 1.57785 340.01 1.87109C340.321 2.45689 340.803 3.21786 341.425 4.11621C342.667 5.91029 344.437 8.21171 346.43 10.6924C350.404 15.6391 355.244 21.2714 358.499 24.96L374.351 38.54C375.773 37.4718 377.409 36.2544 379.115 35.0967C380.992 33.8234 382.969 32.6125 384.864 31.749C386.748 30.8904 388.607 30.3478 390.228 30.4756C394.92 30.8458 412.83 33.0532 421.727 34.1768V6.02637H399.204L394.169 0.685547L394.532 0.342773L394.896 0L399.635 5.02637ZM546.035 277.44L546.459 277.706C545.2 279.709 544.31 282.433 543.713 285.056C543.136 287.591 542.843 289.991 542.744 291.472L557.882 320.091L558.026 320.365L557.846 320.617L549.794 331.795V342.651L549.682 342.789C548.602 344.117 546.954 346.25 545.524 348.329C544.81 349.369 544.153 350.389 543.651 351.284C543.141 352.194 542.818 352.927 542.726 353.406C542.718 353.446 542.716 353.553 542.763 353.752C542.808 353.943 542.89 354.183 543.01 354.471C543.25 355.047 543.629 355.775 544.121 356.622C545.105 358.315 546.519 360.44 548.115 362.709C550.908 366.679 554.246 371.065 556.792 374.307L557.831 375.621L557.905 375.714L557.929 375.831L564.988 409.761L564.499 409.862L564.194 409.926C565.13 409.917 566.06 409.91 566.979 409.904C571.445 409.877 575.661 409.882 579.062 409.942C582.446 410.002 585.061 410.117 586.297 410.312C587.661 410.527 589.024 411.53 590.305 412.886C591.6 414.257 592.879 416.063 594.071 418.014C596.457 421.917 598.533 426.469 599.717 429.472L599.754 429.566L599.751 429.669C599.57 436.337 599.517 446.55 599.941 455.515C600.154 459.998 600.485 464.159 600.978 467.402C601.224 469.025 601.509 470.406 601.835 471.478C602.168 472.571 602.522 473.266 602.859 473.596C603.798 474.512 604.762 476.157 605.701 478.153C606.649 480.167 607.599 482.597 608.493 485.132C610.282 490.203 611.861 495.732 612.769 499.276L611.8 499.524C610.897 496 609.327 490.502 607.55 485.465C606.661 482.946 605.724 480.55 604.796 478.579C603.86 476.591 602.959 475.091 602.16 474.311C601.629 473.792 601.218 472.883 600.879 471.769C600.533 470.632 600.239 469.199 599.989 467.553C599.489 464.259 599.155 460.06 598.942 455.562C598.519 446.613 598.57 436.434 598.749 429.748C597.574 426.781 595.542 422.337 593.219 418.535C592.044 416.614 590.806 414.873 589.577 413.572C588.334 412.256 587.166 411.461 586.142 411.299C584.988 411.117 582.448 411.002 579.044 410.942C575.655 410.883 571.448 410.877 566.986 410.904C558.062 410.959 548.128 411.148 541.704 411.305L541.679 410.305C547.4 410.165 555.903 410 564.002 409.927L556.974 376.151C554.346 372.846 550.474 367.8 547.297 363.284C545.695 361.007 544.263 358.854 543.257 357.124C542.755 356.261 542.352 355.49 542.087 354.855C541.955 354.539 541.852 354.244 541.79 353.981C541.73 353.728 541.698 353.46 541.744 353.218C541.869 352.566 542.265 351.712 542.779 350.795C543.302 349.863 543.977 348.816 544.701 347.763C546.1 345.727 547.702 343.647 548.794 342.298V331.474L548.888 331.343L556.853 320.283L541.793 291.812L541.728 291.688L541.735 291.548C541.827 290.03 542.13 287.505 542.738 284.834C543.345 282.171 544.265 279.319 545.612 277.175L546.035 277.44ZM155.927 327.658L196.863 344.984L196.825 345.353C196.729 346.27 196.389 347.76 195.684 349.312C194.978 350.866 193.891 352.516 192.282 353.713C190.871 354.763 190.06 356.23 189.625 357.663C189.188 359.1 189.139 360.471 189.223 361.271L189.226 361.297V369.027L205.239 377.175L190.375 396.302L247.228 379.224L247.327 379.193L247.431 379.206C252.671 379.833 260.666 380.585 267.615 380.805C271.092 380.914 274.292 380.89 276.749 380.653C277.979 380.535 279.005 380.365 279.779 380.14C280.581 379.906 281.01 379.642 281.177 379.41C281.472 379.001 282.104 378.295 282.979 377.377C283.862 376.449 285.015 375.279 286.371 373.93C289.084 371.23 292.616 367.802 296.44 364.132C303.749 357.117 312.133 349.21 317.918 343.792C316.629 342.114 315.498 340.63 314.562 339.385C313.709 338.251 313.015 337.312 312.508 336.604C312.013 335.914 311.669 335.406 311.545 335.154C311.31 334.679 311.104 333.923 310.913 332.995C310.719 332.053 310.531 330.887 310.344 329.562C309.969 326.91 309.595 323.588 309.188 320.087C308.372 313.061 307.425 305.334 306.082 300.67C305.825 299.778 305.231 298.435 304.344 296.713C303.461 295 302.301 292.938 300.931 290.617C298.19 285.975 294.614 280.312 290.735 274.355C283.021 262.508 274.12 249.513 268.238 241.107C263.252 239.533 255.519 237.039 248.312 234.605C241.041 232.15 234.268 229.745 231.413 228.411C228.622 227.107 219.473 223.937 209.122 220.492C198.794 217.055 187.318 213.357 179.897 211.001C176.356 210.034 171.953 208.843 167.165 207.559L155.927 327.658ZM410.778 321.43L410.683 321.561C408.516 324.537 405.322 329.189 402.78 333.468C401.509 335.609 400.407 337.644 399.68 339.323C399.316 340.163 399.051 340.901 398.903 341.51C398.752 342.135 398.741 342.557 398.812 342.806C399.65 345.713 402.901 357.584 404.596 363.791L440.375 335.015L440.512 334.904H454.178C459.108 333.162 470.435 329.263 476.932 327.384C483.411 325.51 493.339 321.282 497.5 319.397L497.598 319.353H503.679V320.353H497.812C493.589 322.26 483.712 326.463 477.21 328.344C470.71 330.224 459.319 334.147 454.431 335.875L454.35 335.904H440.865L396.66 371.458V390.541H395.66V370.979L395.847 370.829L403.746 364.475C402.087 358.396 398.706 346.05 397.852 343.083C397.706 342.577 397.769 341.943 397.932 341.273C398.098 340.588 398.386 339.793 398.762 338.926C399.514 337.19 400.64 335.112 401.92 332.957C404.445 328.707 407.603 324.102 409.778 321.105V310.428H410.778V321.43ZM290.823 236.016L299.076 257.5L298.559 257.654L283.802 262.07C286.42 265.973 289.061 269.951 291.573 273.81C295.455 279.771 299.04 285.448 301.792 290.108C303.168 292.438 304.337 294.518 305.232 296.255C306.123 297.983 306.757 299.4 307.043 300.393C308.415 305.154 309.369 312.978 310.182 319.972C310.589 323.481 310.962 326.786 311.334 329.422C311.52 330.739 311.705 331.881 311.893 332.793C312.083 333.719 312.269 334.363 312.441 334.712C312.521 334.874 312.809 335.308 313.321 336.022C313.822 336.721 314.51 337.652 315.361 338.783C316.281 340.006 317.389 341.46 318.651 343.104C318.671 343.087 318.69 343.069 318.709 343.051L318.75 343.012L318.8 342.983L376.535 309.423L403.049 315.997L408.822 309.621L408.88 309.558L408.956 309.517C411.475 308.16 415.487 305.918 419.554 303.501V280.448L404.437 284.521L404.307 284.555L404.178 284.521C401.816 283.89 395.792 282.158 390.561 280.267C389.677 279.947 388.406 279.174 386.885 278.107C385.35 277.031 383.519 275.624 381.5 274.001C377.461 270.754 372.652 266.625 367.934 262.501C363.218 258.379 358.577 254.247 354.892 251.013C353.047 249.393 351.44 247.997 350.177 246.933C348.901 245.858 348.006 245.148 347.568 244.877C347.237 244.672 346.653 244.419 345.833 244.129C345.023 243.843 344.012 243.532 342.85 243.203C340.524 242.546 337.607 241.826 334.497 241.11C328.278 239.679 321.306 238.267 316.785 237.403L316.457 237.341L314.751 229.094L290.823 236.016ZM70.3027 202.869L76.2285 215.493L76.335 215.719L76.2188 215.939L70.2939 227.155L67.0566 272.108L86.4131 298.237L154.96 327.249L166.185 207.295C160.348 205.731 153.997 204.046 147.969 202.477C136.585 199.512 126.387 196.967 122.94 196.406C116.027 195.281 97.6717 194.371 89.334 194.057L89.2217 194.052L89.1221 194C85.0518 191.881 78.7013 188.631 72.8818 185.771C72.0067 185.34 71.1438 184.919 70.3027 184.512V202.869ZM313.604 218.61L317.301 236.483C321.835 237.353 328.636 238.735 334.722 240.136C337.838 240.853 340.773 241.577 343.121 242.24C344.295 242.572 345.328 242.89 346.166 243.187C346.995 243.479 347.666 243.761 348.095 244.027C348.607 244.345 349.562 245.107 350.821 246.168C352.093 247.239 353.706 248.641 355.552 250.262C359.248 253.507 363.873 257.623 368.592 261.748C373.308 265.871 378.104 269.989 382.126 273.222C384.137 274.838 385.951 276.229 387.46 277.288C388.983 278.356 390.155 279.057 390.9 279.326C396.003 281.171 401.877 282.865 404.307 283.519L420.554 279.144V302.903C424.637 300.451 428.655 297.88 431.146 295.899C431.881 295.314 432.876 293.981 434.065 291.999C435.243 290.037 436.576 287.498 437.998 284.563C440.842 278.695 444.028 271.269 447.012 263.766C447.958 261.385 448.882 258.995 449.771 256.647L449.503 256.718L449.402 256.743L403.144 249.659L402.72 249.594V245.27L324.985 216.225L313.604 218.61ZM270.089 242.014C273.779 247.306 278.449 254.101 283.22 261.2L297.755 256.851L289.859 236.295L270.089 242.014ZM167.26 206.547C169.388 207.118 171.441 207.672 173.378 208.195L180.17 210.04L180.18 210.042L180.189 210.045C187.612 212.402 199.099 216.102 209.438 219.543C219.757 222.978 228.98 226.17 231.837 227.505C234.05 228.539 238.725 230.25 244.197 232.142L324.921 215.217L325.063 215.187L403.395 244.455L403.72 244.577V248.735L449.351 255.724L450.204 255.501C451.945 250.862 453.525 246.412 454.808 242.521C455.824 239.438 456.651 236.711 457.225 234.524C457.803 232.319 458.108 230.713 458.108 229.844C458.108 228.361 457.364 217.938 456.149 201.934C455.066 187.661 453.609 168.979 451.981 148.315L406.662 166.219L406.573 166.253H332.008L331.935 166.23L268.439 146.45L174.151 132.89L167.26 206.547ZM246.041 232.776C246.893 233.068 247.759 233.363 248.633 233.658C255.91 236.115 263.726 238.635 268.701 240.205L268.863 240.257L268.961 240.396C269.14 240.652 269.322 240.913 269.507 241.178L269.497 241.145L289.499 235.357L285.459 224.839L286.393 224.479L290.464 235.079L305.468 230.738L301.919 221.061L246.041 232.776ZM494.952 173.731L500.813 201.243L527.607 216.4L522.368 237.238L555.48 219.555L586.755 179.312L576.592 143.568L494.952 173.731ZM302.909 220.853L306.431 230.46L314.548 228.111L312.626 218.815L302.909 220.853ZM174.245 131.894L268.621 145.466L268.66 145.472L268.698 145.483L332.157 165.253H406.383L451.899 147.272C451.731 145.132 451.562 142.972 451.39 140.793C451.299 139.649 451.206 138.499 451.115 137.346L405.568 154.439L405.483 154.472H334.176L334.099 154.446C324.595 151.304 310.014 146.449 297.156 142.098C284.315 137.752 273.155 133.894 270.523 132.752C270.176 132.601 269.338 132.391 268.008 132.133C266.699 131.879 264.962 131.589 262.856 131.267C261.172 131.009 259.253 130.734 257.131 130.44L257.066 130.599L256.604 130.409L256.446 130.345C253.43 129.93 250.026 129.483 246.316 129.013C233.008 127.327 215.787 125.339 198.513 123.425C190.655 122.554 182.788 121.7 175.274 120.896L174.245 131.894ZM310.831 94.2979L293.686 139.863C294.927 140.285 296.193 140.716 297.477 141.15C310.298 145.49 324.836 150.33 334.34 153.472H405.3L451.033 136.308C450.588 130.681 450.132 124.948 449.672 119.154L425.532 121.482L425.393 121.496L425.267 121.435L400.898 109.686L386.307 107.341L386.255 107.332L386.206 107.313L371.641 101.694C367.801 101.851 359.411 102.067 355.923 101.688C354.784 101.565 352.703 101.02 350.212 100.295C347.704 99.5645 344.728 98.6348 341.778 97.7227C338.825 96.8094 335.896 95.9137 333.47 95.2461C332.257 94.9123 331.175 94.6366 330.281 94.4453C329.378 94.2518 328.701 94.1514 328.283 94.1514H310.441L310.831 94.2979ZM511.239 92.6152L510.875 92.7178L486.26 99.6836V124.157L485.936 124.279L452.09 136.98C452.189 138.23 452.289 139.475 452.387 140.714C452.551 142.789 452.711 144.848 452.872 146.889L563.771 103.083L563.882 103.039L564 103.05C564.045 103.054 564.091 103.057 564.137 103.062L575.232 70.9658L518.176 62.5576L511.239 58.6211V92.6152ZM257.521 129.485C259.546 129.767 261.385 130.03 263.008 130.278C265.119 130.601 266.87 130.894 268.198 131.151C269.504 131.405 270.454 131.632 270.921 131.835C273.179 132.815 281.959 135.875 292.738 139.542L309.852 94.0605L274.83 87.1523L257.521 129.485ZM374.309 39.8223C372.898 40.8821 371.696 41.7798 370.89 42.2461C370.527 42.4557 369.941 42.9123 369.141 43.5938C368.35 44.267 367.381 45.1331 366.265 46.1387C364.035 48.1468 361.229 50.7009 358.134 53.3281C351.961 58.5676 344.564 64.1654 338.219 66.3203C335.012 67.4094 329.063 67.9086 321.625 68.0703C314.162 68.2326 305.123 68.0553 295.687 67.7607C276.796 67.171 256.326 66.1114 243.581 66.3467C230.986 66.5792 219.69 73.2131 211.104 80.2539C202.506 87.3041 196.74 94.6519 195.055 96.3584C194.772 96.6444 194.423 97.1322 194.018 97.8115C193.617 98.4839 193.177 99.3184 192.709 100.277C191.774 102.195 190.739 104.59 189.705 107.14C187.769 111.913 185.84 117.209 184.563 120.89C189.202 121.393 193.915 121.909 198.623 122.431C215.899 124.345 233.126 126.334 246.442 128.021C250.119 128.486 253.498 128.931 256.499 129.343L274.061 86.3936L274.216 86.0127L310.41 93.1514H328.283C328.815 93.1514 329.581 93.2731 330.49 93.4678C331.41 93.6648 332.514 93.9451 333.735 94.2812C336.179 94.9537 339.122 95.8548 342.074 96.7676C345.029 97.6814 347.993 98.6075 350.491 99.335C353.006 100.067 354.998 100.582 356.031 100.694C359.462 101.066 367.892 100.85 371.704 100.692L371.808 100.688L371.904 100.726L386.517 106.361L401.127 108.71L401.199 108.721L401.266 108.753L408.443 112.213L416.75 93.7393L408.274 84.085L408.214 84.0146L408.182 83.9277L400.081 61.9023L374.309 39.8223Z" fill="#DBE7F0"/>
<rect x="0.295898" y="0.342773" width="123" height="501" fill="url(#paint0_linear_87_282)"/>
<rect x="650.296" y="501.343" width="123" height="501" transform="rotate(-180 650.296 501.343)" fill="url(#paint1_linear_87_282)"/>
<rect x="650.296" y="0.342773" width="100" height="650" transform="rotate(90 650.296 0.342773)" fill="url(#paint2_linear_87_282)"/>
<rect x="0.295898" y="501.343" width="100" height="650" transform="rotate(-90 0.295898 501.343)" fill="url(#paint3_linear_87_282)"/>
<path d="M250.709 185.304C251.1 185.695 251.1 186.328 250.709 186.719C250.319 187.109 249.685 187.109 249.295 186.719L247.062 184.486C246.672 184.096 246.672 183.462 247.062 183.072C247.453 182.681 248.086 182.681 248.477 183.072L250.709 185.304ZM259.64 194.236C260.031 194.626 260.031 195.259 259.64 195.65C259.25 196.04 258.617 196.04 258.226 195.65L253.761 191.184C253.37 190.794 253.37 190.16 253.761 189.77C254.151 189.38 254.784 189.38 255.175 189.77L259.64 194.236ZM268.572 203.167C268.962 203.558 268.962 204.191 268.572 204.581C268.181 204.972 267.548 204.972 267.158 204.581L262.692 200.116C262.302 199.725 262.301 199.092 262.692 198.701C263.082 198.311 263.716 198.311 264.106 198.701L268.572 203.167ZM277.503 212.098C277.894 212.489 277.894 213.122 277.503 213.513C277.113 213.903 276.48 213.903 276.089 213.513L271.623 209.047C271.233 208.656 271.233 208.023 271.623 207.633C272.014 207.242 272.647 207.242 273.038 207.633L277.503 212.098ZM284.201 218.797C284.592 219.187 284.592 219.82 284.201 220.211C283.811 220.601 283.178 220.601 282.787 220.211L280.555 217.978C280.164 217.588 280.164 216.955 280.555 216.564C280.945 216.174 281.578 216.174 281.969 216.564L284.201 218.797Z" fill="#275B80"/>
<path d="M399.285 341.781C398.901 341.384 398.911 340.751 399.307 340.367C399.704 339.983 400.337 339.993 400.721 340.389L402.919 342.658C403.304 343.055 403.294 343.688 402.897 344.072C402.5 344.457 401.867 344.447 401.483 344.05L399.285 341.781ZM390.493 332.707C390.109 332.31 390.119 331.677 390.516 331.292C390.912 330.908 391.545 330.918 391.93 331.315L396.325 335.852C396.71 336.249 396.7 336.882 396.303 337.266C395.906 337.651 395.273 337.64 394.889 337.244L390.493 332.707ZM381.702 323.632C381.318 323.235 381.328 322.602 381.724 322.218C382.121 321.834 382.754 321.844 383.138 322.24L387.534 326.778C387.918 327.174 387.908 327.807 387.512 328.192C387.115 328.576 386.482 328.566 386.098 328.169L381.702 323.632ZM372.91 314.557C372.526 314.161 372.536 313.528 372.933 313.143C373.329 312.759 373.962 312.769 374.347 313.166L378.743 317.703C379.127 318.1 379.117 318.733 378.72 319.117C378.323 319.501 377.69 319.491 377.306 319.095L372.91 314.557ZM366.317 307.752C365.933 307.355 365.943 306.722 366.34 306.338C366.736 305.954 367.369 305.964 367.754 306.36L369.951 308.628C370.335 309.025 370.325 309.658 369.929 310.043C369.532 310.427 368.899 310.417 368.515 310.02L366.317 307.752Z" fill="#275B80"/>
<path d="M327.295 92.2849C327.295 92.8372 326.847 93.2849 326.295 93.2849C325.743 93.2849 325.295 92.8372 325.295 92.2849V89.1462C325.295 88.594 325.743 88.1462 326.295 88.1462C326.847 88.1462 327.295 88.594 327.295 89.1462V92.2849ZM327.295 104.841C327.295 105.393 326.847 105.841 326.295 105.841C325.743 105.841 325.295 105.393 325.295 104.841V98.5632C325.295 98.0109 325.743 97.5632 326.295 97.5632C326.847 97.5632 327.295 98.0109 327.295 98.5632V104.841ZM327.295 117.396C327.295 117.949 326.847 118.396 326.295 118.396C325.743 118.396 325.295 117.949 325.295 117.396V111.119C325.295 110.567 325.743 110.119 326.295 110.119C326.847 110.119 327.295 110.567 327.295 111.119V117.396ZM327.295 129.952C327.295 130.504 326.847 130.952 326.295 130.952C325.743 130.952 325.295 130.504 325.295 129.952V123.674C325.295 123.121 325.743 122.674 326.295 122.674C326.847 122.674 327.295 123.121 327.295 123.674V129.952ZM327.295 142.508C327.295 143.06 326.847 143.508 326.295 143.508C325.743 143.508 325.295 143.06 325.295 142.508V136.229C325.295 135.677 325.743 135.229 326.295 135.229C326.847 135.229 327.295 135.677 327.295 136.229V142.508ZM327.295 155.063C327.295 155.615 326.847 156.063 326.295 156.063C325.743 156.063 325.295 155.615 325.295 155.063V148.785C325.295 148.233 325.743 147.785 326.295 147.785C326.847 147.785 327.295 148.233 327.295 148.785V155.063ZM327.295 167.619C327.295 168.171 326.847 168.619 326.295 168.619C325.743 168.619 325.295 168.171 325.295 167.619V161.341C325.295 160.788 325.743 160.341 326.295 160.341C326.847 160.341 327.295 160.788 327.295 161.341V167.619ZM327.295 180.174C327.295 180.726 326.847 181.174 326.295 181.174C325.743 181.174 325.295 180.726 325.295 180.174V173.896C325.295 173.344 325.743 172.896 326.295 172.896C326.847 172.896 327.295 173.344 327.295 173.896V180.174ZM327.295 192.729C327.295 193.282 326.847 193.729 326.295 193.729C325.743 193.729 325.295 193.282 325.295 192.729V186.452C325.295 185.9 325.743 185.452 326.295 185.452C326.847 185.452 327.295 185.9 327.295 186.452V192.729ZM327.295 202.146C327.295 202.699 326.847 203.146 326.295 203.146C325.743 203.146 325.295 202.699 325.295 202.146V199.008C325.295 198.455 325.743 198.008 326.295 198.008C326.847 198.008 327.295 198.455 327.295 199.008V202.146Z" fill="#275B80"/>
<path d="M480.742 105.584C480.363 105.986 479.73 106.005 479.328 105.627C478.926 105.248 478.907 104.615 479.286 104.213L481.272 102.104C481.65 101.702 482.283 101.683 482.685 102.062C483.087 102.441 483.106 103.073 482.728 103.476L480.742 105.584ZM472.799 114.019C472.42 114.421 471.787 114.44 471.385 114.061C470.983 113.682 470.964 113.05 471.343 112.647L475.314 108.43C475.693 108.028 476.326 108.009 476.728 108.388C477.13 108.766 477.149 109.399 476.77 109.801L472.799 114.019ZM464.855 122.454C464.476 122.856 463.843 122.875 463.441 122.496C463.039 122.118 463.02 121.485 463.399 121.083L467.37 116.865C467.749 116.463 468.382 116.444 468.784 116.823C469.186 117.202 469.205 117.835 468.826 118.237L464.855 122.454ZM456.912 130.888C456.533 131.29 455.9 131.309 455.498 130.931C455.096 130.552 455.077 129.919 455.456 129.517L459.427 125.3C459.806 124.898 460.439 124.879 460.841 125.257C461.243 125.636 461.262 126.269 460.883 126.671L456.912 130.888ZM448.968 139.323C448.59 139.725 447.957 139.744 447.555 139.365C447.153 138.987 447.134 138.354 447.512 137.952L451.484 133.734C451.863 133.332 452.496 133.313 452.898 133.692C453.3 134.071 453.319 134.703 452.94 135.106L448.968 139.323ZM441.025 147.758C440.646 148.16 440.013 148.179 439.611 147.8C439.209 147.422 439.19 146.789 439.569 146.387L443.541 142.169C443.92 141.767 444.553 141.748 444.954 142.126C445.356 142.505 445.375 143.138 444.997 143.54L441.025 147.758ZM433.081 156.192C432.703 156.594 432.07 156.613 431.668 156.235C431.266 155.856 431.247 155.223 431.626 154.821L435.597 150.604C435.976 150.202 436.609 150.183 437.011 150.562C437.413 150.94 437.432 151.573 437.053 151.975L433.081 156.192ZM425.138 164.627C424.76 165.029 424.127 165.048 423.725 164.669C423.323 164.291 423.304 163.658 423.682 163.256L427.654 159.039C428.033 158.636 428.665 158.617 429.068 158.996C429.47 159.375 429.489 160.008 429.11 160.41L425.138 164.627ZM417.195 173.061C416.817 173.463 416.184 173.482 415.782 173.104C415.38 172.725 415.361 172.092 415.739 171.69L419.711 167.473C420.089 167.071 420.722 167.052 421.124 167.431C421.526 167.809 421.545 168.442 421.167 168.844L417.195 173.061ZM409.251 181.497C408.873 181.898 408.24 181.918 407.838 181.539C407.436 181.16 407.417 180.527 407.795 180.125L411.767 175.908C412.146 175.506 412.778 175.487 413.181 175.866C413.583 176.244 413.602 176.877 413.223 177.279L409.251 181.497ZM401.308 189.931C400.93 190.333 400.297 190.352 399.895 189.973C399.493 189.595 399.474 188.962 399.852 188.56L403.824 184.343C404.202 183.941 404.835 183.922 405.237 184.3C405.639 184.679 405.658 185.312 405.28 185.714L401.308 189.931ZM393.365 198.366C392.986 198.768 392.354 198.787 391.952 198.408C391.549 198.029 391.53 197.396 391.909 196.994L395.881 192.777C396.259 192.375 396.892 192.356 397.294 192.735C397.696 193.113 397.715 193.746 397.337 194.148L393.365 198.366ZM385.421 206.801C385.043 207.203 384.41 207.222 384.008 206.843C383.606 206.465 383.587 205.832 383.965 205.43L387.937 201.212C388.316 200.81 388.948 200.791 389.35 201.17C389.753 201.549 389.771 202.181 389.393 202.583L385.421 206.801ZM377.478 215.235C377.1 215.637 376.467 215.656 376.065 215.278C375.663 214.899 375.644 214.266 376.022 213.864L379.994 209.647C380.372 209.245 381.005 209.226 381.407 209.604C381.809 209.983 381.828 210.616 381.45 211.018L377.478 215.235ZM371.521 221.561C371.142 221.963 370.509 221.982 370.107 221.603C369.705 221.225 369.686 220.592 370.065 220.19L372.051 218.081C372.429 217.679 373.062 217.66 373.464 218.039C373.866 218.417 373.885 219.05 373.507 219.452L371.521 221.561Z" fill="#275B80"/>
<path d="M166.478 415.324C166.868 414.933 167.501 414.933 167.892 415.324C168.282 415.714 168.282 416.347 167.892 416.738L165.822 418.808C165.431 419.199 164.798 419.199 164.407 418.808C164.017 418.418 164.017 417.784 164.407 417.394L166.478 415.324ZM174.759 407.042C175.15 406.652 175.783 406.652 176.173 407.042C176.564 407.433 176.564 408.066 176.173 408.456L172.033 412.597C171.642 412.987 171.009 412.987 170.619 412.597C170.228 412.206 170.228 411.573 170.619 411.183L174.759 407.042ZM183.041 398.761C183.431 398.37 184.064 398.37 184.455 398.761C184.845 399.151 184.845 399.784 184.455 400.175L180.314 404.315C179.924 404.706 179.291 404.706 178.9 404.315C178.51 403.925 178.51 403.292 178.9 402.901L183.041 398.761ZM191.322 390.479C191.713 390.089 192.346 390.089 192.736 390.479C193.127 390.87 193.127 391.503 192.736 391.893L188.596 396.034C188.205 396.424 187.572 396.424 187.182 396.034C186.791 395.643 186.791 395.01 187.182 394.619L191.322 390.479ZM199.604 382.197C199.994 381.807 200.628 381.807 201.018 382.197C201.409 382.588 201.408 383.221 201.018 383.612L196.877 387.753C196.486 388.143 195.853 388.143 195.463 387.753C195.072 387.362 195.072 386.729 195.463 386.339L199.604 382.197ZM207.885 373.916C208.276 373.525 208.909 373.525 209.3 373.916C209.69 374.306 209.69 374.94 209.3 375.33L205.158 379.471C204.768 379.862 204.135 379.862 203.744 379.471C203.354 379.081 203.354 378.448 203.744 378.057L207.885 373.916ZM216.167 365.634C216.558 365.244 217.191 365.244 217.581 365.634C217.972 366.025 217.971 366.658 217.581 367.049L213.44 371.19C213.05 371.58 212.416 371.58 212.026 371.19C211.635 370.799 211.635 370.166 212.026 369.775L216.167 365.634ZM224.449 357.353C224.839 356.962 225.472 356.962 225.863 357.353C226.253 357.743 226.253 358.376 225.863 358.767L221.722 362.908C221.331 363.298 220.698 363.299 220.307 362.908C219.917 362.518 219.917 361.884 220.307 361.494L224.449 357.353ZM232.73 349.071C233.121 348.681 233.754 348.681 234.144 349.071C234.535 349.462 234.535 350.095 234.144 350.485L230.003 354.627C229.613 355.017 228.979 355.017 228.589 354.627C228.198 354.236 228.198 353.603 228.589 353.212L232.73 349.071ZM241.011 340.79C241.402 340.4 242.035 340.4 242.425 340.79C242.816 341.181 242.816 341.814 242.425 342.204L238.285 346.345C237.894 346.735 237.261 346.735 236.871 346.345C236.48 345.954 236.48 345.321 236.871 344.931L241.011 340.79ZM249.293 332.509C249.683 332.118 250.316 332.118 250.707 332.509C251.097 332.899 251.097 333.532 250.707 333.923L246.566 338.063C246.176 338.454 245.543 338.454 245.152 338.063C244.762 337.673 244.762 337.04 245.152 336.649L249.293 332.509ZM257.574 324.227C257.965 323.837 258.598 323.837 258.988 324.227C259.379 324.618 259.379 325.251 258.988 325.641L254.848 329.782C254.457 330.172 253.824 330.172 253.434 329.782C253.043 329.391 253.043 328.758 253.434 328.368L257.574 324.227ZM265.856 315.946C266.246 315.555 266.879 315.555 267.27 315.946C267.66 316.336 267.66 316.969 267.27 317.36L263.129 321.5C262.739 321.891 262.106 321.891 261.715 321.5C261.325 321.11 261.325 320.477 261.715 320.086L265.856 315.946ZM274.137 307.664C274.528 307.273 275.161 307.273 275.551 307.664C275.942 308.055 275.942 308.688 275.551 309.078L271.411 313.219C271.021 313.609 270.387 313.609 269.997 313.219C269.606 312.828 269.606 312.195 269.997 311.804L274.137 307.664ZM280.349 301.453C280.739 301.062 281.372 301.062 281.763 301.453C282.153 301.843 282.153 302.476 281.763 302.867L279.693 304.937C279.302 305.328 278.669 305.328 278.278 304.937C277.888 304.547 277.888 303.913 278.278 303.523L280.349 301.453Z" fill="#275B80"/>
<circle cx="228.181" cy="162.122" r="33.5172" transform="rotate(-177.023 228.181 162.122)" fill="#275B80"/>
<circle cx="326.09" cy="80.5553" r="33.5172" transform="rotate(-177.023 326.09 80.5553)" fill="#275B80"/>
<circle cx="502.082" cy="80.8802" r="33.5172" transform="rotate(-177.023 502.082 80.8802)" fill="#275B80"/>
<path d="M385.295 262.646C385.295 229.777 358.872 203.146 326.295 203.146C293.718 203.146 267.295 229.777 267.295 262.646C267.295 295.515 293.718 322.146 326.295 322.146L326.295 323.146C293.158 323.146 266.295 296.059 266.295 262.646C266.295 229.233 293.158 202.146 326.295 202.146C359.432 202.146 386.295 229.233 386.295 262.646C386.295 296.059 359.432 323.146 326.295 323.146L326.295 322.146C358.872 322.146 385.295 295.515 385.295 262.646Z" fill="#002E4F"/>
<g clip-path="url(#clip0_87_282)">
<path d="M213.622 144.91C213.949 144.91 214.167 144.68 214.167 144.334L214.167 143.298C214.167 142.952 213.949 142.722 213.622 142.722C213.294 142.722 213.076 142.952 213.076 143.298V144.334C213.076 144.622 213.349 144.91 213.622 144.91Z" fill="white"/>
<path d="M240.787 152.337C240.677 151.531 239.859 150.898 238.932 150.898H221.259C220.332 150.898 219.514 151.531 219.405 152.337L217.278 169.553C217.114 170.704 217.987 171.625 219.132 171.625H225.896L225.896 175.541H224.477C224.314 175.541 224.15 175.656 224.041 175.771L222.241 178.65C222.132 178.822 222.132 179.053 222.187 179.225C222.296 179.398 222.459 179.513 222.677 179.513H237.405C237.623 179.513 237.787 179.398 237.896 179.225C238.005 179.053 238.005 178.822 237.841 178.65L236.041 175.771C235.932 175.598 235.768 175.541 235.605 175.541H234.187V171.625H241.059C242.205 171.625 243.077 170.704 242.914 169.553L240.787 152.337ZM230.641 151.992H234.568L234.732 155.043H230.587L230.587 151.992H230.641ZM230.641 156.195H234.841L235.059 159.65H230.641L230.641 156.195ZM230.641 160.801H235.114L235.332 164.774H230.641L230.641 160.801ZM225.623 151.992H229.55V155.043H225.405L225.623 151.992ZM233.041 171.625V175.541H226.987V171.625H233.041ZM225.35 156.195H229.55V159.65H225.132L225.35 156.195ZM225.077 160.801H229.55V164.774H224.859L225.077 160.801ZM223.386 170.474H219.132C218.641 170.474 218.314 170.128 218.368 169.668L218.859 165.81L223.659 165.81L223.386 170.474ZM223.714 164.716H218.914L219.405 160.744H223.932L223.714 164.716ZM224.041 159.65H219.568L220.005 156.195H224.259L224.041 159.65ZM220.168 155.044L220.496 152.453C220.496 152.28 220.823 151.992 221.259 151.992H224.532L224.368 155.044H220.168ZM224.478 170.474L224.75 165.868H229.55V170.474H224.478ZM235.278 176.692L236.368 178.419L223.659 178.419L224.75 176.692L235.278 176.692ZM230.641 170.474V165.868H235.441L235.714 170.474H230.641ZM235.659 151.992H238.932C239.369 151.992 239.696 152.28 239.696 152.453L240.023 155.043H235.823L235.659 151.992ZM235.932 156.195H240.187L240.623 159.65H236.151L235.932 156.195ZM236.205 160.801H240.732L241.223 164.774H236.423L236.205 160.801ZM241.06 170.474H236.805L236.532 165.868H241.387L241.878 169.726C241.878 170.186 241.496 170.474 241.06 170.474L241.06 170.474Z" fill="white"/>
<path d="M213.622 145.428C211.768 145.428 210.24 147.04 210.24 148.998C210.24 150.956 211.768 152.568 213.622 152.568C215.477 152.568 217.004 150.956 217.004 148.998C217.004 147.04 215.531 145.428 213.622 145.428ZM213.622 151.474C212.368 151.474 211.331 150.38 211.331 149.056C211.331 147.731 212.368 146.637 213.622 146.637C214.877 146.637 215.913 147.731 215.913 149.056C215.913 150.38 214.931 151.474 213.622 151.474Z" fill="white"/>
<path d="M210.95 145.255C211.113 145.543 211.441 145.601 211.659 145.428C211.931 145.255 211.986 144.91 211.877 144.622L211.386 143.758C211.222 143.528 210.895 143.413 210.677 143.586C210.404 143.701 210.295 144.104 210.459 144.334L210.95 145.255Z" fill="white"/>
<path d="M208.658 146.637L209.477 147.156C209.749 147.328 210.077 147.213 210.24 146.983C210.404 146.695 210.295 146.349 210.022 146.177L209.204 145.659C208.931 145.486 208.604 145.601 208.44 145.889C208.331 146.177 208.386 146.522 208.658 146.637Z" fill="white"/>
<path d="M209.204 149.631C209.531 149.631 209.75 149.401 209.75 149.055C209.75 148.71 209.531 148.479 209.204 148.479L208.222 148.479C207.895 148.479 207.677 148.71 207.677 149.055C207.677 149.401 207.895 149.631 208.222 149.631L209.204 149.631Z" fill="white"/>
<path d="M209.477 150.898L208.658 151.416C208.386 151.589 208.331 151.934 208.44 152.164C208.604 152.452 208.931 152.51 209.204 152.395L210.022 151.876C210.295 151.704 210.349 151.358 210.24 151.07C210.077 150.84 209.749 150.725 209.477 150.898Z" fill="white"/>
<path d="M210.95 152.798L210.459 153.661C210.295 153.949 210.404 154.295 210.677 154.467C210.95 154.64 211.277 154.525 211.44 154.237L211.931 153.373C212.095 153.086 211.986 152.74 211.713 152.567C211.441 152.452 211.113 152.567 210.95 152.798Z" fill="white"/>
<path d="M213.077 153.719V154.755C213.077 155.101 213.295 155.331 213.623 155.331C213.95 155.331 214.168 155.101 214.168 154.755V153.719C214.168 153.373 213.95 153.143 213.623 153.143C213.295 153.143 213.077 153.431 213.077 153.719Z" fill="white"/>
<path d="M215.585 152.625C215.313 152.798 215.258 153.143 215.367 153.431L215.858 154.295C216.022 154.583 216.349 154.64 216.622 154.525C216.894 154.352 216.949 154.007 216.84 153.719L216.349 152.855C216.185 152.567 215.858 152.452 215.585 152.625Z" fill="white"/>
<path d="M218.805 152.164C218.968 151.876 218.859 151.531 218.586 151.358L217.768 150.84C217.495 150.667 217.168 150.783 217.005 151.07C216.841 151.358 216.95 151.704 217.223 151.876L218.041 152.395C218.314 152.567 218.641 152.452 218.805 152.164Z" fill="white"/>
<path d="M217.55 149.055C217.55 149.401 217.768 149.631 218.095 149.631H219.077C219.404 149.631 219.623 149.401 219.623 149.055C219.623 148.71 219.404 148.479 219.077 148.479H218.095C217.823 148.479 217.55 148.71 217.55 149.055Z" fill="white"/>
<path d="M217.767 147.155L218.586 146.637C218.858 146.464 218.913 146.119 218.804 145.831C218.64 145.543 218.313 145.486 218.04 145.601L217.222 146.176C216.949 146.349 216.895 146.695 217.004 146.982C217.167 147.27 217.495 147.328 217.767 147.155Z" fill="white"/>
<path d="M215.585 145.428C215.858 145.601 216.185 145.486 216.349 145.198L216.84 144.334C217.003 144.046 216.894 143.701 216.622 143.528C216.349 143.355 216.022 143.471 215.858 143.758L215.367 144.622C215.258 144.967 215.313 145.313 215.585 145.428Z" fill="white"/>
</g>
<path fill-rule="evenodd" clip-rule="evenodd" d="M506.39 101.021H498.2C495.615 101.021 493.503 98.9573 493.503 96.4057V72.2609C493.503 69.7204 495.603 67.6453 498.2 67.6453H506.39C508.975 67.6453 511.086 69.7093 511.086 72.2609V96.4057C511.086 98.9461 508.986 101.021 506.39 101.021ZM498.2 68.538C496.111 68.538 494.411 70.2079 494.411 72.2608V96.4055C494.411 98.4584 496.111 100.128 498.2 100.128H506.39C508.479 100.128 510.178 98.4584 510.178 96.4055V72.2608C510.178 70.2079 508.479 68.538 506.39 68.538H498.2Z" fill="white"/>
<path fill-rule="evenodd" clip-rule="evenodd" d="M510.524 87.8912H507.459C507.212 87.8912 507.01 87.693 507.01 87.4503C507.01 87.2076 507.212 87.0095 507.459 87.0095H510.524C510.771 87.0095 510.973 87.2076 510.973 87.4503C510.973 87.693 510.771 87.8912 510.524 87.8912ZM497.2 87.8912H493.992C493.745 87.8912 493.543 87.693 493.543 87.4503C493.543 87.2076 493.745 87.0095 493.992 87.0095H497.2C497.447 87.0095 497.648 87.2076 497.648 87.4503C497.648 87.693 497.46 87.8912 497.2 87.8912ZM510.524 81.6635H507.459C507.212 81.6635 507.01 81.4653 507.01 81.2226C507.01 80.9799 507.212 80.7817 507.459 80.7817H510.524C510.771 80.7817 510.973 80.9799 510.973 81.2226C510.973 81.4653 510.771 81.6635 510.524 81.6635ZM497.2 81.6635H493.992C493.745 81.6635 493.543 81.4653 493.543 81.2226C493.543 80.9799 493.745 80.7817 493.992 80.7817H497.2C497.447 80.7817 497.648 80.9799 497.648 81.2226C497.648 81.4653 497.46 81.6635 497.2 81.6635Z" fill="white"/>
<path fill-rule="evenodd" clip-rule="evenodd" d="M505.34 68.509C505.093 68.509 504.892 68.3109 504.892 68.0682V65.7993C504.892 65.3473 504.513 64.9866 504.065 64.9866H500.548C500.1 64.9866 499.721 65.3584 499.721 65.7993V68.0682C499.721 68.3109 499.52 68.509 499.273 68.509C499.026 68.509 498.824 68.3109 498.824 68.0682V65.7993C498.824 64.8597 499.604 64.0938 500.546 64.0938H504.062C505.018 64.0938 505.798 64.8597 505.798 65.7993V68.0682C505.786 68.3109 505.585 68.509 505.338 68.509H505.34Z" fill="white"/>
<path fill-rule="evenodd" clip-rule="evenodd" d="M503.593 64.8661C503.346 64.8661 503.144 64.6835 503.144 64.4586V62.5727C503.144 62.3479 503.346 62.1653 503.593 62.1653C503.84 62.1653 504.041 62.3479 504.041 62.5727V64.4586C504.053 64.6835 503.853 64.8661 503.593 64.8661ZM500.996 64.8661C500.749 64.8661 500.548 64.6835 500.548 64.4586V62.5727C500.548 62.3479 500.749 62.1653 500.996 62.1653C501.243 62.1653 501.445 62.3479 501.445 62.5727V64.4586C501.445 64.6835 501.243 64.8661 500.996 64.8661Z" fill="white"/>
<path fill-rule="evenodd" clip-rule="evenodd" d="M505.505 62.9472H499.098C497.789 62.9472 496.715 61.903 496.715 60.616C496.715 59.329 497.789 58.2737 499.098 58.2737H505.505C506.815 58.2737 507.889 59.3291 507.889 60.616C507.877 61.8918 506.815 62.9472 505.505 62.9472ZM499.098 59.1554C498.285 59.1554 497.623 59.8056 497.623 60.6049C497.623 61.4042 498.285 62.0432 499.098 62.0432H505.505C506.319 62.0432 506.98 61.3931 506.98 60.6049C506.98 59.8056 506.319 59.1554 505.505 59.1554H499.098Z" fill="white"/>
<path fill-rule="evenodd" clip-rule="evenodd" d="M500.135 62.7891C499.888 62.7891 499.687 62.6043 499.687 62.3772V58.8392C499.687 58.6121 499.888 58.4272 500.135 58.4272C500.382 58.4272 500.584 58.612 500.584 58.8392V62.366C500.584 62.5931 500.382 62.7891 500.135 62.7891Z" fill="white"/>
<path fill-rule="evenodd" clip-rule="evenodd" d="M504.479 62.7891C504.232 62.7891 504.03 62.6043 504.03 62.3772V58.8392C504.03 58.6121 504.232 58.4272 504.479 58.4272C504.726 58.4272 504.927 58.612 504.927 58.8392V62.366C504.927 62.5931 504.726 62.7891 504.479 62.7891Z" fill="white"/>
<path fill-rule="evenodd" clip-rule="evenodd" d="M502.295 90.6165C498.767 90.6165 495.899 87.7976 495.899 84.3313C495.899 80.8647 498.768 78.0347 502.295 78.0347C505.822 78.0347 508.702 80.8646 508.702 84.3313C508.702 87.7982 505.834 90.6165 502.295 90.6165ZM502.295 78.9267C499.261 78.9267 496.796 81.3514 496.796 84.3308C496.796 87.3122 499.263 89.7349 502.295 89.7349C505.329 89.7349 507.794 87.3101 507.794 84.3308C507.805 81.3494 505.326 78.9267 502.295 78.9267Z" fill="white"/>
<path fill-rule="evenodd" clip-rule="evenodd" d="M506.06 73.7548H498.542C498.295 73.7548 498.094 73.5566 498.094 73.3139C498.094 73.0712 498.295 72.873 498.542 72.873H506.06C506.307 72.873 506.508 73.0712 506.508 73.3139C506.508 73.5566 506.307 73.7548 506.06 73.7548Z" fill="white"/>
<path fill-rule="evenodd" clip-rule="evenodd" d="M506.06 95.8024H498.542C498.295 95.8024 498.094 95.6042 498.094 95.3615C498.094 95.1188 498.295 94.9207 498.542 94.9207H506.06C506.307 94.9207 506.508 95.1188 506.508 95.3615C506.508 95.6042 506.307 95.8024 506.06 95.8024Z" fill="white"/>
<path fill-rule="evenodd" clip-rule="evenodd" d="M506.018 86.3503H503.859C503.682 86.3503 503.517 86.2456 503.446 86.0831C503.376 85.9205 503.399 85.7357 503.528 85.6066C503.682 85.4329 503.906 85.2348 504.131 85.0277C504.495 84.7026 505.241 84.0191 505.263 83.763C505.263 83.4624 505.003 83.2063 504.697 83.2063C504.391 83.2063 504.131 83.4624 504.131 83.763C504.131 84.0057 503.929 84.2038 503.682 84.2038C503.435 84.2038 503.233 84.0057 503.233 83.763C503.233 82.9637 503.895 82.3135 504.708 82.3135C505.522 82.3135 506.183 82.9637 506.183 83.763C506.183 84.2729 505.712 84.8072 505.003 85.4552H506.041C506.288 85.4552 506.489 85.6533 506.489 85.896C506.489 86.1387 506.265 86.348 506.018 86.348L506.018 86.3503Z" fill="white"/>
<path fill-rule="evenodd" clip-rule="evenodd" d="M498.885 86.3505C498.638 86.3505 498.437 86.1523 498.437 85.9096V82.1401C498.437 81.8974 498.638 81.6992 498.885 81.6992C499.132 81.6992 499.334 81.8974 499.334 82.1401V85.9096C499.334 86.1412 499.132 86.3505 498.885 86.3505Z" fill="white"/>
<path fill-rule="evenodd" clip-rule="evenodd" d="M501.839 86.3505C501.592 86.3505 501.391 86.1523 501.391 85.9096V82.1401C501.391 81.8974 501.592 81.6992 501.839 81.6992C502.086 81.6992 502.288 81.8974 502.288 82.1401V85.9096C502.288 86.1412 502.086 86.3505 501.839 86.3505Z" fill="white"/>
<path fill-rule="evenodd" clip-rule="evenodd" d="M501.754 84.4598H498.969C498.722 84.4598 498.521 84.2617 498.521 84.019C498.521 83.7763 498.722 83.5781 498.969 83.5781H501.754C502 83.5781 502.202 83.7763 502.202 84.019C502.202 84.2617 502 84.4598 501.754 84.4598Z" fill="white"/>
<path d="M342.795 73.5994C342.977 73.5994 343.152 73.5286 343.281 73.4026C343.41 73.2766 343.482 73.1057 343.482 72.9275V70.0049C343.482 69.8267 343.41 69.6558 343.281 69.5298C343.152 69.4038 342.977 69.333 342.795 69.333H339.701V67.6668C339.701 67.4886 339.629 67.3177 339.5 67.1917C339.371 67.0657 339.196 66.9949 339.014 66.9949H333.514C333.331 66.9949 333.156 67.0657 333.028 67.1917C332.899 67.3177 332.826 67.4886 332.826 67.6668V69.333H319.764V67.6668C319.764 67.4886 319.691 67.3177 319.562 67.1917C319.433 67.0657 319.259 66.9949 319.076 66.9949H313.576C313.394 66.9949 313.219 67.0657 313.09 67.1917C312.961 67.3177 312.889 67.4886 312.889 67.6668V69.333H309.795C309.613 69.333 309.438 69.4038 309.309 69.5298C309.18 69.6558 309.107 69.8267 309.107 70.0049V72.9275C309.107 73.1057 309.18 73.2766 309.309 73.4026C309.438 73.5286 309.613 73.5994 309.795 73.5994H311.514V88.5419H309.795C309.613 88.5419 309.438 88.6127 309.309 88.7387C309.18 88.8647 309.107 89.0356 309.107 89.2138V92.123C309.107 92.3012 309.18 92.4721 309.309 92.5981C309.438 92.7241 309.613 92.7949 309.795 92.7949H342.795C342.977 92.7949 343.152 92.7241 343.281 92.5981C343.41 92.4721 343.482 92.3012 343.482 92.123V89.2138C343.482 89.0356 343.41 88.8647 343.281 88.7387C343.152 88.6127 342.977 88.5419 342.795 88.5419H341.076V73.5994H342.795ZM334.201 68.3387H338.326V69.3331H334.201V68.3387ZM314.264 68.3387H318.389V69.3331H314.264V68.3387ZM342.107 91.4512H310.482V89.8857H342.107V91.4512ZM339.701 88.542H312.889V73.5995H334.16C334.405 73.5995 334.632 73.4714 334.755 73.2635C334.878 73.0557 334.878 72.7995 334.755 72.5917C334.632 72.3838 334.405 72.2557 334.16 72.2557H310.482V70.6768H342.107V72.2557H338.065C337.819 72.2557 337.592 72.3838 337.469 72.5917C337.347 72.7995 337.347 73.0557 337.469 73.2635C337.592 73.4714 337.819 73.5995 338.065 73.5995H339.701L339.701 88.542ZM318.389 77.2143C318.389 77.3925 318.316 77.5634 318.187 77.6894C318.058 77.8154 317.884 77.8862 317.701 77.8862H317.014V78.5581C317.014 78.7982 316.883 79.0199 316.67 79.14C316.457 79.2599 316.195 79.2599 315.982 79.14C315.77 79.0199 315.639 78.7981 315.639 78.5581V77.8862H314.951C314.706 77.8862 314.479 77.7582 314.356 77.5503C314.233 77.3424 314.233 77.0863 314.356 76.8784C314.479 76.6706 314.706 76.5425 314.951 76.5425H315.639V75.8706C315.639 75.6305 315.77 75.4088 315.982 75.2887C316.195 75.1688 316.457 75.1688 316.67 75.2887C316.883 75.4088 317.014 75.6306 317.014 75.8706V76.5425H317.701C317.881 76.546 318.053 76.6183 318.178 76.7439C318.304 76.8696 318.375 77.0384 318.375 77.2144L318.389 77.2143ZM337.639 76.5425C337.884 76.5425 338.111 76.6705 338.234 76.8784C338.357 77.0863 338.357 77.3424 338.234 77.5503C338.111 77.7581 337.884 77.8862 337.639 77.8862H334.889C334.643 77.8862 334.416 77.7581 334.293 77.5503C334.171 77.3424 334.171 77.0863 334.293 76.8784C334.416 76.6705 334.643 76.5425 334.889 76.5425H337.639ZM329.987 79.4181L327.312 78.8403L326.982 74.8764C326.966 74.6802 326.863 74.5007 326.7 74.3854C326.537 74.2702 326.33 74.2306 326.134 74.2772C325.938 74.3238 325.773 74.452 325.683 74.6278L322.039 81.7092C321.962 81.8573 321.944 82.0279 321.989 82.1883C322.033 82.3486 322.136 82.4872 322.279 82.5774C322.421 82.6676 322.593 82.703 322.761 82.6767L325.559 82.2399L325.305 87.1713C325.299 87.3221 325.345 87.4705 325.437 87.5922C325.528 87.7141 325.658 87.8026 325.807 87.8432C325.866 87.8508 325.926 87.8508 325.985 87.8432C326.11 87.8429 326.232 87.8096 326.338 87.7469C326.445 87.6842 326.532 87.5943 326.59 87.4871L330.42 80.3853C330.519 80.2 330.524 79.9801 330.434 79.7904C330.344 79.6007 330.168 79.463 329.959 79.4178L329.987 79.4181ZM326.838 84.2018L326.975 81.4807C326.975 81.3025 326.903 81.1316 326.774 81.0057C326.645 80.8797 326.47 80.8089 326.288 80.8089H326.178L323.875 81.1649L325.82 77.4093L325.979 79.4652C325.99 79.6088 326.048 79.7451 326.145 79.8541C326.241 79.963 326.371 80.0387 326.515 80.0699L328.811 80.5671L326.838 84.2018Z" fill="white"/>
<circle cx="418.994" cy="361.06" r="33.9701" transform="rotate(-177.023 418.994 361.06)" fill="#275B80"/>
<path d="M422.438 361.424L421.402 361.991C422.115 363.296 421.939 364.906 420.957 366.024C419.977 367.142 418.402 367.529 417.017 366.992C416.823 366.917 416.602 366.995 416.499 367.175C416.394 367.356 416.436 367.585 416.598 367.717L420.172 370.616L419.483 368.26C420.891 367.895 422.052 366.899 422.631 365.565C423.207 364.229 423.137 362.701 422.438 361.424Z" fill="white"/>
<path d="M419.991 359.663L416.417 356.764L417.106 359.12V359.117C415.698 359.483 414.538 360.479 413.959 361.813C413.382 363.149 413.452 364.677 414.148 365.954L415.184 365.387H415.187C414.472 364.081 414.65 362.471 415.632 361.353C416.612 360.235 418.184 359.849 419.572 360.385C419.766 360.46 419.987 360.383 420.09 360.202C420.195 360.022 420.153 359.792 419.991 359.663Z" fill="white"/>
<path d="M407.669 343.616C407.04 343.616 406.44 343.864 405.997 344.307C405.554 344.75 405.306 345.35 405.306 345.976H401.765V347.157C402.416 347.157 402.944 347.687 402.944 348.338C402.944 348.99 402.416 349.52 401.765 349.52V350.701H405.306V369.594H401.765V370.775V370.773C402.414 370.777 402.937 371.305 402.937 371.954C402.937 372.603 402.414 373.131 401.765 373.135V374.317H405.306C405.306 375.62 406.363 376.677 407.669 376.677H428.924H428.922C430.227 376.677 431.284 375.62 431.284 374.317H434.826V373.135C434.176 373.131 433.654 372.603 433.654 371.954C433.654 371.305 434.176 370.777 434.826 370.773V369.591H431.284V350.699H434.826V349.517V349.52C434.174 349.52 433.644 348.99 433.644 348.338C433.644 347.687 434.174 347.157 434.826 347.157V345.976H431.284C431.284 345.35 431.036 344.75 430.593 344.307C430.15 343.864 429.548 343.616 428.922 343.616H407.669ZM407.669 344.797H428.924H428.922C429.236 344.797 429.536 344.921 429.756 345.142C429.979 345.364 430.103 345.664 430.103 345.976V374.316C430.103 374.968 429.573 375.498 428.922 375.498H407.666H407.668C407.354 375.498 407.054 375.373 406.832 375.151C406.611 374.93 406.487 374.628 406.487 374.316V345.976C406.487 345.664 406.611 345.362 406.832 345.142C407.054 344.921 407.354 344.795 407.668 344.795L407.669 344.797ZM403.811 347.16L405.306 347.157V349.52H403.808C404.23 348.788 404.23 347.888 403.808 347.157L403.811 347.16ZM431.284 347.16H432.782L432.779 347.157C432.358 347.888 432.358 348.788 432.779 349.52H431.284L431.284 347.16ZM403.811 370.775L405.306 370.773V373.135H403.808C404.23 372.404 404.23 371.504 403.808 370.773L403.811 370.775ZM431.284 370.775H432.782L432.779 370.773C432.358 371.504 432.358 372.404 432.779 373.135H431.284L431.284 370.775Z" fill="white"/>
<path d="M408.848 347.157V353.061H427.74V347.157H408.848ZM410.029 348.339H426.56V351.88H410.029V348.339Z" fill="white"/>
<path d="M328.296 242.343V246.343H309.859C309.063 246.776 308.049 247.334 307.187 247.829C306.853 248.021 306.55 248.198 306.296 248.352V253.343H302.296V247.312C302.296 246.674 302.598 246.242 302.66 246.152C302.768 245.996 302.876 245.886 302.933 245.83C303.052 245.713 303.171 245.62 303.244 245.565C303.404 245.446 303.594 245.32 303.778 245.203C304.158 244.963 304.662 244.666 305.195 244.36C306.269 243.744 307.549 243.041 308.399 242.582L308.844 242.343H328.296Z" fill="#57DDA0"/>
<path d="M328.296 294.343V290.343H309.802C309 289.961 307.966 289.463 307.088 289.022C306.796 288.876 306.529 288.739 306.296 288.617V274.343H302.296V289.745C302.296 290.467 302.681 290.936 302.735 291.004C302.855 291.156 302.973 291.26 303.03 291.31C303.153 291.415 303.275 291.498 303.347 291.545C303.506 291.649 303.696 291.759 303.879 291.86C304.257 292.07 304.76 292.33 305.293 292.598C306.366 293.136 307.645 293.75 308.495 294.151L308.9 294.343H328.296Z" fill="#57DDA0"/>
<circle cx="192.795" cy="322.646" r="3.5" fill="#57DDA0"/>
<circle cx="252.295" cy="285.146" r="6" fill="#57DDA0"/>
<circle cx="235.295" cy="250.146" r="3" fill="#57DDA0"/>
<ellipse cx="182.295" cy="198.646" rx="7" ry="7.5" fill="#57DDA0"/>
<ellipse cx="420.295" cy="244.646" rx="3" ry="2.5" fill="#57DDA0"/>
<circle cx="422.295" cy="194.146" r="3" fill="#57DDA0"/>
<circle cx="461.295" cy="191.146" r="7" fill="#57DDA0"/>
<ellipse cx="354.795" cy="179.146" rx="6.5" ry="7" fill="#57DDA0"/>
<ellipse cx="304.295" cy="377.646" rx="7" ry="6.5" fill="#57DDA0"/>
<path fill-rule="evenodd" clip-rule="evenodd" d="M352.299 243.832V251.498H342.819V243.832H341.987L337.173 236.715L332.145 242.849H332.462H333.11V243.508V251.662H331.815V244.167H330.806L330.299 243.098L336.413 235.59H341.27L343.063 233.392H337.72L332.907 226.272L327.879 232.405H328.195H328.843V233.065V251.644H327.548V233.723H326.539L326.034 232.655L332.148 225.146H343.911L346.571 229.082L346.958 228.608H358.721L364.295 236.851H362.742V251.797H361.523V236.851H352.53L347.718 229.734L342.914 235.59H348.177L353.752 243.832H352.299ZM353.387 245.054V251.498H356.134V245.054H353.387ZM357.463 244.071V247.64H360.21V244.071H357.463ZM357.463 238.603V242.172H360.21V238.603H357.463ZM330.736 232.441V236.01H333.483V232.441H330.736ZM338.048 244.819V248.388H340.795V244.819H338.048ZM334.498 244.819V248.388H337.245V244.819H334.498ZM344.612 244.819V248.388H347.359V244.819H344.612Z" fill="#002E4F"/>
<path fill-rule="evenodd" clip-rule="evenodd" d="M310.56 268.166V275.831H301.08V268.166H300.247L295.434 261.049L290.405 267.183H290.723H291.371V267.842V275.995H290.076V268.5H289.066L288.56 267.432L294.674 259.923H299.531L301.324 257.725H295.981L291.167 250.605L286.14 256.739H286.456H287.104V257.398V275.977H285.809V258.057H284.8L284.295 256.988L290.409 249.479H302.172L304.832 253.416L305.219 252.942H316.982L322.556 261.184H321.003V276.13H319.784V261.184H310.791L305.979 254.067L301.174 259.923H306.438L312.012 268.166H310.56ZM311.648 269.388V275.831H314.395V269.388H311.648ZM315.723 268.404V271.974H318.471V268.404H315.723ZM315.723 262.937V266.506H318.471V262.937H315.723ZM288.996 256.774V260.344H291.744V256.774H288.996ZM296.309 269.152V272.721H299.056V269.152H296.309ZM292.758 269.152V272.721H295.506V269.152H292.758ZM302.873 269.152V272.721H305.62V269.152H302.873Z" fill="#002E4F"/>
<path fill-rule="evenodd" clip-rule="evenodd" d="M331.386 281.924H345.248L351.542 290.906H349.855V296.554H351.382V298.146H324.917V296.554H326.904V291.725H325.62L324.875 290.331L331.386 281.924ZM347.949 296.554V290.906H340.156V296.554H341.227V291.426H344.394V296.554H347.949ZM338.251 296.554V290.906H337.678L332.509 283.527L327.734 289.757H327.856H328.809V296.554L338.251 296.554ZM331.543 290.844V294.846H334.158V290.844H331.543Z" fill="#002E4F"/>
<circle cx="165.409" cy="423.157" r="33.4227" transform="rotate(-177.023 165.409 423.157)" fill="#275B80"/>
<path d="M181.315 413.292C181.315 412.977 181.557 412.722 181.855 412.722C182.153 412.722 182.395 412.977 182.395 413.292V430.294C182.395 431.971 181.744 433.498 180.697 434.603C179.713 435.642 178.376 436.311 176.899 436.387C176.967 436.62 177.004 436.868 177.004 437.124C177.004 437.813 176.739 438.438 176.311 438.889C175.884 439.34 175.292 439.619 174.64 439.619C173.988 439.619 173.396 439.34 172.969 438.889C172.541 438.438 172.277 437.813 172.277 437.124C172.277 436.871 172.313 436.626 172.379 436.395H158.209C158.276 436.626 158.312 436.871 158.312 437.124C158.312 437.813 158.047 438.438 157.62 438.889C157.193 439.34 156.601 439.619 155.948 439.619C155.296 439.619 154.705 439.34 154.277 438.889C153.85 438.438 153.585 437.813 153.585 437.124C153.585 436.868 153.622 436.62 153.69 436.387C152.213 436.311 150.876 435.642 149.892 434.603C148.845 433.498 148.194 431.972 148.194 430.294V413.292C148.194 412.977 148.436 412.722 148.734 412.722C149.032 412.722 149.274 412.977 149.274 413.292V430.294C149.274 431.657 149.804 432.898 150.656 433.797C151.508 434.696 152.683 435.255 153.974 435.255H154.383C154.8 434.866 155.348 434.629 155.948 434.629C156.548 434.629 157.097 434.866 157.513 435.255H173.075C173.491 434.866 174.04 434.629 174.64 434.629C175.24 434.629 175.788 434.866 176.205 435.255H176.614C177.905 435.255 179.081 434.696 179.933 433.797C180.784 432.898 181.314 431.657 181.314 430.294V413.292H181.315ZM171.938 424.262C172.048 423.971 172.362 423.829 172.638 423.946C172.914 424.062 173.048 424.394 172.938 424.685L171.888 427.43L173.455 427.188C173.75 427.142 174.024 427.357 174.067 427.668C174.083 427.781 174.066 427.891 174.024 427.988L172.788 431.362C172.681 431.654 172.369 431.8 172.091 431.687C171.814 431.574 171.676 431.245 171.783 430.952L172.698 428.455L171.115 428.7C171.024 428.714 170.928 428.703 170.837 428.665C170.561 428.548 170.426 428.217 170.537 427.925L171.937 424.262L171.938 424.262ZM154.665 411.735V410.255H152.404C152.197 410.255 152.018 410.133 151.927 409.954L150.542 407.537C150.388 407.268 150.47 406.918 150.725 406.756C150.812 406.7 150.909 406.674 151.004 406.674L155.475 406.673C156.203 406.673 156.865 406.987 157.343 407.492C157.822 407.997 158.119 408.695 158.119 409.464V411.735H176.615C177.533 411.735 178.371 412.132 178.978 412.773C179.582 413.411 179.959 414.293 179.959 415.266V416.483C179.959 416.512 179.957 416.54 179.953 416.568L180.044 416.66C180.481 417.12 180.752 417.757 180.752 418.457V420.486C180.752 421.186 180.481 421.823 180.045 422.283L179.953 422.375C179.957 422.402 179.959 422.431 179.959 422.46V430.294C179.959 431.266 179.583 432.149 178.978 432.789C178.372 433.428 177.535 433.825 176.615 433.825H153.975C153.056 433.825 152.22 433.428 151.614 432.789C151.007 432.147 150.63 431.264 150.63 430.294V422.46C150.63 422.431 150.632 422.402 150.636 422.375L150.545 422.283C150.109 421.823 149.838 421.186 149.838 420.486V418.457C149.838 417.757 150.109 417.12 150.545 416.66L150.637 416.568C150.633 416.54 150.63 416.512 150.63 416.483V415.266C150.63 414.296 151.007 413.413 151.612 412.774C152.218 412.133 153.054 411.735 153.975 411.735H154.665L154.665 411.735ZM157.039 411.735V409.464C157.039 409.01 156.863 408.597 156.579 408.298C156.296 407.999 155.905 407.813 155.475 407.813H151.961L152.707 409.115H155.205C155.503 409.115 155.745 409.371 155.745 409.685V411.735H157.039V411.735ZM170.609 411.219C170.311 411.219 170.069 410.964 170.069 410.649C170.069 410.334 170.311 410.079 170.609 410.079H175.054C175.352 410.079 175.594 410.334 175.594 410.649C175.594 410.964 175.352 411.219 175.054 411.219H170.609ZM153.789 431.346C153.491 431.346 153.249 431.091 153.249 430.776C153.249 430.461 153.491 430.206 153.789 430.206H164.139C164.437 430.206 164.679 430.461 164.679 430.776C164.679 431.091 164.437 431.346 164.139 431.346H153.789ZM153.789 427.398C153.491 427.398 153.249 427.143 153.249 426.828C153.249 426.514 153.491 426.258 153.789 426.258H164.139C164.437 426.258 164.679 426.514 164.679 426.828C164.679 427.143 164.437 427.398 164.139 427.398H153.789ZM153.789 425.424C153.491 425.424 153.249 425.169 153.249 424.854C153.249 424.54 153.491 424.284 153.789 424.284H164.139C164.437 424.284 164.679 424.54 164.679 424.854C164.679 425.169 164.437 425.424 164.139 425.424H153.789ZM153.789 429.372C153.491 429.372 153.249 429.117 153.249 428.802C153.249 428.487 153.491 428.232 153.789 428.232H164.139C164.437 428.232 164.679 428.487 164.679 428.802C164.679 429.117 164.437 429.372 164.139 429.372H153.789ZM152.248 415.913H178.342C178.526 415.913 178.706 415.935 178.879 415.977V415.266C178.879 414.608 178.623 414.011 178.214 413.579C177.802 413.145 177.235 412.875 176.614 412.875H153.975C153.352 412.875 152.786 413.144 152.375 413.578C151.965 414.01 151.71 414.608 151.71 415.266V415.977C151.883 415.935 152.063 415.913 152.248 415.913H152.248ZM178.879 422.966C178.706 423.008 178.526 423.03 178.342 423.03H152.248C152.063 423.03 151.883 423.008 151.71 422.966V430.294C151.71 430.952 151.965 431.55 152.375 431.983C152.785 432.416 153.352 432.685 153.975 432.685H176.615C177.237 432.685 177.804 432.416 178.214 431.983C178.624 431.549 178.879 430.952 178.879 430.295L178.879 422.966ZM178.342 417.053H152.248C151.883 417.053 151.55 417.211 151.309 417.466C151.068 417.72 150.918 418.071 150.918 418.457V420.486C150.918 420.871 151.068 421.222 151.309 421.477C151.55 421.731 151.883 421.89 152.248 421.89H178.342C178.707 421.89 179.04 421.731 179.281 421.477C179.522 421.222 179.672 420.871 179.672 420.486V418.457C179.672 418.071 179.522 417.72 179.281 417.466C179.04 417.211 178.707 417.053 178.342 417.053ZM175.548 436.166C175.316 435.922 174.995 435.77 174.64 435.77C174.286 435.77 173.964 435.922 173.733 436.166C173.501 436.411 173.357 436.751 173.357 437.125C173.357 437.499 173.501 437.838 173.733 438.083C173.964 438.328 174.286 438.48 174.64 438.48C174.995 438.48 175.316 438.328 175.548 438.083C175.78 437.838 175.924 437.499 175.924 437.125C175.924 436.751 175.78 436.411 175.548 436.166ZM156.856 436.166C156.625 435.922 156.303 435.77 155.948 435.77C155.594 435.77 155.273 435.922 155.041 436.166C154.809 436.411 154.665 436.751 154.665 437.125C154.665 437.499 154.809 437.838 155.041 438.083C155.273 438.328 155.594 438.48 155.948 438.48C156.303 438.48 156.625 438.328 156.856 438.083C157.088 437.838 157.232 437.499 157.232 437.125C157.232 436.751 157.088 436.411 156.856 436.166Z" fill="white"/>
<defs>
<linearGradient id="paint0_linear_87_282" x1="135.886" y1="184.23" x2="0.300559" y2="183.213" gradientUnits="userSpaceOnUse">
<stop offset="0.0961538" stop-color="white" stop-opacity="0"/>
<stop offset="1" stop-color="white"/>
</linearGradient>
<linearGradient id="paint1_linear_87_282" x1="785.886" y1="685.23" x2="650.299" y2="684.8" gradientUnits="userSpaceOnUse">
<stop offset="0.100962" stop-color="white" stop-opacity="0"/>
<stop offset="1" stop-color="white"/>
</linearGradient>
<linearGradient id="paint2_linear_87_282" x1="760.532" y1="238.92" x2="650.298" y2="238.7" gradientUnits="userSpaceOnUse">
<stop offset="0.100962" stop-color="white" stop-opacity="0"/>
<stop offset="1" stop-color="white"/>
</linearGradient>
<linearGradient id="paint3_linear_87_282" x1="110.532" y1="739.92" x2="0.297642" y2="739.7" gradientUnits="userSpaceOnUse">
<stop offset="0.100962" stop-color="white" stop-opacity="0"/>
<stop offset="1" stop-color="white"/>
</linearGradient>
<clipPath id="clip0_87_282">
<rect width="36" height="38" fill="white" transform="translate(207.295 142.146)"/>
</clipPath>
</defs>
</svg>
